<svg xmlns="http://www.w3.org/2000/svg" viewBox="0 0 191.8 150"><title>competition_c4g</title><g id="Ebene_3" data-name="Ebene 3"><path d="M133,44.86a3.94,3.94,0,0,0-2.92-1.18H117.77v-4.1a6.9,6.9,0,0,0-6.87-6.86H86.2a6.89,6.89,0,0,0-6.85,6.82v4.1H67a4.1,4.1,0,0,0-4.11,4.13v5.49a12.1,12.1,0,0,0,1.77,6.14A20.37,20.37,0,0,0,69.46,65a27,27,0,0,0,7.43,4.18,29.29,29.29,0,0,0,9.25,1.91,22.62,22.62,0,0,0,4.09,4.09,8,8,0,0,1,2.22,3.09,10.67,10.67,0,0,1,.62,3.84A5.89,5.89,0,0,1,91.76,86a5.18,5.18,0,0,1-4.22,1.58,9.08,9.08,0,0,0-5.73,2,6,6,0,0,0-2.46,4.93v2.74a1.33,1.33,0,0,0,1.28,1.36h35.76a1.32,1.32,0,0,0,1.38-1.25V94.44a6,6,0,0,0-2.51-4.91,9,9,0,0,0-5.73-2A5.1,5.1,0,0,1,105.35,86a5.89,5.89,0,0,1-1.31-3.9,10.67,10.67,0,0,1,.62-3.84,8,8,0,0,1,2.25-3.12A22.62,22.62,0,0,0,111,71a29,29,0,0,0,9.25-1.91A26.79,26.79,0,0,0,127.66,65a20.69,20.69,0,0,0,4.8-5.58,12.13,12.13,0,0,0,1.75-6.12v-5.5A4,4,0,0,0,133,44.86m-8.32,15.35a21.42,21.42,0,0,1-10.12,4.85,38,38,0,0,0,3.17-15.91h11v4.09q0,3.34-4.06,6.94m-52.27,0q-4.05-3.6-4-6.94V49.15h11a37.88,37.88,0,0,0,3.18,15.91,21.4,21.4,0,0,1-10.1-4.85" style="fill:#003764"/><path d="M37.26,110.94a.42.42,0,0,1,.38.45v1.2a.36.36,0,0,1-.32.41H33.08c-3.33,0-3.74,1.07-3.74,5.35s.42,5.33,3.74,5.33h4.15a.36.36,0,0,1,.41.31.17.17,0,0,1,0,.1v1.09a.42.42,0,0,1-.36.47h0a34.31,34.31,0,0,1-4.17.25c-5.33,0-6.37-1.51-6.37-7.63s1-7.66,6.37-7.66A32.54,32.54,0,0,1,37.26,110.94Z" style="fill:#003764"/><path d="M52.66,118.32c0,6.1-1.06,7.63-6.36,7.63s-6.4-1.51-6.4-7.63,1.1-7.66,6.4-7.66S52.66,112.2,52.66,118.32Zm-10.17,0c0,4.25.42,5.33,3.77,5.33S50,122.58,50,118.32,49.61,113,46.3,113s-3.77,1-3.77,5.34Z" style="fill:#003764"/><path d="M76.19,117l0,8.43a.36.36,0,0,1-.32.4.14.14,0,0,1-.09,0H74a.35.35,0,0,1-.41-.3.17.17,0,0,1,0-.1v-8.14c0-4.2-.83-4.36-3.41-4.36a19.31,19.31,0,0,0-3.22.24,11.94,11.94,0,0,1,.44,3.9l-.05,8.32c0,.32-.11.4-.35.4H65.15a.35.35,0,0,1-.41-.3.17.17,0,0,1,0-.1v-8.23c0-4.07-.83-4.17-3.41-4.17H58.58V125.4a.36.36,0,0,1-.31.41H56.36a.36.36,0,0,1-.42-.3v-14c0-.32.14-.38.42-.43a27.11,27.11,0,0,1,4.58-.44,12.23,12.23,0,0,1,4.56.82,14.86,14.86,0,0,1,4.42-.85C74.69,110.63,76.19,111.29,76.19,117Z" style="fill:#003764"/><path d="M92.37,118.29c0,6.1-1.1,7.66-6.28,7.66a29.15,29.15,0,0,1-3.62-.17v5.09a.37.37,0,0,1-.31.42H80.24a.37.37,0,0,1-.42-.31V111.59c0-.31.16-.41.44-.47a30.11,30.11,0,0,1,5.68-.47C91.27,110.65,92.37,112.22,92.37,118.29ZM82.46,113v10.44a28.42,28.42,0,0,0,3.45.23c3.41,0,3.82-1,3.82-5.33S89.34,113,86,113Z" style="fill:#003764"/><path d="M107.61,117.9v.79c0,.55-.13.78-1,.78H97.86c.09,3.34.72,4.17,3.66,4.17H106a.37.37,0,0,1,.42.31v1.31a.4.4,0,0,1-.38.43h0a33.4,33.4,0,0,1-4.58.25c-5.16,0-6.26-1.51-6.26-7.63s1.1-7.66,6.26-7.66C106.41,110.65,107.56,112.11,107.61,117.9Zm-9.75-.58H105c0-3.49-.63-4.36-3.48-4.36S97.93,113.84,97.86,117.32Z" style="fill:#003764"/><path d="M113.55,106.64c.3-.08.47,0,.47.36v3.81h2.87c.31,0,.44.14.44.42v1.29c0,.28-.13.41-.44.41H114v9.2c0,1.21.32,1.49,1.78,1.49h1.32c.3,0,.44.11.44.38v1.33c0,.24-.14.38-.42.43a7.27,7.27,0,0,1-1.54.17c-2,0-4.23,0-4.23-3.14V113h-1.53a.37.37,0,0,1-.42-.31.34.34,0,0,1,0-.1v-1.34a.37.37,0,0,1,.31-.42h1.64v-3.28a.39.39,0,0,1,.33-.44h0Z" style="fill:#003764"/><path d="M123,106.4a1.62,1.62,0,1,1-1.68-1.56h.06a1.44,1.44,0,0,1,1.61,1.23A1.82,1.82,0,0,1,123,106.4Zm-.72,4.39a.36.36,0,0,1,.41.32v14.33a.37.37,0,0,1-.32.41h-1.9a.37.37,0,0,1-.41-.31.17.17,0,0,1,0-.1V111.2a.37.37,0,0,1,.32-.41h1.9Z" style="fill:#003764"/><path d="M129.36,106.64c.31-.08.47,0,.47.36v3.81h2.88c.31,0,.44.14.44.42v1.29c0,.28-.13.41-.44.41h-2.88v9.2c0,1.21.33,1.49,1.78,1.49h1.32c.31,0,.44.11.44.38v1.33c0,.24-.13.38-.42.43a7.17,7.17,0,0,1-1.53.17c-2,0-4.23,0-4.23-3.14V113h-1.54a.36.36,0,0,1-.41-.31.34.34,0,0,1,0-.1v-1.34a.37.37,0,0,1,.31-.42h1.65v-3.28a.39.39,0,0,1,.33-.44h0Z" style="fill:#003764"/><path d="M138.78,106.4a1.62,1.62,0,1,1-1.67-1.56h.06a1.44,1.44,0,0,1,1.61,1.23A1.82,1.82,0,0,1,138.78,106.4Zm-.71,4.39a.38.38,0,0,1,.41.32v14.33a.38.38,0,0,1-.32.41h-1.88a.38.38,0,0,1-.42-.31V111.2a.38.38,0,0,1,.32-.41h1.89Z" style="fill:#003764"/><path d="M154.59,118.32c0,6.1-1.07,7.63-6.37,7.63s-6.4-1.51-6.4-7.63,1.1-7.66,6.4-7.66S154.59,112.2,154.59,118.32Zm-10.17,0c0,4.25.41,5.33,3.76,5.33s3.73-1.07,3.73-5.33-.37-5.34-3.71-5.34S144.42,114,144.42,118.32Z" style="fill:#003764"/><path d="M170.36,117.05v8.32c0,.27-.19.4-.46.4h-1.76a.36.36,0,0,1-.42-.3v-8.24c0-4.2-.82-4.34-3.46-4.34H160.5V125.4a.38.38,0,0,1-.32.41h-1.91a.36.36,0,0,1-.42-.3v-14c0-.35.15-.38.42-.43a31.12,31.12,0,0,1,5.71-.44C168.91,110.65,170.36,111.26,170.36,117.05Z" style="fill:#003764"/><path d="M27.82,6.13S8.29,6.13,8.29,25.66v101s0,19.52,19.53,19.52H169.71s19.53,0,19.53-19.52V25.66s0-19.53-19.53-19.53Z" style="fill:none;stroke:#103a5d;stroke-width:2.513895272912971px"/></g></svg>