<svg id="Ebene_1" data-name="Ebene 1" xmlns="http://www.w3.org/2000/svg" width="16" height="16" viewBox="0 0 16 16"><defs><style>.cls-1,.cls-2,.cls-4{fill:#103a5d;}.cls-1,.cls-2{stroke:#fff;}.cls-1{stroke-miterlimit:10;stroke-width:0.75px;}.cls-2{stroke-linecap:round;stroke-linejoin:round;stroke-width:0.5px;}.cls-3{fill:#fff;}</style></defs><title>docs_16</title><path class="cls-1" d="M13,4.8V14.85a.72.72,0,0,1-.72.72H3.21a.71.71,0,0,1-.71-.71V1.57A.56.56,0,0,1,3.06,1h6.6Z"/><path class="cls-2" d="M9.65,4.21V1L13,4.8H10.24A.6.6,0,0,1,9.65,4.21Z"/><path class="cls-3" d="M9,2.9v.87H7.28s-.07-.06-.15-.06H5.88c-.11,0-.17,0-.21.06H3.53V2.9Z"/><polygon class="cls-3" points="5.46 4.48 5.21 5.36 3.53 5.36 3.53 4.48 5.46 4.48"/><polygon class="cls-3" points="8.99 4.48 8.99 5.36 6.87 5.36 7.12 4.48 8.99 4.48"/><polygon class="cls-3" points="5.01 6.06 4.76 6.94 3.58 6.94 3.58 6.06 5.01 6.06"/><path class="cls-3" d="M12.08,6.06v.88H10V6.68c0-.17-.09-.2-.23-.14l-1.14.4H6.41l.25-.88Z"/><polygon class="cls-3" points="4.55 7.65 4.3 8.52 3.44 8.52 3.44 7.65 4.55 7.65"/><polygon class="cls-3" points="8.36 7.65 8.36 8.52 5.96 8.52 6.21 7.65 8.36 7.65"/><rect class="cls-3" x="10.01" y="7.65" width="1.93" height="0.87"/><path class="cls-3" d="M4.1,9.23,4,9.75a2.26,2.26,0,0,0-.09.35H3.44V9.23Z"/><polygon class="cls-3" points="8.36 9.23 8.36 9.63 5.64 9.63 5.75 9.23 8.36 9.23"/><path class="cls-3" d="M11.94,9.23v.87h-.2V9.81c0-.11-.07-.18-.21-.18H10v-.4Z"/><path class="cls-3" d="M8.36,11.06v.62H3.44v-.87h.42v.06c0,.14.06.19.19.19Z"/><path class="cls-3" d="M11.94,10.81v.87H10v-.62h1.52c.14,0,.21-.05.21-.19v-.06Z"/><rect class="cls-3" x="3.44" y="12.39" width="4.92" height="0.87"/><rect class="cls-3" x="10.01" y="12.39" width="1.93" height="0.87"/><path class="cls-4" d="M7.28,3.77H5.67s.1-.06.21-.06H7.13Q7.25,3.71,7.28,3.77Z"/><polygon class="cls-4" points="7.12 4.48 6.87 5.36 5.21 5.36 5.46 4.48 7.12 4.48"/><polygon class="cls-4" points="6.66 6.06 6.41 6.94 4.76 6.94 5.01 6.06 6.66 6.06"/><polygon class="cls-4" points="6.21 7.65 5.96 8.52 4.3 8.52 4.55 7.65 6.21 7.65"/><rect class="cls-4" x="8.36" y="7.65" width="1.65" height="0.87"/><path class="cls-4" d="M10,6.68v.26H8.64l1.14-.4C9.92,6.48,10,6.51,10,6.68Z"/><path class="cls-4" d="M11.74,9.81v.29H3.86A2.26,2.26,0,0,1,4,9.75l.15-.52H5.75l-.11.4H8.36v-.4H10v.4h1.52C11.67,9.63,11.74,9.7,11.74,9.81Z"/><rect class="cls-4" x="8.36" y="8.52" width="1.65" height="0.71"/><path class="cls-4" d="M11.74,10.81v.06c0,.14-.07.19-.21.19H10v.62H8.36v-.62H4.05c-.13,0-.19-.05-.19-.19v-.06Z"/><rect class="cls-4" x="8.36" y="12.39" width="1.65" height="0.87"/></svg>