<svg id="Ebene_1" data-name="Ebene 1" xmlns="http://www.w3.org/2000/svg" width="16" height="16" viewBox="0 0 16 16"><defs><style>.cls-1{fill:#103a5d;}.cls-2{fill:gray;}.cls-3{fill:#0098d6;}.cls-4{fill:#fc0;}</style></defs><title>globale_einstellungen_16</title><path class="cls-1" d="M15.5,2.74a5.35,5.35,0,0,1-.39,1.36c-.52,1.35-2.25.77-3,1.31s-6.63,6.78-6.63,6.78a3.39,3.39,0,0,1-.64,2.89,2.27,2.27,0,0,1-2.58.62l1.31-1L3.39,13l-1.52-.69-1.33,1c-.16-.11.21-1,.87-1.73s2.62-.84,2.88-1,6.25-6.43,6.25-6.43c.23-2,.71-3,1.84-3.38A2.41,2.41,0,0,1,14,.74l-1.1.88.2,1.46.92.38,0,0h0l.35.14Z"/><path class="cls-2" d="M10.93,4.94c.09.1,0,.38-.25.62L5.94,10.42c-.23.24-.5.35-.6.25s0-.38.25-.62L10.32,5.2C10.56,5,10.83,4.85,10.93,4.94Z"/><path class="cls-2" d="M9.51,9,3.09,2.45V1.94L1.8.5,1,1.29,2.16,2.71l.53,0L9.15,9.35Z"/><path class="cls-3" d="M13.35,11.12A7.74,7.74,0,0,0,10,8.76l-1.2-1.3h0a.36.36,0,0,0,0-.49.33.33,0,0,0-.48,0l0,0L7.17,8.07a.35.35,0,0,0,.13.6h0a.35.35,0,0,0,.3-.11h0l1.2,1.3A8.22,8.22,0,0,0,11,13.45c1.72,1.86,3.65,2.86,4.31,2.21S15.07,13,13.35,11.12Z"/><path class="cls-4" d="M12.3,12.5A20.33,20.33,0,0,1,9.77,9.57a18.84,18.84,0,0,1,2.8,2.67,20.33,20.33,0,0,1,2.53,2.93A20.12,20.12,0,0,1,12.3,12.5Zm1.46,2.7a12.59,12.59,0,0,0-1.92-2.28,11.61,11.61,0,0,0-2.18-2,12.27,12.27,0,0,0,1.91,2.28A11.48,11.48,0,0,0,13.76,15.2Zm.85-1.95A8.61,8.61,0,0,0,13,11.33a7.79,7.79,0,0,0-1.83-1.65,8.61,8.61,0,0,0,1.57,1.92A8.58,8.58,0,0,0,14.61,13.25Z"/><path class="cls-4" d="M8.77,7.46,7.63,8.57,8.84,9.86,10,8.76Z"/></svg>