<svg id="Ebene_1" data-name="Ebene 1" xmlns="http://www.w3.org/2000/svg" width="16" height="16" viewBox="0 0 16 16"><defs><style>.cls-1{fill:#103a5d;}</style></defs><title>hilfe_16</title><path class="cls-1" d="M12.84,4V5.08c0,2.1-.55,2.83-2.14,3.55l-2,.95c-.75.37-1,.56-1,1.15l0,.4a.2.2,0,0,1-.2.18H5.87a.2.2,0,0,1-.21-.18L5.56,10c-.1-.89.06-1.28,1.18-1.92L9.27,6.88A1.68,1.68,0,0,0,10.35,5V4.23c0-1.5-1.06-1.56-2.71-1.56H4c-.2,0-.29-.09-.29-.31V1.14A.36.36,0,0,1,4.09.73,20.88,20.88,0,0,1,7.66.5C10.43.5,12.84.85,12.84,4ZM8,14.2a1.25,1.25,0,0,1-1.41,1.34A1.25,1.25,0,0,1,5.21,14.2a1.25,1.25,0,0,1,1.42-1.34A1.25,1.25,0,0,1,8,14.2Z"/></svg>