<svg xmlns="http://www.w3.org/2000/svg" viewBox="0 0 307.61 97.51"><title>Zeichenfläche 2</title><g id="Ebene_2" data-name="Ebene 2"><path d="M284.77,30.28c-10.35,0-17.81,2.07-17.81,11.09V43c0,4.89,1.83,9.85,8.28,12.17l10.93,4.14c3.73,1.41,4.72,2.73,4.72,4.72v.83c0,2.9-1.73,3.56-7.28,3.56H267.54c-1,0-1.32.41-1.32,1.33v5.13c0,.74.25,1.16,1.24,1.24,2.73.25,8.94.75,16.15.75,10.84,0,17.14-2.16,17.14-11.6V64.23c0-5.14-1.16-9.36-8.45-12.09l-10.85-4c-3.47-1.32-4.55-2.89-4.55-4.88v-1c0-2.57,2-3.65,5.47-3.65H297.6c.91,0,1.33-.41,1.33-1.24V32.51c0-.74-.42-1.16-1.25-1.32a84.13,84.13,0,0,0-12.91-.91m-33.84.41a1.1,1.1,0,0,0-1.24,1.24V75.24a1.1,1.1,0,0,0,1.24,1.24h7.54a1.09,1.09,0,0,0,1.24-1.24V31.93a1.1,1.1,0,0,0-1.24-1.24Zm3.81-18.79c-3.89,0-6,2.07-6,5.71s2.15,5.71,6,5.71,6-2.07,6-5.71-2.06-5.71-6-5.71M231.16,39V67.62a66.42,66.42,0,0,1-9,.5c-9.28,0-10.52-2.73-10.52-14.57,0-11.35.91-14.58,10-14.58ZM222,30.28c-16.64,0-20.45,4.72-20.45,22.94,0,18.71,3.72,23.68,19,23.68a62.63,62.63,0,0,0,10.6-.75v.41c0,6.55-2,8.53-10.27,8.53H208c-.83,0-1.25.34-1.25,1.25v4.88a1.28,1.28,0,0,0,1.16,1.33,97.1,97.1,0,0,0,13.58.91c16.81,0,19.63-5.22,19.71-19.63V33.42a1.54,1.54,0,0,0-1.57-1.65A95.75,95.75,0,0,0,222,30.28" style="fill:#fff"/><path d="M154.31,6.8c-1,0-1.46.19-1.64.92L140.56,49.8a11.41,11.41,0,0,0-.64,3.09v4.92c0,1,.46,1.37,1.37,1.37H172V75.12a1.21,1.21,0,0,0,1.37,1.36h9a1.2,1.2,0,0,0,1.36-1.36V59.18h10.84c1,0,1.46-.37,1.46-1.37V50.25c0-.82-.46-1.27-1.46-1.27H183.73v-21c0-1.19-.64-1.37-1.64-1l-9,3.19a1.6,1.6,0,0,0-1.1,1.64V49h-19.4L164.24,8.44c.27-1,.09-1.64-1-1.64Z" style="fill:#6b7592"/><path d="M114.15,30.28c-5.05,0-12.42.08-18.55,1.32-.74.17-1.15.25-1.15,1.33V75.24c0,.83.33,1.24,1.15,1.24h7.62a1.09,1.09,0,0,0,1.24-1.24V39H114c7.78,0,9.69.5,9.69,12.75V75.24a1.09,1.09,0,0,0,1.24,1.24h7.45a1.15,1.15,0,0,0,1.32-1.24V49.9c0-17.3-4.22-19.62-19.54-19.62M67,39c8.86,0,10.1,2.9,10.1,14.66S75.81,68.2,67,68.2s-10.1-2.9-10.1-14.57S58.09,39,67,39m0-8.69c-16.56,0-20.12,4.64-20.12,23.35S50.39,76.9,67,76.9s20.2-4.64,20.2-23.27S83.51,30.28,67,30.28m-39.33,0C10.81,30.28,7.5,34.92,7.5,53.55S10.81,76.9,27.62,76.9A86.16,86.16,0,0,0,40.7,76a1.34,1.34,0,0,0,1.24-1.49V69.44c0-.82-.41-1.24-1.32-1.24h-13c-8.86,0-10-3-10-14.65S18.76,39,27.62,39h13c.91,0,1.32-.41,1.32-1.24v-5a1.33,1.33,0,0,0-1.24-1.49,84.89,84.89,0,0,0-13.08-.91" style="fill:#fff"/></g></svg>