<svg id="Ebene_1" data-name="Ebene 1" xmlns="http://www.w3.org/2000/svg" width="16" height="16" viewBox="0 0 16 16"><defs><style>.cls-1{fill:#103a5d;}.cls-2{fill:#0098d6;}</style></defs><title>stift_16</title><path class="cls-1" d="M6.58,2H9.32a.48.48,0,0,1,.48.48V14.33a0,0,0,0,1,0,0H6.18a0,0,0,0,1,0,0V2.38A.4.4,0,0,1,6.58,2Z" transform="translate(7.82 -3.26) rotate(43.52)"/><rect class="cls-2" x="11.86" y="0.82" width="3.62" height="2.71" rx="0.33" transform="translate(5.26 -8.81) rotate(43.52)"/><path class="cls-2" d="M2.43,11.39,1,15.16a.23.23,0,0,0,.33.31l3.69-1.59Z"/></svg>