<svg xmlns="http://www.w3.org/2000/svg" viewBox="0 0 188.71 150"><title>poimanager_c4g</title><g id="Ebene_2" data-name="Ebene 2"><path d="M35.91,115.4c0,6-1.08,7.54-6.19,7.54a28.19,28.19,0,0,1-3.56-.16v5a.36.36,0,0,1-.31.41.17.17,0,0,1-.1,0H24a.36.36,0,0,1-.41-.3V108.8c0-.3.16-.4.43-.46a30.09,30.09,0,0,1,5.6-.46C34.83,107.88,35.91,109.42,35.91,115.4Zm-9.76-5.29v10.34a29.7,29.7,0,0,0,3.4.22c3.36,0,3.76-1,3.76-5.25s-.38-5.27-3.71-5.27Z" style="fill:#003764"/><path d="M51.3,115.42c0,6-1,7.51-6.27,7.51s-6.3-1.48-6.3-7.51,1.08-7.54,6.3-7.54S51.3,109.39,51.3,115.42Zm-10,0c0,4.19.41,5.25,3.71,5.25s3.68-1,3.68-5.25-.4-5.27-3.68-5.27-3.66,1-3.66,5.27Z" style="fill:#003764"/><path d="M57.48,103.69a1.6,1.6,0,1,1-1.61-1.59,1.4,1.4,0,0,1,1.6,1.19A1.79,1.79,0,0,1,57.48,103.69ZM56.77,108a.35.35,0,0,1,.41.3.17.17,0,0,1,0,.1v14a.36.36,0,0,1-.31.41H55a.35.35,0,0,1-.41-.3V108.42a.36.36,0,0,1,.31-.4h1.88Z" style="fill:#003764"/><path d="M80.81,114.12l0,8.3a.36.36,0,0,1-.32.4.11.11,0,0,1-.08,0H78.62a.34.34,0,0,1-.4-.3.31.31,0,0,1,0-.1v-8c0-4.14-.81-4.3-3.35-4.3a18.72,18.72,0,0,0-3.17.24,11.85,11.85,0,0,1,.43,3.84l-.05,8.19c0,.32-.11.4-.35.4H69.94a.35.35,0,0,1-.41-.3.17.17,0,0,1,0-.1v-8.12c0-4-.81-4.11-3.36-4.11h-2.7V122.4a.38.38,0,0,1-.32.41H61.27a.36.36,0,0,1-.41-.3V108.75c0-.32.14-.38.41-.43a26.41,26.41,0,0,1,4.52-.43,11.9,11.9,0,0,1,4.49.81,14.41,14.41,0,0,1,4.36-.84C79.33,107.85,80.81,108.5,80.81,114.12Z" style="fill:#003764"/><path d="M95.24,112.11v9.47a.68.68,0,0,1-.52.76,22.08,22.08,0,0,1-6,.59c-3.56,0-5.22-.73-5.22-4.35,0-3.25,1.71-4.17,4.79-4.17h4.36v-1.82c0-1.68-1-2.44-3.52-2.44h-4c-.32,0-.4-.08-.4-.4v-1.11c0-.32.11-.38.38-.43a23.3,23.3,0,0,1,4.08-.32C93.34,107.88,95.24,109.18,95.24,112.11Zm-6.9,4.38c-1.48,0-2.27.49-2.27,2,0,1.78.89,2.19,3.1,2.19a16.13,16.13,0,0,0,3.47-.32V116.5Z" style="fill:#003764"/><path d="M111.14,114.21v8.19c0,.27-.19.4-.47.4h-1.73a.35.35,0,0,1-.41-.3v-8.11c0-4.14-.81-4.28-3.41-4.28h-3.7V122.4a.38.38,0,0,1-.32.41H99.22a.36.36,0,0,1-.41-.3V108.75c0-.35.14-.38.41-.43a30.28,30.28,0,0,1,5.62-.43C109.7,107.88,111.14,108.48,111.14,114.21Z" style="fill:#003764"/><path d="M125.58,112.11v9.47a.68.68,0,0,1-.51.76,22.12,22.12,0,0,1-6,.59c-3.57,0-5.22-.73-5.22-4.35,0-3.25,1.7-4.17,4.79-4.17H123v-1.82c0-1.68-1-2.44-3.52-2.44h-4c-.32,0-.4-.08-.4-.4v-1.11c0-.32.11-.38.38-.43a23.34,23.34,0,0,1,4.09-.32C123.69,107.88,125.58,109.18,125.58,112.11Zm-6.89,4.38c-1.48,0-2.27.49-2.27,2,0,1.78.89,2.19,3.1,2.19a16.19,16.19,0,0,0,3.47-.32V116.5Z" style="fill:#003764"/><path d="M140.68,108.34a.41.41,0,0,1,.43.41v12.7c0,5.3-1.05,6.84-6.25,6.84a28.55,28.55,0,0,1-3.92-.24.37.37,0,0,1-.35-.4v-1.19c0-.27.11-.4.38-.4h3.84c3,0,3.71-.73,3.71-3.17v-.16A20.33,20.33,0,0,1,135,123c-5.11,0-6.19-1.51-6.19-7.57s1.11-7.49,6.33-7.49A27.57,27.57,0,0,1,140.68,108.34Zm-5.63,1.77c-3.33,0-3.71,1-3.71,5.25s.4,5.27,3.76,5.27a29.85,29.85,0,0,0,3.41-.19V110.11Z" style="fill:#003764"/><path d="M156.56,115v.78c0,.54-.13.76-1,.76H147c.08,3.3.7,4.11,3.6,4.11H155a.37.37,0,0,1,.41.3v1.29a.4.4,0,0,1-.37.43h0a31.05,31.05,0,0,1-4.52.24c-5.08,0-6.16-1.48-6.16-7.51s1.08-7.54,6.16-7.54C155.37,107.88,156.5,109.31,156.56,115Zm-9.6-.57h7c0-3.44-.63-4.3-3.44-4.3s-3.53.86-3.59,4.3Z" style="fill:#003764"/><path d="M166.78,108.18c.27.08.41.19.41.46v1.13a.36.36,0,0,1-.31.39h-2.47c-1.87,0-2.36.3-2.36,1.51V122.4a.37.37,0,0,1-.31.41h-1.85a.35.35,0,0,1-.41-.3.17.17,0,0,1,0-.1V111c0-3.05,2.7-3.16,4.26-3.16A15.51,15.51,0,0,1,166.78,108.18Z" style="fill:#003764"/><g id="zweizeilig"><path d="M133.37,48.25a3.45,3.45,0,0,0-1.05-2.55L126.58,40a3.63,3.63,0,0,0-5.11,0L118,43.41l10.85,10.81,3.45-3.45a3.46,3.46,0,0,0,1.05-2.52M90.46,71V81.85h10.8l25.21-25.23-10.8-10.83Zm31.83,1a1.41,1.41,0,0,0-1.64.33l-3,3a1.4,1.4,0,0,0-.41,1v5.89a7.52,7.52,0,0,1-7.49,7.49H70.83a7.55,7.55,0,0,1-7.48-7.49V43.4A7.43,7.43,0,0,1,70.83,36h38.93a8.36,8.36,0,0,1,2.11.27,1.35,1.35,0,0,0,1.49-.37l2.29-2.3a1.45,1.45,0,0,0,.43-1.35,1.43,1.43,0,0,0-.82-1.07A12.73,12.73,0,0,0,109.79,30h-39A13.37,13.37,0,0,0,57.37,43.4V82.32A13.44,13.44,0,0,0,70.83,95.78h38.93a13.51,13.51,0,0,0,13.47-13.46V73.43a1.37,1.37,0,0,0-.94-1.35m-6.08-19.62L103.1,65.57a.85.85,0,0,1-1.2,0,.84.84,0,0,1,0-1.19L115,51.26a.84.84,0,0,1,1.19,0,.85.85,0,0,1,0,1.2M97.67,78.24V74.63H94.08v-2.1l4.36-4.35,5.73,5.74-4.35,4.35Z" style="fill:#003764"/><path d="M88.7,45.91a12.33,12.33,0,0,0-21,8.72,10,10,0,0,0,.82,4.31l8.77,18.64a2.79,2.79,0,0,0,1.13,1.25,3.11,3.11,0,0,0,3.27,0,2.89,2.89,0,0,0,1.15-1.25L91.52,58.9a10.28,10.28,0,0,0,.82-4.31,11.88,11.88,0,0,0-3.62-8.72M80,60.8a6.17,6.17,0,1,1,4.34-10.54h0A6.17,6.17,0,0,1,80,60.8" style="fill:#003764"/></g><path d="M24.65,5.77S5.12,5.77,5.12,25.3v101s0,19.52,19.53,19.52H166.54s19.53,0,19.53-19.52V25.3s0-19.53-19.53-19.53Z" style="fill:none;stroke:#103a5d;stroke-width:2.5138951837164933px"/></g></svg>