<svg xmlns="http://www.w3.org/2000/svg" viewBox="0 0 191.8 150"><title>visualisation_c4g</title><rect x="64.92" y="33.19" width="16.02" height="2.46" style="fill:#0b395d"/><rect x="64.92" y="38.12" width="16.02" height="2.46" style="fill:#0b395d"/><rect x="64.92" y="43.05" width="11.09" height="2.46" style="fill:#0b395d"/><rect x="64.92" y="47.98" width="11.09" height="2.46" style="fill:#0b395d"/><rect x="58.75" y="97.27" width="73.94" height="2.46" style="fill:#0b395d"/><rect x="58.68" y="25.86" width="2.46" height="73.94" style="fill:#0b395d"/><path d="M130.1,36.34l-4.93-9.86a1.22,1.22,0,0,0-1.65-.55h0l-9.86,4.93a1.23,1.23,0,1,0,1.1,2.2l7.14-3.57-2,5.57A65.75,65.75,0,0,1,63.58,78.79l.21,2.46a68.22,68.22,0,0,0,58.49-45.38l2-5.68,3.62,7.25a1.24,1.24,0,0,0,1.66.55A1.23,1.23,0,0,0,130.1,36.34Z" style="fill:#0b395d"/><rect x="117.91" y="49.21" width="11.09" height="45.6" rx="0.87" style="fill:#0b395d"/><rect x="104.35" y="66.46" width="11.09" height="28.34" rx="0.69" style="fill:#0b395d"/><rect x="90.66" y="75.09" width="11.09" height="19.72" rx="0.57" style="fill:#0b395d"/><rect x="77.17" y="81.25" width="11.09" height="13.56" rx="0.48" style="fill:#0b395d"/><rect x="63.68" y="84.95" width="11.09" height="9.86" rx="0.41" style="fill:#0b395d"/><path d="M25.61,5.86S6.43,5.86,6.43,25v99.17s0,19.18,19.18,19.18H165s19.18,0,19.18-19.18V25s0-19.18-19.18-19.18Z" style="fill:none;stroke:#0b395d;stroke-width:2.4695510774625px"/><path d="M33.4,108.8c.33,0,.38.08.33.43L30.65,120.5c-.74,2.77-.83,3.15-3.66,3.15-2.55,0-2.69-.38-3.49-3.15l-3.21-11.27c-.06-.35,0-.43.33-.43h2c.22,0,.25.08.36.43l3,10.68c.35,1.21.44,1.42,1,1.42.75,0,.86-.21,1.19-1.42L31,109.23c.09-.35.14-.43.36-.43Z" style="fill:#0b395d"/><path d="M39.36,104.49a1.62,1.62,0,0,1-3.24,0,1.43,1.43,0,0,1,1.62-1.56A1.42,1.42,0,0,1,39.36,104.49Zm-.71,4.31a.36.36,0,0,1,.41.4v13.91a.36.36,0,0,1-.41.4H36.83a.36.36,0,0,1-.41-.4V109.2a.36.36,0,0,1,.41-.4Z" style="fill:#0b395d"/><path d="M52.14,108.9a.41.41,0,0,1,.39.43v1.16a.36.36,0,0,1-.41.4H47c-1.26,0-2,.43-2,1.4v.35c0,.76.35,1.4,1.7,1.89L50.36,116c2.52.94,2.74,2.31,2.74,3.79v.3c0,3-1.84,3.61-5.55,3.61a50.07,50.07,0,0,1-5-.25c-.33,0-.41-.19-.41-.4v-1.18a.37.37,0,0,1,.41-.41h5.09c2.2,0,2.88-.24,2.88-1.4v-.32c0-.78-.33-1.29-1.59-1.8L45,116.44a3.78,3.78,0,0,1-2.64-3.85V112c0-3,2.64-3.36,5.58-3.36A35,35,0,0,1,52.14,108.9Z" style="fill:#0b395d"/><path d="M68.11,108.8c.28,0,.41.13.41.4v13.61c0,.32-.13.35-.41.4a31.66,31.66,0,0,1-5.71.44c-4.92,0-6.38-.62-6.38-6.33V109.2c0-.27.19-.4.47-.4h1.76a.36.36,0,0,1,.41.4v7.93c0,4.09.82,4.26,3.46,4.26h3.77V109.2c0-.27.13-.4.41-.4Z" style="fill:#0b395d"/><path d="M83.31,112.88v9.42a.67.67,0,0,1-.52.75,22.93,22.93,0,0,1-6.1.6c-3.63,0-5.31-.73-5.31-4.34,0-3.22,1.74-4.14,4.87-4.14l4.42,0v-1.8c0-1.67-1-2.42-3.57-2.42H73c-.33,0-.41-.08-.41-.4v-1.11c0-.32.11-.37.38-.43a24.63,24.63,0,0,1,4.15-.32C81.39,108.66,83.31,110,83.31,112.88Zm-7,4.36c-1.51,0-2.3.49-2.3,2,0,1.78.9,2.18,3.16,2.18a16.47,16.47,0,0,0,3.51-.32v-3.88Z" style="fill:#0b395d"/><path d="M89.22,103.15c.28,0,.41.13.41.4v19.56c0,.27-.13.4-.41.4H87.41c-.28,0-.41-.13-.41-.4V103.55c0-.27.13-.4.41-.4Z" style="fill:#0b395d"/><path d="M96.37,104.49a1.62,1.62,0,1,1-1.62-1.56A1.42,1.42,0,0,1,96.37,104.49Zm-.72,4.31c.28,0,.42.13.42.4v13.91c0,.27-.14.4-.42.4H93.84c-.28,0-.41-.13-.41-.4V109.2c0-.27.13-.4.41-.4Z" style="fill:#0b395d"/><path d="M110.47,108.8c.3,0,.44.13.44.4v.64a.81.81,0,0,1-.17.49l-8.11,10.92h8.11c.28,0,.44.14.44.4v1.46c0,.27-.16.4-.44.4H99.25c-.27,0-.44-.13-.44-.4v-.76a.68.68,0,0,1,.2-.48l8-10.81H99.61c-.3,0-.44-.14-.44-.41V109.2c0-.27.14-.4.44-.4Z" style="fill:#0b395d"/><path d="M125,112.88v9.42a.67.67,0,0,1-.52.75,22.93,22.93,0,0,1-6.1.6c-3.63,0-5.3-.73-5.3-4.34,0-3.22,1.73-4.14,4.86-4.14l4.42,0v-1.8c0-1.67-1-2.42-3.57-2.42h-4.12c-.33,0-.41-.08-.41-.4v-1.11c0-.32.11-.37.38-.43a24.63,24.63,0,0,1,4.15-.32C123,108.66,125,110,125,112.88Zm-7,4.36c-1.51,0-2.3.49-2.3,2,0,1.78.9,2.18,3.16,2.18a16.47,16.47,0,0,0,3.51-.32v-3.88Z" style="fill:#0b395d"/><path d="M131.55,104.73c.3-.08.47.06.47.35v3.74h2.88c.3,0,.44.14.44.41v1.26c0,.27-.14.4-.44.4H132v9c0,1.19.33,1.46,1.78,1.46h1.32c.3,0,.44.1.44.37v1.29c0,.25-.14.38-.41.43a7.38,7.38,0,0,1-1.54.17c-2,0-4.23,0-4.23-3.07v-9.69h-1.54c-.28,0-.41-.13-.41-.4v-1.26a.36.36,0,0,1,.41-.41h1.54v-3.23c0-.26.11-.37.36-.43Z" style="fill:#0b395d"/><path d="M141,104.49a1.44,1.44,0,0,1-1.62,1.59,1.46,1.46,0,0,1-1.63-1.59,1.43,1.43,0,0,1,1.63-1.56A1.42,1.42,0,0,1,141,104.49Zm-.72,4.31c.28,0,.41.13.41.4v13.91c0,.27-.13.4-.41.4h-1.81c-.28,0-.41-.13-.41-.4V109.2c0-.27.13-.4.41-.4Z" style="fill:#0b395d"/><path d="M156.78,116.17c0,6-1.07,7.48-6.38,7.48s-6.4-1.48-6.4-7.48,1.1-7.51,6.4-7.51S156.78,110.17,156.78,116.17Zm-10.14,0c0,4.17.41,5.22,3.76,5.22s3.74-1,3.74-5.22-.41-5.25-3.74-5.25S146.64,112,146.64,116.17Z" style="fill:#0b395d"/><path d="M172.58,115v8.15c0,.27-.19.4-.46.4h-1.76c-.28,0-.41-.13-.41-.4v-7.94c0-4.11-.83-4.25-3.47-4.25h-3.76v12.19a.36.36,0,0,1-.41.4h-1.82a.36.36,0,0,1-.41-.4V109.52c0-.35.14-.37.41-.43a32.23,32.23,0,0,1,5.72-.43C171.13,108.66,172.58,109.25,172.58,115Z" style="fill:#0b395d"/></svg>