<svg xmlns="http://www.w3.org/2000/svg" viewBox="0 0 191.8 150"><title>workflow_c4g</title><g id="Ebene_6" data-name="Ebene 6"><path d="M132.59,76.81a4,4,0,0,0-2.92-1.2h-4.09V67.38a5.55,5.55,0,0,0-5.48-5.48h-22V53.66h4.09a4.09,4.09,0,0,0,4.09-4.09V35.83a4.09,4.09,0,0,0-4.09-4.09H88.52a4.09,4.09,0,0,0-4.09,4.09V49.55a4.09,4.09,0,0,0,4.09,4.09h4.09V61.9H70.69a5.6,5.6,0,0,0-5.5,5.49v8.23H61.1A4.11,4.11,0,0,0,57,79.72V93.46a4.06,4.06,0,0,0,4.1,4.09H74.8a4.09,4.09,0,0,0,4.09-4.09V79.72a4.09,4.09,0,0,0-4.09-4.09H70.71V67.38H92.64v8.24h-4.1a4.09,4.09,0,0,0-4.09,4.09V93.46a4.09,4.09,0,0,0,4.09,4.09h13.7a4.09,4.09,0,0,0,4.09-4.09V79.72a4.09,4.09,0,0,0-4.09-4.09H98.1V67.38h22v8.24H116a4.09,4.09,0,0,0-4.09,4.09V93.46A4.09,4.09,0,0,0,116,97.55h13.69a4.09,4.09,0,0,0,4.09-4.09V79.72a3.94,3.94,0,0,0-1.2-2.91" style="fill:#103a5d"/><path d="M59.13,109.76c.3,0,.38.08.32.43l-2.39,11.47c-.57,2.68-1,3-3.17,3-2.38,0-2.52-.35-3.14-3L49,114.07l-1.76,7.59c-.62,2.71-.76,3-3.14,3-2.17,0-2.6-.38-3.17-3l-2.39-11.47c-.05-.35,0-.43.32-.43h2c.19,0,.24.08.32.43l2.22,11.14c.22.94.38,1,.73,1s.51-.08.73-1l2.59-10.71c.09-.32.2-.43.39-.43h2.28c.22,0,.3.11.38.43l2.63,10.71c.22.94.27,1,.73,1s.51-.08.73-1l2.22-11.14c.08-.35.13-.43.36-.43Z" style="fill:#003764"/><path d="M74.16,117.19c0,6-1.06,7.53-6.29,7.53s-6.36-1.49-6.36-7.53,1.09-7.56,6.32-7.56S74.16,111.14,74.16,117.19Zm-10,0c0,4.2.42,5.26,3.72,5.26s3.73-1.06,3.73-5.26-.42-5.27-3.7-5.27-3.71,1-3.71,5.27Z" style="fill:#003764"/><path d="M84.7,109.91c.27.08.4.19.4.46v1.15a.34.34,0,0,1-.31.38H82.31c-1.87,0-2.36.3-2.36,1.51v10.77a.36.36,0,0,1-.31.4.33.33,0,0,1-.1,0H77.78a.36.36,0,0,1-.4-.32V112.79c0-3.06,2.71-3.17,4.28-3.17A14.78,14.78,0,0,1,84.7,109.91Z" style="fill:#003764"/><path d="M89.55,104.09a.38.38,0,0,1,.4.36.11.11,0,0,1,0,.08V115l4.45-5a.74.74,0,0,1,.57-.27h2.25c.49,0,.51.24.24.51l-4.82,5.34L99,123.85c.24.32.27.73-.46.73H96.66a.73.73,0,0,1-.59-.3l-6.13-8v7.94c0,.3-.13.43-.4.43H87.75c-.27,0-.41-.13-.41-.43V104.53a.38.38,0,0,1,.33-.43h1.88Z" style="fill:#003764"/><path d="M113.3,104.64v19.54a.36.36,0,0,1-.32.4.27.27,0,0,1-.09,0H111.1a.36.36,0,0,1-.41-.3.17.17,0,0,1,0-.1V106.26l-3.31-.05c-1.54,0-2.71.11-2.71,1.47v2.12h3.45c.27,0,.41.14.35.43l-.22,1.31a.39.39,0,0,1-.43.35h-3.13v12.29a.35.35,0,0,1-.31.4.34.34,0,0,1-.1,0h-1.8a.37.37,0,0,1-.41-.3V111.92h-1.93a.37.37,0,0,1-.41-.31v-1.42a.36.36,0,0,1,.31-.41.17.17,0,0,1,.1,0h1.93V107.1c0-3,3.39-3.18,5.15-3.18,1,0,3.42.13,5.67.31C113.17,104.26,113.3,104.37,113.3,104.64Z" style="fill:#003764"/><path d="M129.19,117.19c0,6-1.06,7.53-6.29,7.53s-6.32-1.49-6.32-7.53,1.09-7.56,6.32-7.56S129.19,111.14,129.19,117.19Zm-10,0c0,4.2.4,5.26,3.72,5.26s3.68-1,3.68-5.26-.36-5.27-3.64-5.27-3.72,1-3.72,5.27Z" style="fill:#003764"/><path d="M151.89,109.76c.3,0,.38.08.32.43l-2.39,11.47c-.57,2.68-1,3-3.17,3-2.38,0-2.52-.35-3.15-3l-1.75-7.59L140,121.66c-.62,2.71-.76,3-3.14,3-2.17,0-2.6-.38-3.18-3l-2.39-11.47c-.05-.35,0-.43.33-.43h2c.19,0,.24.08.32.43l2.22,11.14c.23.94.39,1,.74,1s.51-.08.73-1l2.63-10.71c.08-.32.19-.43.38-.43h2.22c.22,0,.3.11.38.43l2.63,10.72c.23.94.28,1,.74,1s.51-.08.73-1l2.22-11.14c.08-.35.13-.43.35-.43Z" style="fill:#003764"/><path d="M24.65,5.15S5.12,5.15,5.12,24.67v101s0,19.53,19.53,19.53H166.54s19.53,0,19.53-19.53V24.67s0-19.52-19.53-19.52Z" style="fill:none;stroke:#103a5d;stroke-width:2.51389524052214px"/></g></svg>