<svg id="Ebene_1" data-name="Ebene 1" xmlns="http://www.w3.org/2000/svg" width="16" height="16" viewBox="0 0 16 16"><defs><style>.cls-1{fill:#103a5d;}</style></defs><title>con4gis_contao_navi_blau</title><path class="cls-1" d="M15.7,7.74a1,1,0,0,0-.41-.34L12.23,6.1V3.26a.87.87,0,0,0-.16-.49.91.91,0,0,0-.39-.34L8.51,1.07a1,1,0,0,0-.71,0L4.62,2.43a.91.91,0,0,0-.39.34,1,1,0,0,0-.16.49V6.09L1,7.41a1,1,0,0,0-.39.33.9.9,0,0,0-.16.5v2.94a.86.86,0,0,0,.14.47A.87.87,0,0,0,1,12l3.17,1.58a.87.87,0,0,0,.8,0L8.11,12l0,0,0,0,3.17,1.58a.87.87,0,0,0,.8,0L15.34,12a.87.87,0,0,0,.5-.81V8.24a.86.86,0,0,0-.15-.49M5,3.24,8.15,1.9l3.12,1.34L8.15,4.58ZM8.61,5.37l2.71-1.16V6.1L8.61,7.26Zm.31,2.74,2.85-1.23,2.85,1.23L11.76,9.33Zm3.31,2L14.94,9v2.21l-2.71,1.36Zm-10.55-2L4.53,6.88,7.39,8.11,4.53,9.33Zm3.31,2L7.7,9v2.22L5,12.54Z"/></svg>