<?xml version="1.0" encoding="utf-8"?>
<!-- Generator: Adobe Illustrator 23.0.2, SVG Export Plug-In . SVG Version: 6.00 Build 0)  -->
<svg version="1.1" xmlns="http://www.w3.org/2000/svg" xmlns:xlink="http://www.w3.org/1999/xlink" x="0px" y="0px"
	 viewBox="0 0 247 75" style="enable-background:new 0 0 247 75;" xml:space="preserve">
<style type="text/css">
	.st0{fill:#103A5D;}
	.st1{fill:#6B7691;}
	.st2{fill:none;}
	.st3{display:none;fill:#0E3A5C;}
	.st4{font-family:'UniviaProBook';}
	.st5{font-size:14.2784px;}
	.st6{fill:#3C3C3C;}
	.st7{fill:#4A7628;}
</style>
<g id="Ebene_1">
	<g>
		<path class="st0" d="M232.6,20.4c-8.7,0-14.9,1.7-14.9,9.3v1.4c0,4.1,1.5,8.2,6.9,10.2l9.1,3.5c3.1,1.2,3.9,2.3,3.9,3.9v0.7
			c0,2.4-1.5,3-6.1,3h-13.4c-0.8,0-1.1,0.3-1.1,1.1v4.3c0,0.6,0.2,1,1,1c2.3,0.2,7.5,0.6,13.5,0.6c9.1,0,14.3-1.8,14.3-9.7v-0.9
			c0-4.3-1-7.8-7.1-10.1l-9.1-3.3c-2.9-1.1-3.8-2.4-3.8-4.1v-0.8c0-2.1,1.7-3,4.6-3h12.7c0.8,0,1.1-0.3,1.1-1v-4.1
			c0-0.6-0.3-1-1-1.1C239.4,20.6,235.6,20.4,232.6,20.4 M204.4,20.8c-0.7,0-1,0.3-1,1V58c0,0.7,0.3,1,1,1h6.3c0.7,0,1-0.3,1-1V21.8
			c0-0.7-0.3-1-1-1H204.4z M207.6,5.1c-3.3,0-5.1,1.7-5.1,4.8c0,3,1.8,4.8,5.1,4.8c3.3,0,5-1.7,5-4.8C212.5,6.8,210.8,5.1,207.6,5.1
			 M187.8,27.7v23.9c-2.4,0.3-5.3,0.4-7.5,0.4c-7.8,0-8.8-2.3-8.8-12.2c0-9.5,0.8-12.2,8.4-12.2H187.8z M180.2,20.4
			c-13.9,0-17.1,3.9-17.1,19.2c0,15.6,3.1,19.8,15.9,19.8c3.3,0,5.9-0.1,8.9-0.6v0.3c0,5.5-1.7,7.1-8.6,7.1h-10.8c-0.7,0-1,0.3-1,1
			v4.1c0,0.6,0.3,1,1,1.1c3.7,0.6,7.9,0.8,11.3,0.8c14,0,16.4-4.4,16.5-16.4V23.1c0-0.8-0.5-1.3-1.3-1.4
			C191.4,21,186.2,20.4,180.2,20.4"/>
		<path class="st1" d="M123.6,0.8c-0.8,0-1.2,0.2-1.4,0.8l-10.1,35.2c-0.3,1.1-0.5,1.8-0.5,2.6v4.1c0,0.8,0.4,1.1,1.1,1.1h25.7v13.3
			c0,0.8,0.4,1.1,1.1,1.1h7.5c0.8,0,1.1-0.4,1.1-1.1V44.6h9.1c0.8,0,1.2-0.3,1.2-1.1v-6.3c0-0.7-0.4-1.1-1.2-1.1h-9.1V18.5
			c0-1-0.5-1.1-1.4-0.8l-7.5,2.7c-0.6,0.2-0.9,0.7-0.9,1.4V36h-16.2l9.7-33.9c0.2-0.8,0.1-1.4-0.8-1.4H123.6z"/>
		<path class="st0" d="M90.1,20.4c-4.2,0-10.4,0.1-15.5,1.1c-0.6,0.1-1,0.2-1,1.1V58c0,0.7,0.3,1,1,1h6.4c0.7,0,1-0.3,1-1V27.7h8
			c6.5,0,8.1,0.4,8.1,10.7V58c0,0.7,0.3,1,1,1h6.2c0.7,0,1.1-0.3,1.1-1V36.8C106.4,22.4,102.9,20.4,90.1,20.4 M50.6,27.7
			c7.4,0,8.4,2.4,8.4,12.2c0,9.8-1,12.2-8.4,12.2s-8.4-2.4-8.4-12.2C42.2,30.1,43.2,27.7,50.6,27.7 M50.6,20.4
			c-13.8,0-16.8,3.9-16.8,19.5c0,15.6,3,19.4,16.8,19.4c13.8,0,16.9-3.9,16.9-19.4C67.5,24.3,64.4,20.4,50.6,20.4 M17.7,20.4
			c-14,0-16.8,3.9-16.8,19.4c0,15.6,2.8,19.5,16.8,19.5c2.8,0,7.3-0.1,10.9-0.8c0.7-0.1,1-0.5,1-1.2v-4.2c0-0.7-0.3-1-1.1-1H17.7
			c-7.4,0-8.4-2.5-8.4-12.2s1-12.2,8.4-12.2h10.9c0.8,0,1.1-0.3,1.1-1v-4.2c0-0.8-0.3-1.1-1-1.2C25,20.6,20.5,20.4,17.7,20.4"/>
	</g>
	<rect x="0" y="69.1" class="st2" width="173.2" height="15.7"/>
	<text transform="matrix(1 0 0 1 -1.318359e-02 79.7773)" class="st3 st4 st5">einfach – offen – modular</text>
</g>
<g id="Ebene_2">
</g>
</svg>
