<svg id="Ebene_1" data-name="Ebene 1" xmlns="http://www.w3.org/2000/svg" width="13" height="13" viewBox="0 0 13 13"><defs><style>.cls-1{fill:#999;}</style></defs><title>con4gis_4</title><path class="cls-1" d="M5,0c.18,0,.2.1.17.26L2.73,8.32H7.34V4.71a.25.25,0,0,1,.16-.26l.89-.36c.17-.07.28,0,.28.14V8.32h2.25c.17,0,.24.07.24.21v.72c0,.17-.07.23-.24.23H8.67v3.16c0,.16-.09.22-.23.22H7.56a.2.2,0,0,1-.22-.22V9.48H1.53c-.14,0-.22-.06-.22-.23V8.87a1.88,1.88,0,0,1,.12-.56L3.85.14C3.9,0,4,0,4.13,0Z"/></svg>