<svg id="Ebene_1" data-name="Ebene 1" xmlns="http://www.w3.org/2000/svg" width="16" height="16" viewBox="0 0 16 16"><defs><style>.cls-1{fill:#999;}</style></defs><title>con4gis_4_navigation</title><path class="cls-1" d="M6.75.9C7,.9,7,1,6.94,1.18L4.29,10h5V6.05a.27.27,0,0,1,.17-.28l1-.39c.19-.08.3,0,.3.15V10h2.47c.18,0,.26.07.26.22V11c0,.19-.08.25-.26.25H10.77v3.46a.21.21,0,0,1-.24.24h-1a.21.21,0,0,1-.24-.24V11.26H3c-.15,0-.24-.06-.24-.25V10.6A2.29,2.29,0,0,1,2.86,10L5.51,1.05c.06-.13.13-.15.3-.15Z"/></svg>