<svg xmlns="http://www.w3.org/2000/svg" viewBox="0 0 191.8 150"><title>data_c4g</title><path d="M24.92,5.15S5.39,5.15,5.39,24.67v101s0,19.53,19.53,19.53h141.9s19.52,0,19.52-19.53V24.67s0-19.52-19.52-19.52Z" style="fill:none;stroke:#103a5d;stroke-width:2.51389524052214px"/><path d="M82.73,105.47a.36.36,0,0,1,.41.4v19.06c0,.3-.17.4-.44.43a31.7,31.7,0,0,1-5.68.45c-5.3,0-6.37-1.47-6.37-7.4s1.07-7.49,6.23-7.49a29.19,29.19,0,0,1,3.64.19v-5.24c0-.27.13-.4.41-.4Zm-5.68,7.7c-3.39,0-3.77,1-3.77,5.21s.35,5.19,3.74,5.19a29.9,29.9,0,0,0,3.5-.22V113.17Z" style="fill:#003764"/><path d="M97.83,115.12v9.36a.67.67,0,0,1-.52.75,23.3,23.3,0,0,1-6.06.58c-3.61,0-5.27-.72-5.27-4.3,0-3.21,1.72-4.12,4.83-4.12l4.4,0v-1.79c0-1.66-1-2.41-3.55-2.41h-4.1c-.33,0-.41-.08-.41-.4v-1.1c0-.32.11-.37.38-.42a24.47,24.47,0,0,1,4.13-.33C95.92,110.92,97.83,112.21,97.83,115.12Zm-7,4.33c-1.5,0-2.29.48-2.29,2,0,1.76.9,2.16,3.14,2.16a16.38,16.38,0,0,0,3.5-.32v-3.85Z" style="fill:#003764"/><path d="M104.38,107c.3-.08.47,0,.47.35v3.71h2.87c.3,0,.43.14.43.41v1.25c0,.27-.13.4-.43.4h-2.87v9c0,1.17.33,1.44,1.77,1.44h1.31c.3,0,.44.11.44.37v1.29c0,.24-.14.37-.41.42a7.15,7.15,0,0,1-1.53.16c-2,0-4.2,0-4.2-3v-9.63H100.7c-.28,0-.41-.13-.41-.4v-1.25a.36.36,0,0,1,.41-.41h1.53v-3.2a.37.37,0,0,1,.35-.43Z" style="fill:#003764"/><path d="M121.75,115.12v9.36a.67.67,0,0,1-.52.75,23.3,23.3,0,0,1-6.06.58c-3.6,0-5.27-.72-5.27-4.3,0-3.21,1.72-4.12,4.83-4.12l4.4,0v-1.79c0-1.66-1-2.41-3.55-2.41h-4.1c-.33,0-.41-.08-.41-.4v-1.1c0-.32.11-.37.39-.42a24.36,24.36,0,0,1,4.12-.33C119.84,110.92,121.75,112.21,121.75,115.12Zm-7,4.33c-1.5,0-2.3.48-2.3,2,0,1.76.91,2.16,3.14,2.16a16.38,16.38,0,0,0,3.5-.32v-3.85Z" style="fill:#003764"/><path d="M126.09,93.91H66.18a8.54,8.54,0,0,1-8.53-8.53V34.53A8.54,8.54,0,0,1,66.18,26h59.91a8.54,8.54,0,0,1,8.53,8.53V85.38A8.54,8.54,0,0,1,126.09,93.91ZM66.18,28.54a6,6,0,0,0-6,6V85.38a6,6,0,0,0,6,6h59.91a6,6,0,0,0,6-6V34.53a6,6,0,0,0-6-6Z" style="fill:#103a5d"/><path d="M133.35,46.35H58.92a1.27,1.27,0,0,1,0-2.54h74.43a1.27,1.27,0,1,1,0,2.54Z" style="fill:#103a5d"/><path d="M79.36,40.27a4,4,0,1,1,4-4A4,4,0,0,1,79.36,40.27Zm0-5.5a1.48,1.48,0,1,0,1.48,1.48A1.48,1.48,0,0,0,79.36,34.77Z" style="fill:#103a5d"/><path d="M67,40.23a4,4,0,1,1,4-4A4,4,0,0,1,67,40.23Zm0-5.5a1.48,1.48,0,1,0,1.48,1.48A1.48,1.48,0,0,0,67,34.73Z" style="fill:#103a5d"/><path d="M91.72,40.31a4,4,0,1,1,4-4A4,4,0,0,1,91.72,40.31Zm0-5.51a1.48,1.48,0,1,0,1.48,1.48A1.48,1.48,0,0,0,91.72,34.8Z" style="fill:#103a5d"/><path d="M127.87,72H103.54a1.27,1.27,0,0,1-1.27-1.27V56.36a1.27,1.27,0,0,1,1.27-1.27h24.33a1.27,1.27,0,0,1,1.27,1.27V70.7A1.27,1.27,0,0,1,127.87,72Zm-23.06-2.54H126.6V57.63H104.81Z" style="fill:#103a5d"/><line x1="71.18" y1="82.26" x2="127.97" y2="82.26" style="fill:none;stroke:#103a5d;stroke-miterlimit:10;stroke-width:2px"/><line x1="71.18" y1="70.55" x2="93.66" y2="70.55" style="fill:none;stroke:#103a5d;stroke-miterlimit:10;stroke-width:2px"/><line x1="71.18" y1="59.09" x2="93.66" y2="59.09" style="fill:none;stroke:#103a5d;stroke-miterlimit:10;stroke-width:2px"/><path d="M117.59,34.52h0a9.69,9.69,0,0,0-9.79,9.6c0,3.5,1.52,8.14,4.6,13.79A75.82,75.82,0,0,0,117,65.34a.35.35,0,0,0,.28.14h0a.32.32,0,0,0,.28-.15s2.41-3.56,4.77-7.87c3.18-5.83,4.81-10.25,4.84-13.15A9.69,9.69,0,0,0,117.59,34.52Zm4.38,10A4.5,4.5,0,1,1,117.51,40,4.52,4.52,0,0,1,122,44.49Z" style="fill:#103a5d"/><circle cx="117.48" cy="44.51" r="4.76" style="fill:#fff"/><path d="M48.53,55,69.46,76.31a1.18,1.18,0,0,0,.4.27l5.9,2.36a1.26,1.26,0,0,0,.43.08,1.18,1.18,0,0,0,.82-.35,1.21,1.21,0,0,0,.26-1.28l-2.33-6a1,1,0,0,0-.26-.41L53.77,49.63a1.14,1.14,0,0,0-.83-.35,1.16,1.16,0,0,0-.83.35l-3.58,3.65A1.22,1.22,0,0,0,48.53,55ZM51,54.14l1.93-2L72.86,72.5l1.24,3.2L71,74.45Z" style="fill:#103a5d"/><rect x="59.78" y="48.67" width="3.62" height="28.76" transform="translate(-26.54 62.02) rotate(-45)" style="fill:#103a5d"/></svg>