<svg xmlns="http://www.w3.org/2000/svg" viewBox="0 0 191.8 150"><title>Zeichenfläche 49</title><path d="M133.63,57.85h-.06A13.25,13.25,0,0,0,120.2,71c0,4.78,2.07,11.12,6.28,18.83A100.77,100.77,0,0,0,132.84,100a.45.45,0,0,0,.37.2h0a.47.47,0,0,0,.39-.21s3.29-4.86,6.51-10.76c4.35-8,6.57-14,6.61-18A13.24,13.24,0,0,0,133.63,57.85Zm6,13.63a6.15,6.15,0,1,1-6.08-6.21A6.15,6.15,0,0,1,139.61,71.48Z" style="fill:#103a5d"/><path d="M36.55,115.54l0,8.21a.36.36,0,0,1-.41.4H34.34a.36.36,0,0,1-.41-.4v-7.88c0-4.09-.82-4.26-3.39-4.26a19.3,19.3,0,0,0-3.19.25,11.39,11.39,0,0,1,.43,3.79l-.05,8.1c0,.32-.11.4-.36.4h-1.8a.36.36,0,0,1-.41-.4v-8c0-3.93-.82-4.07-3.38-4.07H19v12.11c0,.27-.13.4-.41.4h-1.8a.36.36,0,0,1-.41-.4v-13.5c0-.32.14-.37.41-.43a28.75,28.75,0,0,1,4.56-.42,12.28,12.28,0,0,1,4.54.8,15,15,0,0,1,4.39-.83C35.05,109.37,36.55,110,36.55,115.54Z" style="fill:#103a5d"/><path d="M51.11,113.59V123a.67.67,0,0,1-.52.75,22.84,22.84,0,0,1-6.07.59c-3.6,0-5.27-.72-5.27-4.31,0-3.21,1.72-4.11,4.84-4.11l4.39,0v-1.79c0-1.66-1-2.41-3.55-2.41H40.84c-.33,0-.41-.08-.41-.4v-1.09c0-.33.11-.38.38-.43a24.3,24.3,0,0,1,4.12-.32C49.19,109.4,51.11,110.68,51.11,113.59Zm-7,4.33c-1.5,0-2.29.48-2.29,2,0,1.76.9,2.16,3.14,2.16a16.29,16.29,0,0,0,3.49-.32v-3.85Z" style="fill:#103a5d"/><path d="M67.22,116.83c0,6-1.09,7.46-6.26,7.46a31.28,31.28,0,0,1-3.6-.16v4.92a.36.36,0,0,1-.41.4h-1.8a.36.36,0,0,1-.41-.4V110.31c0-.3.16-.41.43-.46a31.56,31.56,0,0,1,5.66-.45C66.13,109.4,67.22,110.92,67.22,116.83Zm-9.86-5.19v10.19a30.82,30.82,0,0,0,3.44.21c3.39,0,3.8-1,3.8-5.18s-.39-5.22-3.75-5.22Z" style="fill:#103a5d"/><path d="M78.31,115.62a.37.37,0,0,1,.41.41v1.57a.36.36,0,0,1-.41.4H70.85c-.27,0-.44-.13-.44-.4V116a.39.39,0,0,1,.44-.41Z" style="fill:#103a5d"/><path d="M92.45,109.64a.4.4,0,0,1,.39.45v1.15a.36.36,0,0,1-.41.4H88.3c-3.3,0-3.71,1-3.71,5.22S85,122,88.3,122h4.13a.36.36,0,0,1,.41.4v1.15a.42.42,0,0,1-.39.46,34.69,34.69,0,0,1-4.15.24c-5.3,0-6.34-1.47-6.34-7.43s1-7.46,6.34-7.46A32.73,32.73,0,0,1,92.45,109.64Z" style="fill:#103a5d"/><path d="M107.77,116.86c0,6-1.06,7.43-6.33,7.43s-6.37-1.47-6.37-7.43,1.1-7.46,6.37-7.46S107.77,110.89,107.77,116.86Zm-10.08,0c0,4.14.41,5.18,3.75,5.18s3.71-1,3.71-5.18-.41-5.22-3.71-5.22S97.69,112.68,97.69,116.86Z" style="fill:#103a5d"/><path d="M123.48,115.65v8.1c0,.27-.19.4-.47.4h-1.75a.36.36,0,0,1-.41-.4v-7.88c0-4.09-.81-4.23-3.44-4.23h-3.74v12.11a.36.36,0,0,1-.41.4h-1.8a.36.36,0,0,1-.41-.4v-13.5c0-.35.14-.37.41-.43a31.62,31.62,0,0,1,5.68-.42C122,109.4,123.48,110,123.48,115.65Z" style="fill:#103a5d"/><path d="M130,105.49c.3-.08.46.06.46.35v3.72h2.87c.3,0,.44.13.44.4v1.25c0,.27-.14.4-.44.4h-2.87v9c0,1.17.33,1.44,1.78,1.44h1.31c.3,0,.44.11.44.38v1.28c0,.24-.14.37-.41.43a8,8,0,0,1-1.53.16c-2,0-4.21,0-4.21-3.05v-9.63h-1.53a.36.36,0,0,1-.41-.4V110a.36.36,0,0,1,.41-.4h1.53v-3.21a.38.38,0,0,1,.36-.43Z" style="fill:#103a5d"/><path d="M148.33,116.45v.78c0,.53-.14.75-1,.75h-8.68c.08,3.26.71,4.06,3.63,4.06h4.48a.36.36,0,0,1,.41.4v1.18a.4.4,0,0,1-.38.43,35.81,35.81,0,0,1-4.56.24c-5.14,0-6.23-1.47-6.23-7.43s1.09-7.46,6.23-7.46C147.13,109.4,148.27,110.81,148.33,116.45Zm-9.7-.56h7.08c-.06-3.39-.63-4.25-3.47-4.25S138.69,112.5,138.63,115.89Z" style="fill:#103a5d"/><path d="M163.73,115.65v8.1c0,.27-.19.4-.47.4h-1.74c-.28,0-.41-.13-.41-.4v-7.88c0-4.09-.82-4.23-3.44-4.23h-3.75v12.11c0,.27-.13.4-.41.4h-1.8a.36.36,0,0,1-.41-.4v-13.5c0-.35.14-.37.41-.43a31.62,31.62,0,0,1,5.68-.42C162.28,109.4,163.73,110,163.73,115.65Z" style="fill:#103a5d"/><path d="M170.28,105.49c.3-.08.47.06.47.35v3.72h2.87c.3,0,.43.13.43.4v1.25c0,.27-.13.4-.43.4h-2.87v9c0,1.17.33,1.44,1.77,1.44h1.31c.3,0,.44.11.44.38v1.28c0,.24-.14.37-.41.43a7.88,7.88,0,0,1-1.53.16c-2,0-4.2,0-4.2-3.05v-9.63H166.6c-.28,0-.41-.13-.41-.4V110c0-.27.13-.4.41-.4h1.53v-3.21a.37.37,0,0,1,.35-.43Z" style="fill:#103a5d"/><path d="M24.72,5.15S5.2,5.15,5.2,24.67v101s0,19.53,19.52,19.53h141.9s19.53,0,19.53-19.53V24.67s0-19.52-19.53-19.52Z" style="fill:none;stroke:#103a5d;stroke-width:2.51389524052214px"/><path d="M134.08,33.13l-24.51-7a1.78,1.78,0,0,0-1,0L84.57,33l-24-6.87a1.76,1.76,0,0,0-2.23,1.69V80.34A1.75,1.75,0,0,0,59.57,82l24.52,7a1.68,1.68,0,0,0,1,0l24-6.87,24,6.87a2,2,0,0,0,.48.07,1.75,1.75,0,0,0,1.75-1.76V34.81A1.75,1.75,0,0,0,134.08,33.13ZM82.82,85l-21-6V30.13l21,6Zm24.51-6-21,6V36.13l21-6Zm24.52,6-21-6V30.13l21,6Z" style="fill:#103a5d"/><path d="M45.53,32,66.46,53.31a1.18,1.18,0,0,0,.4.27l5.9,2.36a1.26,1.26,0,0,0,.43.08,1.18,1.18,0,0,0,.82-.35,1.21,1.21,0,0,0,.26-1.28l-2.33-6a1,1,0,0,0-.26-.41L50.77,26.63a1.14,1.14,0,0,0-.83-.35,1.16,1.16,0,0,0-.83.35l-3.58,3.65A1.22,1.22,0,0,0,45.53,32ZM48,31.14l1.93-2L69.86,49.5l1.24,3.2L68,51.45Z" style="fill:#103a5d"/><circle cx="133.48" cy="71.5" r="6.5" style="fill:#fff"/><rect x="56.78" y="25.67" width="3.62" height="28.76" transform="translate(-11.16 53.16) rotate(-45)" style="fill:#103a5d"/></svg>