<?xml version="1.0" encoding="UTF-8" standalone="no"?>
<!DOCTYPE svg PUBLIC "-//W3C//DTD SVG 1.1//EN" "http://www.w3.org/Graphics/SVG/1.1/DTD/svg11.dtd">
<svg width="100%" height="100%" viewBox="0 0 192 150" version="1.1" xmlns="http://www.w3.org/2000/svg" xmlns:xlink="http://www.w3.org/1999/xlink" xml:space="preserve" xmlns:serif="http://www.serif.com/" style="fill-rule:evenodd;clip-rule:evenodd;stroke-linecap:round;stroke-linejoin:round;stroke-miterlimit:1.5;">
    <g transform="matrix(0.973783,0,0,0.97943,3.19461,2.75886)">
        <path d="M185.4,24.939L185.4,122.578C185.4,134.512 175.655,144.2 163.653,144.2L24.932,144.2C12.93,144.2 3.185,134.512 3.185,122.578L3.185,24.939C3.185,13.005 12.93,3.317 24.932,3.317L163.653,3.317C175.655,3.317 185.4,13.005 185.4,24.939Z" style="fill:rgb(60,60,60);stroke:rgb(46,161,219);stroke-width:5.12px;"/>
    </g>
    <g transform="matrix(0.180833,0,0,0.180833,12.8591,-59.1928)">
        <path d="M351.206,819.231L241.646,866.152L241.646,725.198L351.206,678.277L351.206,819.231Z" style="fill:rgb(46,161,219);fill-rule:nonzero;"/>
        <path d="M248.221,729.534L248.221,856.185L344.631,814.895L344.631,688.248L248.221,729.534ZM241.646,872.728C240.377,872.728 239.116,872.362 238.024,871.643C236.181,870.426 235.07,868.362 235.07,866.153L235.07,725.197C235.07,722.567 236.637,720.188 239.058,719.151L348.619,672.233C350.645,671.37 352.981,671.572 354.828,672.789C356.67,674.006 357.781,676.07 357.781,678.279L357.781,819.232C357.781,821.861 356.214,824.24 353.794,825.277L244.233,872.198C243.405,872.551 242.522,872.728 241.646,872.728Z" style="fill:rgb(60,60,60);fill-rule:nonzero;"/>
        <path d="M132.086,819.231L241.646,866.152L241.646,725.198L132.086,678.277L132.086,819.231Z" style="fill:rgb(46,161,219);fill-rule:nonzero;"/>
        <path d="M138.661,814.895L235.07,856.185L235.07,729.534L138.661,688.248L138.661,814.895ZM241.646,872.728C240.769,872.728 239.886,872.551 239.058,872.198L129.496,825.277C127.08,824.24 125.511,821.861 125.511,819.232L125.511,678.279C125.511,676.07 126.622,674.006 128.466,672.789C130.311,671.572 132.645,671.37 134.674,672.233L244.233,719.151C246.654,720.188 248.221,722.567 248.221,725.197L248.221,866.153C248.221,868.362 247.11,870.426 245.267,871.643C244.175,872.362 242.914,872.728 241.646,872.728Z" style="fill:rgb(60,60,60);fill-rule:nonzero;"/>
        <path d="M132.086,678.759L241.646,725.68L351.206,678.277L241.646,631.357L132.086,678.759Z" style="fill:rgb(46,161,219);fill-rule:nonzero;"/>
        <path d="M148.716,678.725L241.633,718.519L334.576,678.311L241.658,638.517L148.716,678.725ZM241.646,732.253C240.766,732.253 239.883,732.077 239.058,731.724L129.496,684.802C127.083,683.769 125.516,681.396 125.511,678.77C125.506,676.144 127.065,673.765 129.476,672.721L239.036,625.322C240.689,624.606 242.573,624.603 244.233,625.312L353.794,672.233C356.208,673.268 357.775,675.64 357.781,678.266C357.788,680.892 356.228,683.271 353.816,684.314L244.256,731.714C243.424,732.074 242.535,732.253 241.646,732.253Z" style="fill:rgb(60,60,60);fill-rule:nonzero;"/>
        <path d="M566.336,819.231L456.776,866.152L456.776,725.198L566.336,678.277L566.336,819.231Z" style="fill:rgb(46,161,219);fill-rule:nonzero;"/>
        <path d="M463.352,729.534L463.352,856.185L559.763,814.895L559.763,688.248L463.352,729.534ZM456.776,872.728C455.509,872.728 454.247,872.362 453.155,871.643C451.313,870.426 450.202,868.362 450.202,866.153L450.202,725.197C450.202,722.567 451.769,720.188 454.189,719.151L563.75,672.233C565.776,671.37 568.113,671.572 569.958,672.789C571.802,674.006 572.913,676.07 572.913,678.279L572.913,819.232C572.913,821.861 571.346,824.24 568.925,825.277L459.364,872.198C458.536,872.551 457.653,872.728 456.776,872.728Z" style="fill:rgb(60,60,60);fill-rule:nonzero;"/>
        <path d="M347.217,819.231L456.776,866.152L456.776,725.198L347.217,678.277L347.217,819.231Z" style="fill:rgb(46,161,219);fill-rule:nonzero;"/>
        <path d="M353.791,814.895L450.202,856.185L450.202,729.534L353.791,688.248L353.791,814.895ZM456.776,872.728C455.9,872.728 455.017,872.551 454.189,872.198L344.628,825.277C342.208,824.24 340.641,821.861 340.641,819.232L340.641,678.279C340.641,676.07 341.751,674.006 343.594,672.789C345.437,671.572 347.777,671.37 349.803,672.233L459.364,719.151C461.785,720.188 463.352,722.567 463.352,725.197L463.352,866.153C463.352,868.362 462.241,870.426 460.398,871.643C459.306,872.362 458.044,872.728 456.776,872.728Z" style="fill:rgb(60,60,60);fill-rule:nonzero;"/>
        <path d="M347.217,678.759L456.776,725.68L566.336,678.277L456.776,631.357L347.217,678.759Z" style="fill:rgb(46,161,219);fill-rule:nonzero;"/>
        <path d="M363.846,678.725L456.764,718.519L549.707,678.311L456.79,638.517L363.846,678.725ZM456.776,732.253C455.897,732.253 455.014,732.077 454.189,731.724L344.628,684.802C342.214,683.769 340.647,681.396 340.641,678.77C340.634,676.144 342.195,673.765 344.605,672.721L454.167,625.322C455.82,624.606 457.705,624.603 459.364,625.312L568.925,672.233C571.339,673.268 572.906,675.64 572.913,678.266C572.919,680.892 571.358,683.271 568.947,684.314L459.387,731.714C458.555,732.074 457.666,732.253 456.776,732.253Z" style="fill:rgb(60,60,60);fill-rule:nonzero;"/>
        <path d="M786.34,819.231L676.78,866.152L676.78,725.198L786.34,678.277L786.34,819.231Z" style="fill:rgb(46,161,219);fill-rule:nonzero;"/>
        <path d="M683.356,729.534L683.356,856.185L779.764,814.895L779.764,688.248L683.356,729.534ZM676.781,872.728C675.513,872.728 674.251,872.362 673.16,871.643C671.317,870.426 670.206,868.362 670.206,866.153L670.206,725.197C670.206,722.567 671.773,720.188 674.193,719.151L783.751,672.233C785.777,671.37 788.114,671.572 789.961,672.789C791.803,674.006 792.914,676.07 792.914,678.279L792.914,819.232C792.914,821.861 791.347,824.24 788.927,825.277L679.369,872.198C678.541,872.551 677.658,872.728 676.781,872.728Z" style="fill:rgb(60,60,60);fill-rule:nonzero;"/>
        <path d="M567.22,819.231L676.78,866.152L676.78,725.198L567.22,678.277L567.22,819.231Z" style="fill:rgb(46,161,219);fill-rule:nonzero;"/>
        <path d="M573.795,814.895L670.206,856.185L670.206,729.534L573.795,688.248L573.795,814.895ZM676.781,872.728C675.905,872.728 675.021,872.551 674.193,872.198L564.632,825.277C562.212,824.24 560.645,821.861 560.645,819.232L560.645,678.279C560.645,676.07 561.756,674.006 563.599,672.789C565.445,671.572 567.782,671.37 569.808,672.233L679.369,719.151C681.79,720.188 683.356,722.567 683.356,725.197L683.356,866.153C683.356,868.362 682.245,870.426 680.403,871.643C679.311,872.362 678.049,872.728 676.781,872.728Z" style="fill:rgb(60,60,60);fill-rule:nonzero;"/>
        <path d="M567.22,678.759L676.78,725.68L786.34,678.277L676.78,631.357L567.22,678.759Z" style="fill:rgb(46,161,219);fill-rule:nonzero;"/>
        <path d="M583.851,678.725L676.768,718.519L769.709,678.311L676.794,638.517L583.851,678.725ZM676.781,732.253C675.901,732.253 675.019,732.077 674.193,731.724L564.632,684.802C562.218,683.769 560.652,681.396 560.645,678.77C560.639,676.144 562.199,673.765 564.61,672.721L674.171,625.322C675.824,624.606 677.709,624.603 679.369,625.312L788.927,672.233C791.341,673.268 792.907,675.64 792.914,678.266C792.92,680.892 791.36,683.271 788.949,684.314L679.391,731.714C678.56,732.074 677.67,732.253 676.781,732.253Z" style="fill:rgb(60,60,60);fill-rule:nonzero;"/>
        <path d="M456.334,631.357L346.774,678.277L346.774,537.323L456.334,490.402L456.334,631.357Z" style="fill:rgb(253,253,253);fill-rule:nonzero;"/>
        <path d="M353.351,541.66L353.351,668.31L449.758,627.021L449.758,500.37L353.351,541.66ZM346.776,684.854C345.508,684.854 344.246,684.488 343.155,683.769C341.312,682.552 340.201,680.487 340.201,678.279L340.201,537.323C340.201,534.693 341.768,532.314 344.188,531.277L453.746,484.356C455.771,483.493 458.109,483.695 459.955,484.912C461.797,486.128 462.909,488.193 462.909,490.401L462.909,631.358C462.909,633.987 461.342,636.366 458.921,637.403L349.363,684.324C348.535,684.678 347.652,684.854 346.776,684.854Z" style="fill:rgb(60,60,60);fill-rule:nonzero;"/>
        <path d="M237.215,631.357L346.774,678.277L346.774,537.323L237.215,490.402L237.215,631.357Z" style="fill:rgb(253,253,253);fill-rule:nonzero;"/>
        <path d="M243.79,627.021L340.201,668.31L340.201,541.66L243.79,500.37L243.79,627.021ZM346.776,684.854C345.899,684.854 345.017,684.678 344.188,684.324L234.627,637.403C232.207,636.366 230.64,633.987 230.64,631.358L230.64,490.401C230.64,488.193 231.751,486.128 233.594,484.912C235.439,483.695 237.777,483.493 239.803,484.356L349.363,531.277C351.784,532.314 353.351,534.693 353.351,537.323L353.351,678.279C353.351,680.487 352.24,682.552 350.397,683.769C349.306,684.488 348.044,684.854 346.776,684.854Z" style="fill:rgb(60,60,60);fill-rule:nonzero;"/>
        <path d="M237.215,490.884L346.774,537.805L456.334,490.402L346.774,443.481L237.215,490.884Z" style="fill:rgb(253,253,253);fill-rule:nonzero;"/>
        <path d="M253.846,490.851L346.763,530.645L439.703,490.434L346.789,450.64L253.846,490.851ZM346.776,544.379C345.896,544.379 345.013,544.203 344.188,543.85L234.627,496.929C232.213,495.895 230.646,493.522 230.64,490.896C230.633,488.27 232.194,485.891 234.605,484.848L344.166,437.445C345.819,436.729 347.704,436.726 349.363,437.435L458.921,484.356C461.335,485.39 462.902,487.763 462.909,490.389C462.915,493.015 461.355,495.394 458.944,496.438L349.386,543.84C348.555,544.2 347.665,544.379 346.776,544.379Z" style="fill:rgb(60,60,60);fill-rule:nonzero;"/>
        <path d="M676.338,631.357L566.778,678.277L566.778,537.323L676.338,490.402L676.338,631.357Z" style="fill:rgb(253,253,253);fill-rule:nonzero;"/>
        <path d="M573.353,541.66L573.353,668.31L669.763,627.021L669.763,500.37L573.353,541.66ZM566.777,684.854C565.509,684.854 564.247,684.488 563.156,683.769C561.313,682.552 560.202,680.487 560.202,678.279L560.202,537.323C560.202,534.693 561.769,532.314 564.189,531.277L673.75,484.356C675.779,483.493 678.114,483.695 679.959,484.912C681.802,486.128 682.913,488.193 682.913,490.401L682.913,631.358C682.913,633.987 681.347,636.366 678.926,637.403L569.365,684.324C568.537,684.678 567.654,684.854 566.777,684.854Z" style="fill:rgb(60,60,60);fill-rule:nonzero;"/>
        <path d="M457.218,631.357L566.778,678.277L566.778,537.323L457.218,490.402L457.218,631.357Z" style="fill:rgb(253,253,253);fill-rule:nonzero;"/>
        <path d="M463.795,627.021L560.202,668.31L560.202,541.66L463.795,500.37L463.795,627.021ZM566.777,684.854C565.901,684.854 565.018,684.678 564.189,684.324L454.632,637.403C452.211,636.366 450.645,633.987 450.645,631.358L450.645,490.401C450.645,488.193 451.755,486.128 453.598,484.912C455.444,483.695 457.778,483.493 459.807,484.356L569.365,531.277C571.786,532.314 573.353,534.693 573.353,537.323L573.353,678.279C573.353,680.487 572.242,682.552 570.398,683.769C569.307,684.488 568.045,684.854 566.777,684.854Z" style="fill:rgb(60,60,60);fill-rule:nonzero;"/>
        <path d="M457.218,490.884L566.778,537.805L676.338,490.402L566.778,443.481L457.218,490.884Z" style="fill:rgb(253,253,253);fill-rule:nonzero;"/>
        <path d="M473.85,490.851L566.765,530.645L659.708,490.434L566.79,450.64L473.85,490.851ZM566.777,544.379C565.897,544.379 565.015,544.203 564.189,543.85L454.632,496.929C452.218,495.895 450.651,493.522 450.645,490.896C450.638,488.27 452.198,485.891 454.609,484.848L564.167,437.445C565.82,436.729 567.705,436.726 569.365,437.435L678.926,484.356C681.34,485.39 682.907,487.763 682.913,490.389C682.919,493.015 681.359,495.394 678.948,496.438L569.387,543.84C568.556,544.2 567.667,544.379 566.777,544.379Z" style="fill:rgb(60,60,60);fill-rule:nonzero;"/>
    </g>
    <g transform="matrix(1,0,0,1,0.464125,0)">
        <g transform="matrix(1,0,0,1,0,5)">
            <path d="M136,107.85C132.78,107.85 130.47,108.49 130.47,111.3L130.47,111.81C130.346,113.508 131.415,115.081 133.04,115.59L136.43,116.88C137.59,117.31 137.9,117.72 137.9,118.34L137.9,118.6C137.9,119.5 137.36,119.7 135.64,119.7L130.64,119.7C130.33,119.7 130.23,119.83 130.23,120.12L130.23,121.71C130.23,121.94 130.3,122.07 130.61,122.1C131.46,122.17 133.39,122.33 135.61,122.33C138.98,122.33 140.93,121.66 140.93,118.73L140.93,118.39C141.125,116.667 139.995,115.05 138.31,114.64L135,113.4C133.92,112.99 133.58,112.5 133.58,111.89L133.58,111.58C133.58,110.78 134.2,110.45 135.28,110.45L140,110.45C140.29,110.45 140.41,110.32 140.41,110.06L140.41,108.54C140.41,108.31 140.29,108.18 140.03,108.13C138.706,107.936 137.368,107.842 136.03,107.85M125.52,107.98C125.503,107.977 125.485,107.976 125.467,107.976C125.281,107.976 125.127,108.129 125.127,108.316C125.127,108.331 125.128,108.345 125.13,108.36L125.13,121.81C125.127,121.828 125.126,121.846 125.126,121.864C125.126,122.051 125.279,122.204 125.466,122.204C125.484,122.204 125.502,122.203 125.52,122.2L127.86,122.2C128.12,122.2 128.24,122.07 128.24,121.81L128.24,108.36C128.243,108.342 128.245,108.324 128.245,108.305C128.245,108.124 128.096,107.975 127.915,107.975C127.896,107.975 127.878,107.977 127.86,107.98L125.52,107.98ZM126.7,102.14C126.656,102.137 126.611,102.135 126.567,102.135C125.59,102.135 124.787,102.939 124.787,103.915C124.787,104.891 125.59,105.695 126.567,105.695C126.611,105.695 126.656,105.693 126.7,105.69C126.744,105.693 126.789,105.695 126.833,105.695C127.81,105.695 128.613,104.891 128.613,103.915C128.613,102.939 127.81,102.135 126.833,102.135C126.789,102.135 126.744,102.137 126.7,102.14M119.38,110.55L119.38,119.45C118.448,119.563 117.509,119.614 116.57,119.6C113.69,119.6 113.31,118.75 113.31,115.08C113.31,111.41 113.59,110.55 116.42,110.55L119.38,110.55ZM116.52,107.85C111.35,107.85 110.17,109.32 110.17,114.97C110.17,120.78 111.33,122.33 116.09,122.33C117.191,122.346 118.292,122.269 119.38,122.1L119.38,122.22C119.38,124.22 118.76,124.87 116.19,124.87L112.19,124.87C111.93,124.87 111.8,124.98 111.8,125.26L111.8,126.78C111.789,126.99 111.95,127.174 112.16,127.19C113.559,127.38 114.969,127.473 116.38,127.47C121.6,127.47 122.47,125.85 122.5,121.38L122.5,108.83C122.501,108.82 122.501,108.81 122.501,108.8C122.501,108.531 122.28,108.31 122.011,108.31C122.011,108.31 122.01,108.31 122.01,108.31C120.201,107.992 118.367,107.838 116.53,107.85" style="fill:rgb(46,161,219);fill-rule:nonzero;"/>
        </g>
        <g transform="matrix(1,0,0,1,0,5)">
            <path d="M95.52,100.56C95.21,100.56 95.07,100.62 95.01,100.84L91.25,113.91C91.139,114.233 91.072,114.569 91.05,114.91L91.05,116.44C91.05,116.75 91.19,116.86 91.47,116.86L101,116.86L101,121.86C100.996,121.881 100.994,121.903 100.994,121.924C100.994,122.127 101.161,122.294 101.364,122.294C101.383,122.294 101.402,122.293 101.42,122.29L104.22,122.29C104.238,122.293 104.256,122.294 104.274,122.294C104.482,122.294 104.654,122.122 104.654,121.914C104.654,121.896 104.653,121.878 104.65,121.86L104.65,116.86L108,116.86C108.31,116.86 108.46,116.75 108.46,116.44L108.46,114.09C108.46,113.84 108.31,113.7 108,113.7L104.64,113.7L104.64,107.16C104.64,106.79 104.44,106.74 104.13,106.85L101.33,107.85C101.114,107.922 100.974,108.133 100.99,108.36L100.99,113.71L95,113.71L98.62,101.12C98.71,100.81 98.62,100.61 98.31,100.61L95.52,100.56Z" style="fill:rgb(253,253,253);fill-rule:nonzero;"/>
        </g>
        <g transform="matrix(1,0,0,1,0,5)">
            <path d="M83.05,107.85C81.121,107.809 79.193,107.946 77.29,108.26C77.06,108.26 76.93,108.34 76.93,108.67L76.93,121.81C76.93,122.07 77.03,122.2 77.29,122.2L79.65,122.2C79.668,122.203 79.686,122.204 79.704,122.204C79.891,122.204 80.044,122.051 80.044,121.864C80.044,121.846 80.043,121.828 80.04,121.81L80.04,110.55L83.04,110.55C85.45,110.55 86.04,110.7 86.04,114.55L86.04,121.85C86.037,121.868 86.036,121.886 86.036,121.904C86.036,122.091 86.189,122.244 86.376,122.244C86.394,122.244 86.412,122.243 86.43,122.24L88.7,122.24C88.717,122.242 88.734,122.243 88.751,122.243C88.954,122.243 89.121,122.076 89.121,121.873C89.121,121.866 89.12,121.858 89.12,121.85L89.12,113.98C89.12,108.61 87.8,107.89 83.05,107.89M68.39,110.59C71.14,110.59 71.52,111.49 71.52,115.14C71.52,118.79 71.14,119.67 68.39,119.67C65.64,119.67 65.25,118.77 65.25,115.14C65.25,111.51 65.63,110.59 68.39,110.59M68.39,107.89C63.24,107.89 62.14,109.33 62.14,115.14C62.14,120.95 63.24,122.37 68.39,122.37C73.54,122.37 74.66,120.93 74.66,115.14C74.66,109.35 73.53,107.89 68.39,107.89M56.17,107.89C50.95,107.89 49.92,109.33 49.92,115.12C49.92,120.91 50.92,122.37 56.17,122.37C57.528,122.38 58.886,122.287 60.23,122.09C60.45,122.076 60.623,121.891 60.623,121.671C60.623,121.654 60.622,121.637 60.62,121.62L60.62,120C60.62,119.75 60.49,119.62 60.21,119.62L56.21,119.62C53.46,119.62 53.1,118.69 53.1,115.07C53.1,111.45 53.46,110.54 56.21,110.54L60.21,110.54C60.49,110.54 60.62,110.41 60.62,110.15L60.62,108.6C60.622,108.583 60.623,108.566 60.623,108.549C60.623,108.329 60.45,108.144 60.23,108.13C58.886,107.933 57.528,107.84 56.17,107.85" style="fill:rgb(46,161,219);fill-rule:nonzero;"/>
        </g>
    </g>
</svg>
