<?xml version="1.0" encoding="UTF-8" standalone="no"?>
<!DOCTYPE svg PUBLIC "-//W3C//DTD SVG 1.1//EN" "http://www.w3.org/Graphics/SVG/1.1/DTD/svg11.dtd">
<svg width="100%" height="100%" viewBox="0 0 192 150" version="1.1" xmlns="http://www.w3.org/2000/svg" xmlns:xlink="http://www.w3.org/1999/xlink" xml:space="preserve" xmlns:serif="http://www.serif.com/" style="fill-rule:evenodd;clip-rule:evenodd;stroke-linecap:round;stroke-linejoin:round;stroke-miterlimit:1.5;">
    <g transform="matrix(0.973783,0,0,0.97943,4.07961,2.75886)">
        <path d="M185.4,24.939L185.4,122.578C185.4,134.512 175.655,144.2 163.653,144.2L24.932,144.2C12.93,144.2 3.185,134.512 3.185,122.578L3.185,24.939C3.185,13.005 12.93,3.317 24.932,3.317L163.653,3.317C175.655,3.317 185.4,13.005 185.4,24.939Z" style="fill:rgb(60,60,60);stroke:rgb(46,161,219);stroke-width:5.12px;"/>
    </g>
    <g transform="matrix(0.897876,0,0,0.897876,-133.971,19.2451)">
        <g transform="matrix(1.30765,0,0,1.30765,130.257,2.61487)">
            <g transform="matrix(0.0680903,0,0,0.0680903,30.5625,6.47222)">
                <path d="M1472.12,127.955L1472.12,1022.7C1472.12,1043.07 1455.58,1059.6 1435.22,1059.6L491.923,1059.6C471.558,1059.6 455.023,1043.07 455.023,1022.7L455.023,127.955C455.023,107.59 471.558,91.056 491.923,91.056L1435.22,91.056C1455.58,91.056 1472.12,107.59 1472.12,127.955Z" style="fill:white;"/>
            </g>
            <g transform="matrix(0.0680903,0,0,0.0153923,30.5625,10.952)">
                <rect x="455.023" y="91.056" width="1017.1" height="968.548" style="fill:rgb(46,161,219);"/>
            </g>
            <g transform="matrix(0.0385144,0,0,0.0385144,211.046,9.06698)">
                <circle cx="-3699.6" cy="278.875" r="86.383" style="fill:rgb(50,48,48);"/>
            </g>
            <g transform="matrix(0.0385144,0,0,0.0385144,219.472,9.06698)">
                <circle cx="-3699.6" cy="278.875" r="86.383" style="fill:rgb(50,48,48);"/>
            </g>
            <g transform="matrix(0.0385144,0,0,0.0385144,227.89,9.06698)">
                <circle cx="-3699.6" cy="278.875" r="86.383" style="fill:rgb(50,48,48);"/>
            </g>
        </g>
        <g transform="matrix(1.58346,0,0,1.58346,-164.225,-84.7141)">
            <g transform="matrix(1.27783,0,0,1.27783,-241.751,-261.342)">
                <path d="M411.999,259.948L411.997,259.948C412.864,258.58 413.369,256.96 413.369,255.222C413.369,250.343 409.413,246.387 404.533,246.387C399.653,246.387 395.698,250.342 395.698,255.222C395.698,256.96 396.201,258.58 397.068,259.948C397.146,260.067 404.533,278.827 404.533,278.827C404.533,278.827 411.919,260.067 411.999,259.948Z" style="fill:rgb(255,74,81);fill-rule:nonzero;"/>
            </g>
            <g transform="matrix(1.27783,0,0,1.27783,-241.751,-261.342)">
                <path d="M404.532,248.344C400.784,248.344 397.747,251.381 397.747,255.128C397.747,258.873 400.784,261.913 404.532,261.913C408.279,261.913 411.317,258.873 411.317,255.128C411.317,251.381 408.279,248.344 404.532,248.344Z" style="fill:white;fill-rule:nonzero;"/>
            </g>
        </g>
        <g transform="matrix(1,0,0,1,2.22748,-4.45496)">
            <g transform="matrix(1,0,0,1,135.128,-81.421)">
                <g transform="matrix(0.248313,0,0,0.258135,38.6546,153.135)">
                    <rect x="167.764" y="50.399" width="125.547" height="10.17" style="fill:rgb(187,189,191);"/>
                </g>
                <g transform="matrix(0.248313,0,0,0.258135,38.6546,142.81)">
                    <rect x="167.764" y="70.399" width="125.547" height="10.17" style="fill:rgb(187,189,191);"/>
                </g>
                <g transform="matrix(0.248313,0,0,0.258135,38.6546,132.484)">
                    <rect x="167.764" y="90.399" width="125.547" height="10.17" style="fill:rgb(187,189,191);"/>
                </g>
                <g transform="matrix(0.248313,0,0,0.258135,38.6546,122.159)">
                    <rect x="167.764" y="110.399" width="125.547" height="10.17" style="fill:rgb(187,189,191);"/>
                </g>
                <g transform="matrix(0.248313,0,0,0.258135,38.7127,168.748)">
                    <rect x="167.764" y="50.399" width="125.547" height="10.17" style="fill:rgb(187,189,191);"/>
                </g>
                <g transform="matrix(0.248313,0,0,0.258135,38.7127,158.423)">
                    <rect x="167.764" y="70.399" width="125.547" height="10.17" style="fill:rgb(187,189,191);"/>
                </g>
                <g transform="matrix(0.248313,0,0,0.258135,38.7127,148.097)">
                    <rect x="167.764" y="90.399" width="125.547" height="10.17" style="fill:rgb(187,189,191);"/>
                </g>
                <g transform="matrix(0.248313,0,0,0.258135,38.7127,137.772)">
                    <rect x="167.764" y="110.399" width="125.547" height="10.17" style="fill:rgb(187,189,191);"/>
                </g>
                <g transform="matrix(0.248313,0,0,0.258135,38.6546,116.652)">
                    <rect x="167.764" y="110.399" width="125.547" height="10.17" style="fill:rgb(187,189,191);"/>
                </g>
                <g transform="matrix(0.248313,0,0,0.258135,38.6546,111.2)">
                    <rect x="167.764" y="110.399" width="125.547" height="10.17" style="fill:rgb(187,189,191);"/>
                </g>
                <g transform="matrix(0.248313,0,0,0.258135,38.6546,96.6706)">
                    <rect x="167.764" y="135.39" width="125.547" height="20.189" style="fill:rgb(60,60,60);"/>
                </g>
            </g>
            <g transform="matrix(1.2106,0,0,1.14967,156.399,-39.3443)">
                <g transform="matrix(0.248313,0,0,0.258135,70.6525,29.2098)">
                    <rect x="73.245" y="289.8" width="91.205" height="11.447" style="fill:rgb(187,189,191);"/>
                </g>
                <g transform="matrix(0,0.258135,0.248313,0,83.1551,102.54)">
                    <path d="M11.447,-11.448C5.12,-11.448 0,-6.328 0,-0C0,6.316 5.12,11.447 11.447,11.447C17.775,11.447 22.895,6.316 22.895,-0C22.895,-6.328 17.775,-11.448 11.447,-11.448" style="fill:rgb(60,60,60);fill-rule:nonzero;"/>
                </g>
                <g transform="matrix(0.248313,0,0,0.258135,70.6525,44.5399)">
                    <rect x="73.245" y="289.8" width="91.205" height="11.447" style="fill:rgb(187,189,191);"/>
                </g>
                <g transform="matrix(0.248313,0,0,0.258135,70.6525,29.2409)">
                    <rect x="73.245" y="318.8" width="91.205" height="11.447" style="fill:rgb(187,189,191);"/>
                </g>
                <g transform="matrix(0,0.258135,0.248313,0,83.1551,117.87)">
                    <path d="M11.447,-11.448C5.12,-11.448 0,-6.328 0,-0C0,6.316 5.12,11.447 11.447,11.447C17.775,11.447 22.895,6.316 22.895,-0C22.895,-6.328 17.775,-11.448 11.447,-11.448" style="fill:rgb(60,60,60);fill-rule:nonzero;"/>
                </g>
                <g transform="matrix(0,0.258135,0.248313,0,83.1551,110.057)">
                    <path d="M11.447,-11.448C5.12,-11.448 0,-6.328 0,-0C0,6.316 5.12,11.447 11.447,11.447C17.775,11.447 22.895,6.316 22.895,-0C22.895,-6.328 17.775,-11.448 11.447,-11.448" style="fill:rgb(60,60,60);fill-rule:nonzero;"/>
                </g>
            </g>
        </g>
        <g transform="matrix(6.12323e-17,1,-1,6.12323e-17,375.11,-162.667)">
            <g transform="matrix(5.79642e-17,-0.946628,0.946628,5.79642e-17,-21.2544,453.761)">
                <path d="M421.096,236.336L411.787,227.027L390.063,248.749L399.374,258.06L421.096,236.336Z" style="fill:rgb(46,161,219);fill-rule:nonzero;"/>
            </g>
            <g transform="matrix(5.79642e-17,-0.946628,0.946628,5.79642e-17,-21.2544,453.761)">
                <path d="M428.853,228.578C429.71,227.721 429.71,226.333 428.853,225.476L422.647,219.27C421.79,218.413 420.402,218.413 419.544,219.27L414.89,223.924L424.199,233.233L428.853,228.578Z" style="fill:rgb(46,161,219);fill-rule:nonzero;"/>
            </g>
            <g transform="matrix(5.79642e-17,-0.946628,0.946628,5.79642e-17,-21.2544,453.761)">
                <path d="M384.838,266.229L395.838,260.731L387.393,252.285L381.894,263.284C381.472,264.129 381.637,265.149 382.306,265.817C382.974,266.486 383.995,266.651 384.838,266.229Z" style="fill:rgb(46,161,219);fill-rule:nonzero;"/>
            </g>
        </g>
    </g>
</svg>
