<?xml version="1.0" encoding="UTF-8" standalone="no"?>
<!DOCTYPE svg PUBLIC "-//W3C//DTD SVG 1.1//EN" "http://www.w3.org/Graphics/SVG/1.1/DTD/svg11.dtd">
<svg width="100%" height="100%" viewBox="0 0 192 150" version="1.1" xmlns="http://www.w3.org/2000/svg" xmlns:xlink="http://www.w3.org/1999/xlink" xml:space="preserve" xmlns:serif="http://www.serif.com/" style="fill-rule:evenodd;clip-rule:evenodd;stroke-linecap:round;stroke-linejoin:round;stroke-miterlimit:1.5;">
    <g id="Ebene_5">
        <g transform="matrix(0.973783,0,0,0.97943,4.07961,2.75886)">
            <path d="M185.4,24.939L185.4,122.578C185.4,134.512 175.655,144.2 163.653,144.2L24.932,144.2C12.93,144.2 3.185,134.512 3.185,122.578L3.185,24.939C3.185,13.005 12.93,3.317 24.932,3.317L163.653,3.317C175.655,3.317 185.4,13.005 185.4,24.939Z" style="fill:rgb(60,60,60);stroke:rgb(46,161,219);stroke-width:5.12px;"/>
        </g>
        <g transform="matrix(0.248313,0,0,0.258135,54.5884,19.423)">
            <g transform="matrix(1,0,0,1,332.738,39.1455)">
                <path d="M0,352.312C0,373.929 -17.527,391.457 -39.146,391.457L-293.593,391.457C-315.209,391.457 -332.738,373.929 -332.738,352.312L-332.738,-0C-332.738,-21.618 -315.209,-39.145 -293.593,-39.145L-39.146,-39.145C-17.527,-39.145 0,-21.618 0,-0L0,352.312Z" style="fill:white;fill-rule:nonzero;"/>
            </g>
            <g transform="matrix(1,0,0,1,0,319.634)">
                <rect x="167.764" y="50.399" width="125.547" height="10.17" style="fill:rgb(187,189,191);"/>
            </g>
            <g transform="matrix(1,0,0,1,0,279.634)">
                <rect x="167.764" y="70.399" width="125.547" height="10.17" style="fill:rgb(187,189,191);"/>
            </g>
            <g transform="matrix(1,0,0,1,0,239.634)">
                <rect x="167.764" y="90.399" width="125.547" height="10.17" style="fill:rgb(187,189,191);"/>
            </g>
            <g transform="matrix(1,0,0,1,0,199.634)">
                <rect x="167.764" y="110.399" width="125.547" height="10.17" style="fill:rgb(187,189,191);"/>
            </g>
            <g transform="matrix(1,0,0,1,0,178.302)">
                <rect x="167.764" y="110.399" width="125.547" height="10.17" style="fill:rgb(187,189,191);"/>
            </g>
            <g transform="matrix(1,0,0,1,0,157.179)">
                <rect x="167.764" y="110.399" width="125.547" height="10.17" style="fill:rgb(187,189,191);"/>
            </g>
            <g transform="matrix(1,0,0,1,0,100.894)">
                <rect x="167.764" y="135.39" width="125.547" height="20.189" style="fill:rgb(60,60,60);"/>
            </g>
            <g transform="matrix(1,0,0,1.36338,140.864,380.202)">
                <path d="M0,-105.094L-22.521,-105.094C-24.588,-105.094 -26.274,-103.405 -26.274,-101.341L-26.274,-3.752C-26.274,-1.69 -24.588,0 -22.521,0L0,0C2.06,0 3.753,-1.69 3.753,-3.752L3.753,-101.341C3.753,-103.405 2.06,-105.094 0,-105.094" style="fill:rgb(46,161,219);fill-rule:nonzero;"/>
            </g>
            <g transform="matrix(1,0,0,1.15354,103.33,380.202)">
                <path d="M0,-90.08L-22.521,-90.08C-24.588,-90.08 -26.273,-88.391 -26.273,-86.327L-26.273,-3.752C-26.273,-1.689 -24.588,0 -22.521,0L0,0C2.061,0 3.754,-1.689 3.754,-3.752L3.754,-86.327C3.754,-88.391 2.061,-90.08 0,-90.08" style="fill:rgb(46,161,219);fill-rule:nonzero;"/>
            </g>
            <g transform="matrix(1,0,0,1,65.7969,380.201)">
                <path d="M0,-75.067L-22.521,-75.067C-24.588,-75.067 -26.274,-73.377 -26.274,-71.314L-26.274,-3.752C-26.274,-1.689 -24.588,0 -22.521,0L0,0C2.06,0 3.753,-1.689 3.753,-3.752L3.753,-71.314C3.753,-73.377 2.06,-75.067 0,-75.067" style="fill:rgb(46,161,219);fill-rule:nonzero;"/>
            </g>
            <g transform="matrix(1,0,0,1,240.763,90.8896)">
                <path d="M0,0.001L0,-49.975C-27.601,-49.975 -49.975,-27.598 -49.975,0.001C-49.975,27.603 -27.601,49.976 0,49.976C27.597,49.976 49.976,27.603 49.976,0.001C49.976,-8.038 48.073,-15.634 44.705,-22.351L0,0.001Z" style="fill:rgb(46,161,219);fill-rule:nonzero;"/>
            </g>
            <g transform="matrix(1,0,0,1,292.607,48.9887)">
                <path d="M0,5.271C-8.206,-11.106 -25.141,-22.352 -44.704,-22.352L-44.704,27.623L0,5.271Z" style="fill:rgb(60,60,60);fill-rule:nonzero;"/>
            </g>
            <g transform="matrix(1,0,0,1,0,-160.445)">
                <rect x="73.245" y="289.8" width="91.205" height="11.447" style="fill:rgb(187,189,191);"/>
            </g>
            <g transform="matrix(1,0,0,1,0,-218.445)">
                <rect x="73.245" y="318.8" width="91.205" height="11.447" style="fill:rgb(187,189,191);"/>
            </g>
            <g transform="matrix(1,0,0,1,0,-277.129)">
                <rect x="73.245" y="348.142" width="91.205" height="11.447" style="fill:rgb(187,189,191);"/>
            </g>
            <g transform="matrix(1,0,0,1,0,-335.814)">
                <rect x="73.245" y="377.484" width="91.205" height="11.448" style="fill:rgb(187,189,191);"/>
            </g>
            <g transform="matrix(0,1,1,0,50.3503,123.632)">
                <path d="M11.447,-11.448C5.12,-11.448 0,-6.328 0,-0C0,6.316 5.12,11.447 11.447,11.447C17.775,11.447 22.895,6.316 22.895,-0C22.895,-6.328 17.775,-11.448 11.447,-11.448" style="fill:rgb(60,60,60);fill-rule:nonzero;"/>
            </g>
            <g transform="matrix(0,1,1,0,50.3503,94.6321)">
                <path d="M11.447,-11.448C5.12,-11.448 0,-6.328 0,-0C0,6.316 5.12,11.447 11.447,11.447C17.775,11.447 22.895,6.316 22.895,-0C22.895,-6.328 17.775,-11.448 11.447,-11.448" style="fill:rgb(60,60,60);fill-rule:nonzero;"/>
            </g>
            <g transform="matrix(1,0,0,1,0,-101.057)">
                <rect x="73.245" y="289.8" width="91.205" height="11.447" style="fill:rgb(187,189,191);"/>
            </g>
            <g transform="matrix(1,0,0,1,0,-160.324)">
                <rect x="73.245" y="318.8" width="91.205" height="11.447" style="fill:rgb(187,189,191);"/>
            </g>
            <g transform="matrix(0,1,1,0,50.3503,183.02)">
                <path d="M11.447,-11.448C5.12,-11.448 0,-6.328 0,-0C0,6.316 5.12,11.447 11.447,11.447C17.775,11.447 22.895,6.316 22.895,-0C22.895,-6.328 17.775,-11.448 11.447,-11.448" style="fill:rgb(60,60,60);fill-rule:nonzero;"/>
            </g>
            <g transform="matrix(0,1,1,0,50.3503,152.753)">
                <path d="M11.447,-11.448C5.12,-11.448 0,-6.328 0,-0C0,6.316 5.12,11.447 11.447,11.447C17.775,11.447 22.895,6.316 22.895,-0C22.895,-6.328 17.775,-11.448 11.447,-11.448" style="fill:rgb(60,60,60);fill-rule:nonzero;"/>
            </g>
            <g transform="matrix(0,1,1,0,50.3498,65.2893)">
                <path d="M11.448,-11.448C5.12,-11.448 -0,-6.328 -0,0C-0,6.316 5.12,11.448 11.448,11.448C17.776,11.448 22.895,6.316 22.895,0C22.895,-6.328 17.776,-11.448 11.448,-11.448" style="fill:rgb(60,60,60);fill-rule:nonzero;"/>
            </g>
            <g transform="matrix(0,1,1,0,50.3493,35.9465)">
                <path d="M11.448,-11.447C5.12,-11.447 0,-6.327 0,0.001C0,6.317 5.12,11.448 11.448,11.448C17.775,11.448 22.895,6.317 22.895,0.001C22.895,-6.327 17.775,-11.447 11.448,-11.447" style="fill:rgb(60,60,60);fill-rule:nonzero;"/>
            </g>
        </g>
    </g>
</svg>
