<?xml version="1.0" encoding="UTF-8" standalone="no"?>
<!DOCTYPE svg PUBLIC "-//W3C//DTD SVG 1.1//EN" "http://www.w3.org/Graphics/SVG/1.1/DTD/svg11.dtd">
<svg width="100%" height="100%" viewBox="0 0 192 150" version="1.1" xmlns="http://www.w3.org/2000/svg" xmlns:xlink="http://www.w3.org/1999/xlink" xml:space="preserve" xmlns:serif="http://www.serif.com/" style="fill-rule:evenodd;clip-rule:evenodd;stroke-linecap:round;stroke-linejoin:round;stroke-miterlimit:1.5;">
    <g transform="matrix(0.973783,0,0,0.97943,4.07961,2.75886)">
        <path d="M185.4,24.939L185.4,122.578C185.4,134.512 175.655,144.2 163.653,144.2L24.932,144.2C12.93,144.2 3.185,134.512 3.185,122.578L3.185,24.939C3.185,13.005 12.93,3.317 24.932,3.317L163.653,3.317C175.655,3.317 185.4,13.005 185.4,24.939Z" style="fill:rgb(60,60,60);stroke:rgb(46,161,219);stroke-width:5.12px;"/>
    </g>
    <g>
        <g transform="matrix(1.29514,0,0,1.29514,-418.301,-250.211)">
            <path d="M421.096,236.336L411.787,227.027L390.063,248.749L399.374,258.06L421.096,236.336Z" style="fill:rgb(46,161,219);fill-rule:nonzero;"/>
        </g>
        <g transform="matrix(1.29514,0,0,1.29514,-418.301,-250.211)">
            <path d="M428.853,228.578C429.71,227.721 429.71,226.333 428.853,225.476L422.647,219.27C421.79,218.413 420.402,218.413 419.544,219.27L414.89,223.924L424.199,233.233L428.853,228.578Z" style="fill:rgb(46,161,219);fill-rule:nonzero;"/>
        </g>
        <g transform="matrix(1.29514,0,0,1.29514,-418.301,-250.211)">
            <path d="M384.838,266.229L395.838,260.731L387.393,252.285L381.894,263.284C381.472,264.129 381.637,265.149 382.306,265.817C382.974,266.486 383.995,266.651 384.838,266.229Z" style="fill:rgb(46,161,219);fill-rule:nonzero;"/>
        </g>
        <g transform="matrix(1.29514,0,0,1.29514,-418.301,-250.211)">
            <path d="M432.278,270.849L427.743,270.849L427.743,277.432C427.743,278.645 426.762,279.626 425.549,279.626C424.336,279.626 423.354,278.645 423.354,277.432L423.354,270.849L418.966,270.849L418.966,277.432C418.966,278.645 417.984,279.626 416.772,279.626C415.559,279.626 414.577,278.645 414.577,277.432L414.577,270.849L410.189,270.849L410.189,277.432C410.189,278.645 409.207,279.626 407.994,279.626C406.781,279.626 405.8,278.645 405.8,277.432L405.8,270.849L401.411,270.849L401.411,277.432C401.411,278.645 400.43,279.626 399.217,279.626C398.004,279.626 397.023,278.645 397.023,277.432L397.023,270.849L392.634,270.849L392.634,277.432C392.634,278.645 391.653,279.626 390.44,279.626C389.227,279.626 388.246,278.645 388.246,277.432L388.246,270.849L381.663,270.849L381.663,288.55L432.278,288.55C433.491,288.55 434.472,287.568 434.472,286.355L434.472,273.043C434.472,271.83 433.491,270.849 432.278,270.849Z" style="fill:white;fill-rule:nonzero;"/>
        </g>
        <g transform="matrix(1.29514,0,0,1.29514,-418.301,-250.211)">
            <path d="M375.08,213.651L361.768,213.651C360.556,213.651 359.573,214.633 359.573,215.845L359.573,286.355C359.573,287.567 360.556,288.55 361.768,288.55L377.274,288.55L377.274,279.626L370.691,279.626C369.478,279.626 368.497,278.645 368.497,277.432C368.497,276.219 369.478,275.237 370.691,275.237L377.274,275.237L377.274,270.849L370.691,270.849C369.478,270.849 368.497,269.867 368.497,268.655C368.497,267.442 369.478,266.46 370.691,266.46L377.274,266.46L377.274,262.072L370.691,262.072C369.478,262.072 368.497,261.09 368.497,259.878C368.497,258.664 369.478,257.684 370.691,257.684L377.274,257.684L377.274,253.294L370.691,253.294C369.478,253.294 368.497,252.313 368.497,251.1C368.497,249.887 369.478,248.906 370.691,248.906L377.274,248.906L377.274,244.517L370.691,244.517C369.478,244.517 368.497,243.536 368.497,242.323C368.497,241.11 369.478,240.129 370.691,240.129L377.274,240.129L377.274,235.74L370.691,235.74C369.478,235.74 368.497,234.758 368.497,233.546C368.497,232.333 369.478,231.351 370.691,231.351L377.274,231.351L377.274,226.963L370.691,226.963C369.478,226.963 368.497,225.981 368.497,224.768C368.497,223.555 369.478,222.574 370.691,222.574L377.274,222.574L377.274,215.845C377.274,214.633 376.292,213.651 375.08,213.651Z" style="fill:white;fill-rule:nonzero;"/>
        </g>
    </g>
</svg>
