<?xml version="1.0" encoding="UTF-8" standalone="no"?>
<!DOCTYPE svg PUBLIC "-//W3C//DTD SVG 1.1//EN" "http://www.w3.org/Graphics/SVG/1.1/DTD/svg11.dtd">
<svg width="100%" height="100%" viewBox="0 0 192 150" version="1.1" xmlns="http://www.w3.org/2000/svg" xmlns:xlink="http://www.w3.org/1999/xlink" xml:space="preserve" xmlns:serif="http://www.serif.com/" style="fill-rule:evenodd;clip-rule:evenodd;stroke-linecap:round;stroke-linejoin:round;stroke-miterlimit:1.5;">
    <g id="Ebene_9">
        <g transform="matrix(0.973783,0,0,0.97943,4.07961,2.75886)">
            <path d="M185.4,24.939L185.4,122.578C185.4,134.512 175.655,144.2 163.653,144.2L24.932,144.2C12.93,144.2 3.185,134.512 3.185,122.578L3.185,24.939C3.185,13.005 12.93,3.317 24.932,3.317L163.653,3.317C175.655,3.317 185.4,13.005 185.4,24.939Z" style="fill:rgb(60,60,60);stroke:rgb(46,161,219);stroke-width:5.12px;"/>
        </g>
        <g>
            <g>
                <g transform="matrix(1,0,0,0.637232,0.642474,64.3013)">
                    <rect x="36.612" y="63.762" width="117.292" height="30.979" style="fill:white;"/>
                </g>
                <g transform="matrix(2.60081e-17,0.424745,-0.637232,3.90192e-17,97.6261,59.3036)">
                    <rect x="36.612" y="63.762" width="117.292" height="30.979" style="fill:white;"/>
                </g>
                <g transform="matrix(-1,-1.22465e-16,1.22465e-16,-1,184.484,105.742)">
                    <path d="M88.584,15.561L120.173,44.596L56.995,44.596L88.584,15.561Z" style="fill:rgb(46,161,219);"/>
                </g>
                <g transform="matrix(2.60081e-17,0.424745,-0.637232,3.90192e-17,195.177,59.3036)">
                    <rect x="36.612" y="63.762" width="117.292" height="30.979" style="fill:white;"/>
                </g>
            </g>
            <g transform="matrix(2.60081e-17,-0.424745,0.637232,3.90192e-17,45.3985,90.6964)">
                <rect x="36.612" y="63.762" width="117.292" height="30.979" style="fill:rgb(46,161,219);"/>
            </g>
        </g>
    </g>
</svg>
