<?xml version="1.0" encoding="UTF-8" standalone="no"?>
<!DOCTYPE svg PUBLIC "-//W3C//DTD SVG 1.1//EN" "http://www.w3.org/Graphics/SVG/1.1/DTD/svg11.dtd">
<svg width="100%" height="100%" viewBox="0 0 192 150" version="1.1" xmlns="http://www.w3.org/2000/svg" xmlns:xlink="http://www.w3.org/1999/xlink" xml:space="preserve" xmlns:serif="http://www.serif.com/" style="fill-rule:evenodd;clip-rule:evenodd;stroke-linecap:round;stroke-linejoin:round;stroke-miterlimit:1.5;">
    <g transform="matrix(0.973783,0,0,0.97943,4.07961,2.75886)">
        <path d="M185.4,24.939L185.4,122.578C185.4,134.512 175.655,144.2 163.653,144.2L24.932,144.2C12.93,144.2 3.185,134.512 3.185,122.578L3.185,24.939C3.185,13.005 12.93,3.317 24.932,3.317L163.653,3.317C175.655,3.317 185.4,13.005 185.4,24.939Z" style="fill:rgb(60,60,60);stroke:rgb(46,161,219);stroke-width:5.12px;"/>
    </g>
    <g transform="matrix(0.981531,0,0,0.981531,1.7712,1.38519)">
        <g transform="matrix(2.10725,0,0,2.10725,-281.677,-297.792)">
            <path d="M179.181,203.531C181.126,200.337 204.039,198.148 199.832,183.717C193.618,162.402 201.385,160.025 201.385,160.025L196.359,154.965C196.359,154.965 193.205,157.688 188.135,156.958C181.739,156.038 180.734,152.281 179.18,150.287C177.627,152.28 176.621,156.037 170.225,156.958C165.155,157.687 162.001,154.965 162.001,154.965L156.975,160.025C156.975,160.025 164.742,162.402 158.528,183.717C154.324,198.148 177.237,200.337 179.181,203.531Z" style="fill:rgb(46,161,219);fill-rule:nonzero;"/>
        </g>
        <g transform="matrix(1.53509,0,0,1.28166,-16.8696,-9.25244)">
            <path d="M93.8,65.3C93.4,65.2 93,65.1 92.5,65.1C89.1,65.1 85.5,69.3 82.9,73.3C82.5,70.3 81.2,67.1 79.7,63.4L79,61.7C76.8,56.2 78.6,50 80.7,46.4C80.9,46 80.9,45.6 80.7,45.2C80.5,44.9 80,44.7 79.6,44.8C71.5,46.6 64.7,57.5 64.3,68.5C63.3,67.6 62.3,67 61.4,66.4C59.4,65.2 58.1,64.5 58.5,60.8C58.5,60.3 58.3,59.9 57.8,59.7C57.3,59.5 56.8,59.7 56.6,60.1C48.7,72.6 53.6,92.3 63.1,98.4C63.5,98.7 64.1,98.6 64.5,98.2C64.7,98 64.8,97.5 64.7,97.2C64.4,95.3 63.6,89.9 64.3,85.9C64.8,86.4 65.3,86.7 65.8,87C66.7,87.5 67.5,87.9 67.9,89.3C68,89.7 68.4,89.9 68.7,90C69.1,90 69.5,89.9 69.7,89.6C70.7,88.2 71.2,86 71.7,83.7C72.3,80.6 73,77.5 74.9,76C74.1,78.3 73.9,81 74.9,83.6L75.3,84.6C76.5,87.6 77.4,89.7 76.9,91.7C76.8,92.2 77.1,92.8 77.6,92.9C78.1,93.1 78.7,92.9 78.9,92.4C79.8,90.5 81.1,88.8 82.2,87.7C81.8,89.2 81.6,90.9 81.4,92.7C81.2,94.6 81,96.6 80.5,98.3C80.4,98.7 80.5,99.2 80.9,99.4C81.1,99.5 81.3,99.6 81.5,99.6C81.7,99.6 81.9,99.5 82.1,99.4C83.7,98.4 85,97 86.1,95.4C89.3,90.7 89.9,84.6 90.4,79.1C90.9,74 91.3,69.2 93.9,66.8C94.2,66.5 94.3,66.2 94.2,65.8C94.4,65.7 94.1,65.4 93.8,65.3Z" style="fill:white;fill-rule:nonzero;"/>
        </g>
    </g>
</svg>
