<?xml version="1.0" encoding="UTF-8" standalone="no"?>
<!DOCTYPE svg PUBLIC "-//W3C//DTD SVG 1.1//EN" "http://www.w3.org/Graphics/SVG/1.1/DTD/svg11.dtd">
<svg width="100%" height="100%" viewBox="0 0 192 150" version="1.1" xmlns="http://www.w3.org/2000/svg" xmlns:xlink="http://www.w3.org/1999/xlink" xml:space="preserve" xmlns:serif="http://www.serif.com/" style="fill-rule:evenodd;clip-rule:evenodd;stroke-linecap:round;stroke-linejoin:round;stroke-miterlimit:1.5;">
    <g transform="matrix(0.973783,0,0,0.97943,4.07961,2.75886)">
        <path d="M185.4,24.939L185.4,122.578C185.4,134.512 175.655,144.2 163.653,144.2L24.932,144.2C12.93,144.2 3.185,134.512 3.185,122.578L3.185,24.939C3.185,13.005 12.93,3.317 24.932,3.317L163.653,3.317C175.655,3.317 185.4,13.005 185.4,24.939Z" style="fill:rgb(60,60,60);stroke:rgb(46,161,219);stroke-width:5.12px;"/>
    </g>
    <g transform="matrix(1,0,0,1,0,0.347794)">
        <g transform="matrix(1,0,0,1,0,-8)">
            <g transform="matrix(0.0680903,0,0,0.0680903,234.581,13.2543)">
                <g transform="matrix(3.6865e-17,0.602052,-1,6.12323e-17,-2565.89,2370.18)">
                    <path d="M-1672.55,108.461L-1672.55,132.892C-1672.55,139.634 -1681.64,145.108 -1692.84,145.108L-2021.91,145.108C-2033.11,145.108 -2042.2,139.634 -2042.2,132.892L-2042.2,108.461C-2042.2,101.72 -2033.11,96.246 -2021.91,96.246L-1692.84,96.246C-1681.64,96.246 -1672.55,101.72 -1672.55,108.461Z" style="fill:rgb(46,161,219);"/>
                </g>
                <g transform="matrix(4.26022e-17,0.695746,-1,6.12323e-17,-2228.42,2353.2)">
                    <path d="M-1672.55,108.461L-1672.55,132.892C-1672.55,139.634 -1680.42,145.108 -1690.11,145.108L-2024.65,145.108C-2034.34,145.108 -2042.2,139.634 -2042.2,132.892L-2042.2,108.461C-2042.2,101.72 -2034.34,96.246 -2024.65,96.246L-1690.11,96.246C-1680.42,96.246 -1672.55,101.72 -1672.55,108.461Z" style="fill:rgb(46,161,219);"/>
                </g>
                <g transform="matrix(-1.0451,1.27988e-16,-1.22465e-16,-1,-4458.99,1285.78)">
                    <path d="M-1672.55,108.461L-1672.55,132.892C-1672.55,139.634 -1677.79,145.108 -1684.24,145.108L-2030.52,145.108C-2036.97,145.108 -2042.2,139.634 -2042.2,132.892L-2042.2,108.461C-2042.2,101.72 -2036.97,96.246 -2030.52,96.246L-1684.24,96.246C-1677.79,96.246 -1672.55,101.72 -1672.55,108.461Z" style="fill:rgb(46,161,219);"/>
                </g>
            </g>
            <g transform="matrix(0.0232707,0,0,0.0305022,29.3697,102.877)">
                <path d="M1472.12,166.668L1472.12,983.992C1472.12,1025.72 1427.71,1059.6 1373.01,1059.6L554.132,1059.6C499.433,1059.6 455.023,1025.72 455.023,983.992L455.023,166.668C455.023,124.936 499.433,91.056 554.132,91.056L1373.01,91.056C1427.71,91.056 1472.12,124.936 1472.12,166.668ZM1263.51,545.868C1263.51,541.831 1259.21,538.554 1253.92,538.554L673.219,538.554C667.928,538.554 663.632,541.831 663.632,545.868L663.632,606.301C663.632,610.338 667.928,613.616 673.219,613.616L1253.92,613.616C1259.21,613.616 1263.51,610.338 1263.51,606.301L1263.51,545.868ZM1263.51,232.269C1263.51,228.232 1259.21,224.955 1253.92,224.955L673.219,224.955C667.928,224.955 663.632,228.232 663.632,232.269L663.632,292.702C663.632,296.739 667.928,300.017 673.219,300.017L1253.92,300.017C1259.21,300.017 1263.51,296.739 1263.51,292.702L1263.51,232.269ZM1263.51,701.928C1263.51,697.891 1259.21,694.614 1253.92,694.614L673.219,694.614C667.928,694.614 663.632,697.891 663.632,701.928L663.632,762.361C663.632,766.398 667.928,769.676 673.219,769.676L1253.92,769.676C1259.21,769.676 1263.51,766.398 1263.51,762.361L1263.51,701.928ZM1263.51,857.957C1263.51,853.92 1259.21,850.643 1253.92,850.643L673.219,850.643C667.928,850.643 663.632,853.92 663.632,857.957L663.632,918.39C663.632,922.427 667.928,925.705 673.219,925.705L1253.92,925.705C1259.21,925.705 1263.51,922.427 1263.51,918.39L1263.51,857.957ZM1263.51,388.571C1263.51,384.534 1259.21,381.256 1253.92,381.256L673.219,381.256C667.928,381.256 663.632,384.534 663.632,388.571L663.632,449.004C663.632,453.041 667.928,456.318 673.219,456.318L1253.92,456.318C1259.21,456.318 1263.51,453.041 1263.51,449.004L1263.51,388.571Z" style="fill:white;"/>
            </g>
            <g transform="matrix(-0.0680903,0,0,0.0680903,-42.7812,13.2543)">
                <g transform="matrix(3.6865e-17,0.602052,-1,6.12323e-17,-2565.89,2370.18)">
                    <path d="M-1672.55,108.461L-1672.55,132.892C-1672.55,139.634 -1681.64,145.108 -1692.84,145.108L-2021.91,145.108C-2033.11,145.108 -2042.2,139.634 -2042.2,132.892L-2042.2,108.461C-2042.2,101.72 -2033.11,96.246 -2021.91,96.246L-1692.84,96.246C-1681.64,96.246 -1672.55,101.72 -1672.55,108.461Z" style="fill:rgb(46,161,219);"/>
                </g>
                <g transform="matrix(4.26022e-17,0.695746,-1,6.12323e-17,-2228.42,2353.2)">
                    <path d="M-1672.55,108.461L-1672.55,132.892C-1672.55,139.634 -1680.42,145.108 -1690.11,145.108L-2024.65,145.108C-2034.34,145.108 -2042.2,139.634 -2042.2,132.892L-2042.2,108.461C-2042.2,101.72 -2034.34,96.246 -2024.65,96.246L-1690.11,96.246C-1680.42,96.246 -1672.55,101.72 -1672.55,108.461Z" style="fill:rgb(46,161,219);"/>
                </g>
                <g transform="matrix(-1.0451,1.27988e-16,-1.22465e-16,-1,-4458.99,1285.78)">
                    <path d="M-1672.55,108.461L-1672.55,132.892C-1672.55,139.634 -1677.79,145.108 -1684.24,145.108L-2030.52,145.108C-2036.97,145.108 -2042.2,139.634 -2042.2,132.892L-2042.2,108.461C-2042.2,101.72 -2036.97,96.246 -2030.52,96.246L-1684.24,96.246C-1677.79,96.246 -1672.55,101.72 -1672.55,108.461Z" style="fill:rgb(46,161,219);"/>
                </g>
                <g transform="matrix(-0.341763,0,0,0.447967,-2355.19,1316.23)">
                    <path d="M1472.12,166.668L1472.12,983.992C1472.12,1025.72 1427.71,1059.6 1373.01,1059.6L554.132,1059.6C499.433,1059.6 455.023,1025.72 455.023,983.992L455.023,166.668C455.023,124.936 499.433,91.056 554.132,91.056L1373.01,91.056C1427.71,91.056 1472.12,124.936 1472.12,166.668ZM1263.51,545.868C1263.51,541.831 1259.21,538.554 1253.92,538.554L673.219,538.554C667.928,538.554 663.632,541.831 663.632,545.868L663.632,606.301C663.632,610.338 667.928,613.616 673.219,613.616L1253.92,613.616C1259.21,613.616 1263.51,610.338 1263.51,606.301L1263.51,545.868ZM1263.51,232.269C1263.51,228.232 1259.21,224.955 1253.92,224.955L673.219,224.955C667.928,224.955 663.632,228.232 663.632,232.269L663.632,292.702C663.632,296.739 667.928,300.017 673.219,300.017L1253.92,300.017C1259.21,300.017 1263.51,296.739 1263.51,292.702L1263.51,232.269ZM1263.51,701.928C1263.51,697.891 1259.21,694.614 1253.92,694.614L673.219,694.614C667.928,694.614 663.632,697.891 663.632,701.928L663.632,762.361C663.632,766.398 667.928,769.676 673.219,769.676L1253.92,769.676C1259.21,769.676 1263.51,766.398 1263.51,762.361L1263.51,701.928ZM1263.51,857.957C1263.51,853.92 1259.21,850.643 1253.92,850.643L673.219,850.643C667.928,850.643 663.632,853.92 663.632,857.957L663.632,918.39C663.632,922.427 667.928,925.705 673.219,925.705L1253.92,925.705C1259.21,925.705 1263.51,922.427 1263.51,918.39L1263.51,857.957ZM1263.51,388.571C1263.51,384.534 1259.21,381.256 1253.92,381.256L673.219,381.256C667.928,381.256 663.632,384.534 663.632,388.571L663.632,449.004C663.632,453.041 667.928,456.318 673.219,456.318L1253.92,456.318C1259.21,456.318 1263.51,453.041 1263.51,449.004L1263.51,388.571Z" style="fill:white;"/>
                </g>
            </g>
            <g transform="matrix(5.0203e-18,0.0819878,-0.0680903,4.16933e-18,104.389,243.205)">
                <path d="M-1672.55,108.461L-1672.55,132.892C-1672.55,139.634 -1677.1,145.108 -1682.7,145.108L-2032.06,145.108C-2037.66,145.108 -2042.2,139.634 -2042.2,132.892L-2042.2,108.461C-2042.2,101.72 -2037.66,96.246 -2032.06,96.246L-1682.7,96.246C-1677.1,96.246 -1672.55,101.72 -1672.55,108.461Z" style="fill:rgb(46,161,219);"/>
            </g>
            <g transform="matrix(0.0232707,0,0,0.0305022,73.477,102.881)">
                <path d="M1472.12,166.668L1472.12,983.992C1472.12,1025.72 1427.71,1059.6 1373.01,1059.6L554.132,1059.6C499.433,1059.6 455.023,1025.72 455.023,983.992L455.023,166.668C455.023,124.936 499.433,91.056 554.132,91.056L1373.01,91.056C1427.71,91.056 1472.12,124.936 1472.12,166.668ZM1263.51,545.868C1263.51,541.831 1259.21,538.554 1253.92,538.554L673.219,538.554C667.928,538.554 663.632,541.831 663.632,545.868L663.632,606.301C663.632,610.338 667.928,613.616 673.219,613.616L1253.92,613.616C1259.21,613.616 1263.51,610.338 1263.51,606.301L1263.51,545.868ZM1263.51,232.269C1263.51,228.232 1259.21,224.955 1253.92,224.955L673.219,224.955C667.928,224.955 663.632,228.232 663.632,232.269L663.632,292.702C663.632,296.739 667.928,300.017 673.219,300.017L1253.92,300.017C1259.21,300.017 1263.51,296.739 1263.51,292.702L1263.51,232.269ZM1263.51,701.928C1263.51,697.891 1259.21,694.614 1253.92,694.614L673.219,694.614C667.928,694.614 663.632,697.891 663.632,701.928L663.632,762.361C663.632,766.398 667.928,769.676 673.219,769.676L1253.92,769.676C1259.21,769.676 1263.51,766.398 1263.51,762.361L1263.51,701.928ZM1263.51,857.957C1263.51,853.92 1259.21,850.643 1253.92,850.643L673.219,850.643C667.928,850.643 663.632,853.92 663.632,857.957L663.632,918.39C663.632,922.427 667.928,925.705 673.219,925.705L1253.92,925.705C1259.21,925.705 1263.51,922.427 1263.51,918.39L1263.51,857.957ZM1263.51,388.571C1263.51,384.534 1259.21,381.256 1253.92,381.256L673.219,381.256C667.928,381.256 663.632,384.534 663.632,388.571L663.632,449.004C663.632,453.041 667.928,456.318 673.219,456.318L1253.92,456.318C1259.21,456.318 1263.51,453.041 1263.51,449.004L1263.51,388.571Z" style="fill:white;"/>
            </g>
        </g>
        <g transform="matrix(0.835876,0,0,0.835876,15.6195,11.7767)">
            <g transform="matrix(0.0680903,0,0,0.0680903,30.5625,6.47222)">
                <path d="M1472.12,185.434L1472.12,965.226C1472.12,1017.31 1429.83,1059.6 1377.74,1059.6L549.402,1059.6C497.313,1059.6 455.023,1017.31 455.023,965.226L455.023,185.434C455.023,133.345 497.313,91.056 549.402,91.056L1377.74,91.056C1429.83,91.056 1472.12,133.345 1472.12,185.434Z" style="fill:white;"/>
            </g>
            <g transform="matrix(0.0680903,0,0,0.0153923,30.5625,10.952)">
                <rect x="455.023" y="91.056" width="1017.1" height="968.548" style="fill:rgb(46,161,219);"/>
            </g>
            <g transform="matrix(0.0385144,0,0,0.0385144,211.046,9.06698)">
                <circle cx="-3699.6" cy="278.875" r="86.383" style="fill:rgb(50,48,48);"/>
            </g>
            <g transform="matrix(0.0385144,0,0,0.0385144,219.472,9.06698)">
                <circle cx="-3699.6" cy="278.875" r="86.383" style="fill:rgb(50,48,48);"/>
            </g>
            <g transform="matrix(0.0385144,0,0,0.0385144,227.89,9.06698)">
                <circle cx="-3699.6" cy="278.875" r="86.383" style="fill:rgb(50,48,48);"/>
            </g>
            <g transform="matrix(0.0680903,0,0,0.0680903,230.343,11.5908)">
                <path d="M-1672.55,108.461L-1672.55,132.892C-1672.55,139.634 -1678.03,145.108 -1684.77,145.108L-2029.99,145.108C-2036.73,145.108 -2042.2,139.634 -2042.2,132.892L-2042.2,108.461C-2042.2,101.72 -2036.73,96.246 -2029.99,96.246L-1684.77,96.246C-1678.03,96.246 -1672.55,101.72 -1672.55,108.461Z" style="fill:rgb(50,48,48);"/>
            </g>
            <g transform="matrix(0.0188934,-0.0654166,0.0654166,0.0188934,123.37,-75.2077)">
                <path d="M-1672.55,108.461L-1672.55,132.892C-1672.55,139.634 -1678.03,145.108 -1684.77,145.108L-2029.99,145.108C-2036.73,145.108 -2042.2,139.634 -2042.2,132.892L-2042.2,108.461C-2042.2,101.72 -2036.73,96.246 -2029.99,96.246L-1684.77,96.246C-1678.03,96.246 -1672.55,101.72 -1672.55,108.461Z" style="fill:rgb(50,48,48);"/>
            </g>
            <g transform="matrix(0.0680903,0,0,0.0680903,57.1985,8.54392)">
                <g transform="matrix(0.46099,0.460637,-0.706836,0.707377,1294.66,1425.82)">
                    <path d="M-1672.55,108.461L-1672.55,132.892C-1672.55,139.634 -1680.95,145.108 -1691.3,145.108L-2023.46,145.108C-2033.8,145.108 -2042.2,139.634 -2042.2,132.892L-2042.2,108.461C-2042.2,101.72 -2033.8,96.246 -2023.46,96.246L-1691.3,96.246C-1680.95,96.246 -1672.55,101.72 -1672.55,108.461Z" style="fill:rgb(50,48,48);"/>
                </g>
                <g transform="matrix(-0.460813,0.460813,-0.707107,-0.707107,-417.421,1461.5)">
                    <path d="M-1672.55,108.461L-1672.55,132.892C-1672.55,139.634 -1680.95,145.108 -1691.3,145.108L-2023.46,145.108C-2033.8,145.108 -2042.2,139.634 -2042.2,132.892L-2042.2,108.461C-2042.2,101.72 -2033.8,96.246 -2023.46,96.246L-1691.3,96.246C-1680.95,96.246 -1672.55,101.72 -1672.55,108.461Z" style="fill:rgb(50,48,48);"/>
                </g>
            </g>
            <g transform="matrix(-0.0680903,-8.33866e-18,8.33866e-18,-0.0680903,135.146,88.6073)">
                <g transform="matrix(0.46099,0.460637,-0.706836,0.707377,1294.66,1425.82)">
                    <path d="M-1672.55,108.461L-1672.55,132.892C-1672.55,139.634 -1680.95,145.108 -1691.3,145.108L-2023.46,145.108C-2033.8,145.108 -2042.2,139.634 -2042.2,132.892L-2042.2,108.461C-2042.2,101.72 -2033.8,96.246 -2023.46,96.246L-1691.3,96.246C-1680.95,96.246 -1672.55,101.72 -1672.55,108.461Z" style="fill:rgb(50,48,48);"/>
                </g>
                <g transform="matrix(-0.460813,0.460813,-0.707107,-0.707107,-417.421,1461.5)">
                    <path d="M-1672.55,108.461L-1672.55,132.892C-1672.55,139.634 -1680.95,145.108 -1691.3,145.108L-2023.46,145.108C-2033.8,145.108 -2042.2,139.634 -2042.2,132.892L-2042.2,108.461C-2042.2,101.72 -2033.8,96.246 -2023.46,96.246L-1691.3,96.246C-1680.95,96.246 -1672.55,101.72 -1672.55,108.461Z" style="fill:rgb(50,48,48);"/>
                </g>
            </g>
            <g transform="matrix(0.0227714,0,0,0.068759,165.188,11.5264)">
                <path d="M-1672.55,108.461L-1672.55,132.892C-1672.55,139.634 -1689.08,145.108 -1709.44,145.108L-2005.32,145.108C-2025.68,145.108 -2042.2,139.634 -2042.2,132.892L-2042.2,108.461C-2042.2,101.72 -2025.68,96.246 -2005.32,96.246L-1709.44,96.246C-1689.08,96.246 -1672.55,101.72 -1672.55,108.461Z" style="fill:rgb(50,48,48);"/>
            </g>
            <g transform="matrix(1.39435e-18,0.0227714,-0.068759,4.21027e-18,131.19,62.1028)">
                <path d="M-1672.55,108.461L-1672.55,132.892C-1672.55,139.634 -1689.08,145.108 -1709.44,145.108L-2005.32,145.108C-2025.68,145.108 -2042.2,139.634 -2042.2,132.892L-2042.2,108.461C-2042.2,101.72 -2025.68,96.246 -2005.32,96.246L-1709.44,96.246C-1689.08,96.246 -1672.55,101.72 -1672.55,108.461Z" style="fill:rgb(50,48,48);"/>
            </g>
        </g>
    </g>
</svg>
