<svg id="Ebene_1" data-name="Ebene 1" xmlns="http://www.w3.org/2000/svg" width="16" height="16" viewBox="0 0 16 16"><defs><style>.cls-1{fill:#103a5d;}</style></defs><title>github_16</title><path class="cls-1" d="M13.9,6.86a3.53,3.53,0,0,1-2.21,2.57,6.67,6.67,0,0,1-1.54.38l-.25,0A.92.92,0,0,0,10,10a1.87,1.87,0,0,1,.44.93,5.12,5.12,0,0,1,.08.87c0,.76,0,1.51,0,2.27a1.53,1.53,0,0,0,0,.3.44.44,0,0,0,.34.34h.19a8.85,8.85,0,0,1-5.87-.08l.15,0A.47.47,0,0,0,6,14.2c0-.48,0-1,0-1.43a.7.7,0,0,0,0-.16l-.06,0-.1,0a4,4,0,0,1-1.14.05,2.08,2.08,0,0,1-1.64-1,2.48,2.48,0,0,1-.17-.37A2.76,2.76,0,0,0,1.77,9.88L1.66,9.8c-.07-.08-.2-.15-.15-.27s.18-.11.28-.11a1.43,1.43,0,0,1,1,.43,2.81,2.81,0,0,1,.48.6,1.82,1.82,0,0,0,1.37,1,2.3,2.3,0,0,0,1.21-.2A.21.21,0,0,0,6,11a2.16,2.16,0,0,1,.48-1,.64.64,0,0,0,.06-.1l-.25,0A6.88,6.88,0,0,1,5,9.52,3.54,3.54,0,0,1,2.59,6.91a6.54,6.54,0,0,1-.2-1.65,3.71,3.71,0,0,1,.85-2.47.24.24,0,0,0,0-.26A3.55,3.55,0,0,1,3.36.37c.06-.17.11-.22.3-.19a3.58,3.58,0,0,1,.65.14,5.37,5.37,0,0,1,1.45.74.38.38,0,0,0,.36.06A7.46,7.46,0,0,1,7.68.87a8.37,8.37,0,0,1,2.64.24.45.45,0,0,0,.42-.06A5.16,5.16,0,0,1,12.26.29a2.91,2.91,0,0,1,.56-.11c.17,0,.24,0,.28.16a3.43,3.43,0,0,1,.11,2.1.42.42,0,0,0,.09.44,3.41,3.41,0,0,1,.76,1.84A6.42,6.42,0,0,1,13.9,6.86Z"/></svg>