<?xml version="1.0" encoding="UTF-8" standalone="no"?>
<!DOCTYPE svg PUBLIC "-//W3C//DTD SVG 1.1//EN" "http://www.w3.org/Graphics/SVG/1.1/DTD/svg11.dtd">
<svg width="100%" height="100%" viewBox="0 0 192 150" version="1.1" xmlns="http://www.w3.org/2000/svg" xmlns:xlink="http://www.w3.org/1999/xlink" xml:space="preserve" xmlns:serif="http://www.serif.com/" style="fill-rule:evenodd;clip-rule:evenodd;stroke-linecap:round;stroke-linejoin:round;stroke-miterlimit:1.5;">
    <g transform="matrix(0.973783,0,0,0.97943,4.07961,2.75886)">
        <path d="M185.4,24.939L185.4,122.578C185.4,134.512 175.655,144.2 163.653,144.2L24.932,144.2C12.93,144.2 3.185,134.512 3.185,122.578L3.185,24.939C3.185,13.005 12.93,3.317 24.932,3.317L163.653,3.317C175.655,3.317 185.4,13.005 185.4,24.939Z" style="fill:rgb(60,60,60);stroke:rgb(46,161,219);stroke-width:5.12px;"/>
    </g>
    <g transform="matrix(1,0,0,1,3.79129,2.84217e-14)">
        <g transform="matrix(1.47174,0,0,1.47174,-45.2396,-35.3803)">
            <g transform="matrix(1,0,0,1,-203.851,-380.35)">
                <path d="M318.456,421.458C318.904,421.563 319.717,421.832 320.205,422.059C320.712,422.307 321.221,422.494 321.322,422.494C321.424,422.495 321.729,422.68 321.992,422.926C322.255,423.172 322.843,423.624 323.29,423.933C325.115,425.248 326.854,427.5 327.292,429.153C327.471,429.826 327.772,430.5 327.955,430.623C329.374,431.692 329.327,442.693 327.894,443.785C327.71,443.926 327.441,444.556 327.274,445.187C327.107,445.838 326.674,446.711 326.325,447.157C325.976,447.583 325.688,448.009 325.687,448.09C325.685,448.396 324.311,449.875 323.636,450.278C323.248,450.52 322.572,451.025 322.142,451.389C321.528,451.956 321.383,452.22 321.38,452.831C321.374,453.728 321.998,454.974 322.486,455.059C322.69,455.101 323.319,455.451 323.887,455.821C325.247,456.706 327.786,457.984 328.153,457.987C328.315,457.988 328.539,458.111 328.62,458.255C328.7,458.398 329.552,458.973 330.506,459.529C332.739,460.827 334.098,461.854 334.907,462.837C336.666,464.987 337.353,465.928 337.473,466.336C337.553,466.602 337.754,466.949 337.937,467.114C338.666,467.872 339.659,471.993 339.664,474.459C339.674,476.048 339.919,476.009 330.752,475.891L322.847,475.781L321.572,474.449C320.884,473.711 320.216,472.974 320.115,472.81C319.813,472.278 317.682,470.941 314.879,469.518C312.015,468.074 312.117,468.115 311.144,467.335C310.211,466.575 310.296,466.026 311.527,464.648C312.081,464.02 312.554,463.412 312.554,463.289C312.555,463.147 312.741,462.822 312.987,462.559C313.746,461.687 315.172,458.457 315.652,456.483C316.05,454.856 316.137,453.96 316.156,450.884C316.176,447.583 316.118,447.033 315.66,445.278C315.103,443.156 313.959,440.357 313.312,439.559C313.09,439.272 312.625,438.577 312.282,438.024C311.455,436.675 309.35,434.522 308.456,434.13C306.729,433.345 305.836,432.789 305.351,432.175C304.724,431.438 304.705,431.193 305.1,429.932C305.785,427.797 307.265,425.708 309.169,424.212C309.885,423.666 310.541,423.1 310.664,422.979C311.095,422.492 313.382,421.63 314.789,421.435C316.441,421.221 317.235,421.226 318.456,421.458Z" style="fill:rgb(46,161,219);fill-rule:nonzero;"/>
            </g>
            <g transform="matrix(1,0,0,1,-203.851,-380.35)">
                <path d="M285.126,421.272C286.245,421.442 288.949,422.376 289.172,422.663C289.232,422.744 289.719,423.155 290.287,423.566C292.477,425.169 294.316,427.645 294.954,429.89C295.513,431.788 294.938,432.457 291.24,434.207C290.667,434.468 289.274,435.845 287.776,437.588C286.154,439.452 284.396,443.74 283.68,447.525C283.427,448.929 283.514,454.614 283.816,455.166C283.937,455.391 284.176,456.269 284.354,457.125C284.769,459.247 286.701,463.089 288.078,464.564C288.644,465.179 289.109,465.854 289.107,466.099C289.105,466.486 288.53,467.155 287.65,467.822C287.486,467.943 286.035,468.708 284.4,469.513C280.742,471.324 280.108,471.768 278.569,473.531C276.661,475.7 277.211,475.601 268.41,475.526C264.234,475.48 260.608,475.397 260.323,475.313C259.855,475.188 259.815,475.066 259.842,474.047C259.871,472.662 260.42,469.548 260.835,468.349C261.332,466.966 262.24,465.118 262.424,465.119C262.526,465.12 263.059,464.491 263.614,463.741C264.538,462.484 267.059,460.054 267.446,460.057C267.65,460.058 270.881,458.204 271.025,458.001C271.086,457.92 271.699,457.618 272.353,457.337C274.743,456.292 277.729,454.538 278.079,453.929C278.552,453.158 278.54,451.813 278.054,451.382C277.486,450.889 276.533,450.232 275.863,449.861C275.517,449.696 274.951,449.04 274.548,448.345C274.165,447.691 273.64,446.934 273.397,446.647C273.154,446.381 272.892,445.87 272.813,445.523C272.734,445.196 272.634,444.87 272.553,444.808C272.39,444.664 271.627,442.887 271.287,441.846C270.868,440.499 270.971,433.654 271.451,431.823C271.68,431.01 271.97,430.258 272.134,430.116C272.298,429.995 272.422,429.71 272.423,429.506C272.424,429.282 272.486,429.12 272.588,429.12C272.67,429.121 272.856,428.735 273.001,428.247C273.375,427.108 274.627,425.547 276.492,423.888C278.09,422.472 279.357,421.848 281.744,421.313C283.09,421.015 283.457,421.018 285.126,421.272Z" style="fill:rgb(46,161,219);fill-rule:nonzero;"/>
            </g>
            <g transform="matrix(1,0,0,1,-203.851,-380.35)">
                <path d="M302.804,435.419C304.514,435.735 306.199,436.683 307.717,438.22C309.135,439.635 310.064,440.883 310.324,441.72C310.404,441.965 310.586,442.252 310.748,442.395C311.011,442.621 311.232,443.213 312.15,446.275C312.33,446.887 312.591,447.459 312.713,447.542C312.997,447.706 312.98,453.798 312.693,453.98C312.448,454.121 312.385,454.344 311.781,456.623C311.239,458.595 309.363,462.088 308.504,462.674C308.279,462.835 308.073,463.099 308.072,463.262C308.071,463.425 307.682,463.769 307.191,464.051C305.74,464.898 305.103,465.688 305.097,466.666C305.093,467.257 305.233,467.727 305.557,468.136C306.163,468.894 307.907,470.167 308.843,470.479C309.229,470.624 310.326,471.14 311.28,471.655C312.235,472.15 313.413,472.748 313.9,472.996C314.408,473.243 314.996,473.614 315.219,473.839C315.462,474.065 315.929,474.414 316.294,474.64C316.639,474.867 316.983,475.174 317.044,475.338C317.104,475.501 317.286,475.645 317.449,475.646C317.633,475.647 318.261,476.16 318.889,476.775C320.043,477.944 321.373,480.315 321.811,481.948C321.93,482.438 322.212,483.01 322.435,483.235C322.759,483.563 322.878,484.094 323.03,485.725C323.356,489.149 323.272,489.434 321.927,489.589C321.437,489.647 311.129,489.603 299.007,489.529C277.167,489.353 276.943,489.352 276.538,488.942C276.073,488.45 276.034,488.083 276.354,485.783C276.59,483.889 277.152,481.917 277.417,481.918C277.519,481.919 277.601,481.777 277.602,481.614C277.606,481.043 279.048,478.444 280.013,477.289C280.546,476.661 281.755,475.568 282.717,474.861C283.679,474.154 284.518,473.507 284.58,473.426C284.641,473.324 285.05,473.082 285.5,472.861C285.95,472.64 287.094,472.056 288.055,471.553C289.015,471.049 290.16,470.527 290.609,470.387C291.058,470.247 291.691,469.925 292.039,469.682C292.367,469.44 292.817,469.178 293,469.118C293.572,468.918 294.458,467.354 294.483,466.519C294.509,465.664 293.741,464.661 292.745,464.227C292.217,463.979 291.954,463.672 290.055,461.072C289.045,459.701 288.221,457.862 288.025,456.537C287.947,456.068 287.827,455.7 287.745,455.7C287.664,455.699 287.423,455.127 287.223,454.413C286.705,452.617 286.711,448.257 287.25,446.875C287.457,446.347 287.724,445.92 287.826,445.921C287.928,445.922 288.01,445.739 288.012,445.515C288.016,444.842 288.948,442.403 289.544,441.531C289.832,441.105 290.305,440.415 290.593,439.989C290.86,439.583 291.312,439.036 291.578,438.773C291.845,438.509 292.111,438.205 292.153,438.083C292.318,437.677 294.425,436.345 295.651,435.844C296.733,435.422 297.324,435.324 299.382,435.276C300.727,435.264 302.275,435.314 302.804,435.419Z" style="fill:white;fill-rule:nonzero;"/>
            </g>
        </g>
        <g transform="matrix(-0.614456,0,0,0.614456,82.0585,28.2401)">
            <g transform="matrix(0.690397,0,0,0.690397,-21.7765,-19.3518)">
                <g transform="matrix(0.823998,0,0,0.823998,89.1432,138.007)">
                    <path d="M0,-30.416L-26.844,0.302L-28.956,-30.718L0,-30.416Z" style="fill:white;fill-rule:nonzero;"/>
                </g>
                <g transform="matrix(0.823998,0,0,0.823998,155.265,56.1607)">
                    <path d="M0,60.842C0.008,66.172 -4.307,70.501 -9.638,70.508L-109.606,70.652C-114.937,70.66 -119.265,66.345 -119.272,61.014L-119.36,0C-119.367,-5.331 -115.052,-9.659 -109.722,-9.667L-9.754,-9.811C-4.423,-9.818 -0.095,-5.503 -0.087,-0.173L0,60.842Z" style="fill:white;fill-rule:nonzero;"/>
                </g>
            </g>
            <g transform="matrix(1,0,0,1,-101.178,18.2394)">
                <g transform="matrix(1,0,0,1,49.4015,0)">
                    <circle cx="120.235" cy="18.488" r="4.648" style="fill:rgb(46,161,219);"/>
                </g>
                <g transform="matrix(1,0,0,1,32.3714,0)">
                    <circle cx="120.235" cy="18.488" r="4.648" style="fill:rgb(46,161,219);"/>
                </g>
                <g transform="matrix(1,0,0,1,15.4191,0)">
                    <circle cx="120.235" cy="18.488" r="4.648" style="fill:rgb(46,161,219);"/>
                </g>
            </g>
        </g>
    </g>
</svg>
