<?xml version="1.0" encoding="UTF-8" standalone="no"?>
<!DOCTYPE svg PUBLIC "-//W3C//DTD SVG 1.1//EN" "http://www.w3.org/Graphics/SVG/1.1/DTD/svg11.dtd">
<svg width="100%" height="100%" viewBox="0 0 192 150" version="1.1" xmlns="http://www.w3.org/2000/svg" xmlns:xlink="http://www.w3.org/1999/xlink" xml:space="preserve" xmlns:serif="http://www.serif.com/" style="fill-rule:evenodd;clip-rule:evenodd;stroke-linecap:round;stroke-linejoin:round;stroke-miterlimit:1.5;">
    <g transform="matrix(0.973783,0,0,0.97943,4.07961,2.75886)">
        <path d="M185.4,24.939L185.4,122.578C185.4,134.512 175.655,144.2 163.653,144.2L24.932,144.2C12.93,144.2 3.185,134.512 3.185,122.578L3.185,24.939C3.185,13.005 12.93,3.317 24.932,3.317L163.653,3.317C175.655,3.317 185.4,13.005 185.4,24.939Z" style="fill:rgb(60,60,60);stroke:rgb(46,161,219);stroke-width:5.12px;"/>
    </g>
    <g transform="matrix(1.01227,0,0,1.01227,-1.28693,-0.733567)">
        <g transform="matrix(1.15174,0,0,1.15174,-14.5517,-12.7525)">
            <g transform="matrix(2.18901,0,0,2.18901,-290.711,-757.782)">
                <path d="M202.335,398.771L150.893,398.771L161.143,362.103L192.077,362.103L202.335,398.771Z" style="fill:rgb(216,220,223);fill-rule:nonzero;"/>
            </g>
            <g transform="matrix(2.18901,0,0,2.18901,-290.711,-757.782)">
                <path d="M199.62,398.771L196.913,398.771L188.809,362.103L190.393,362.103L199.62,398.771Z" style="fill:white;fill-rule:nonzero;"/>
            </g>
            <g transform="matrix(2.18901,0,0,2.18901,-290.711,-757.782)">
                <path d="M164.403,362.103L156.299,398.771L153.583,398.771L162.811,362.103L164.403,362.103Z" style="fill:white;fill-rule:nonzero;"/>
            </g>
            <g transform="matrix(2.18901,0,0,2.18901,-290.711,-757.782)">
                <path d="M177.683,367.572L175.537,367.572L175.603,362.103L177.616,362.103L177.683,367.572Z" style="fill:white;fill-rule:nonzero;"/>
            </g>
            <g transform="matrix(2.18901,0,0,2.18901,-290.711,-757.782)">
                <path d="M177.832,379.252L175.388,379.252L175.52,368.761L177.7,368.761L177.832,379.252Z" style="fill:white;fill-rule:nonzero;"/>
            </g>
            <g transform="matrix(2.18901,0,0,2.18901,-290.711,-757.782)">
                <path d="M178.021,394.107L175.206,394.107L175.372,380.44L177.848,380.44L178.021,394.107Z" style="fill:white;fill-rule:nonzero;"/>
            </g>
            <g transform="matrix(2.18901,0,0,2.18901,-290.711,-757.782)">
                <path d="M178.08,398.771L175.148,398.771L175.19,395.296L178.038,395.296L178.08,398.771Z" style="fill:white;fill-rule:nonzero;"/>
            </g>
        </g>
        <g transform="matrix(0.111267,0,0,0.111267,83.7447,-17.4026)">
            <g>
                <path d="M291.542,561C291.542,412.183 412.183,291.542 561,291.542C709.817,291.542 830.458,412.183 830.458,561C830.458,709.817 709.817,830.458 561,830.458C412.183,830.458 291.542,709.817 291.542,561Z" style="fill:rgb(46,161,219);fill-rule:nonzero;"/>
                <g transform="matrix(1.21862,0,0,1.21862,-139.651,-122.644)">
                    <rect x="426.979" y="508.536" width="160.058" height="37.877" style="fill:rgb(60,60,60);fill-rule:nonzero;"/>
                </g>
                <g transform="matrix(1.21862,0,0,1.21862,-139.651,-122.644)">
                    <rect x="426.979" y="575.587" width="160.058" height="37.877" style="fill:rgb(60,60,60);fill-rule:nonzero;"/>
                </g>
                <g transform="matrix(1.21862,0,0,1.21862,-139.651,-122.644)">
                    <path d="M636.383,662.264C625.899,667.364 613.164,669.914 598.174,669.914C569.165,669.914 547.248,661.85 527.261,640.557C507.271,619.266 497.278,593.129 497.278,562.148C497.278,530.785 507.271,504.267 527.261,482.59C547.126,460.79 568.983,452.469 597.991,452.469C609.583,452.469 621.009,454.583 632.269,458.77L649.323,421.357C632.148,414.064 618.952,410.396 600.915,410.396C554.479,410.396 519.216,425.858 489.966,461.936C466.2,491.388 454.316,524.921 454.316,562.531C454.316,604.478 468.514,640.303 496.914,670.008C525.434,699.46 557.283,711.604 597.625,711.604C616.961,711.604 635.66,707.838 653.73,700.345L644.696,658.11C641.879,659.687 639.106,661.077 636.383,662.264Z" style="fill:rgb(60,60,60);fill-rule:nonzero;"/>
                </g>
            </g>
        </g>
        <g transform="matrix(1.04256,0,0,1.04256,107.806,49.0176)">
            <g>
                <g transform="matrix(1.81637,0,0,1.81637,-340.865,-664.569)">
                    <path d="M169.008,395.296C169.008,403.094 162.686,409.417 154.887,409.417C147.088,409.417 140.766,403.094 140.766,395.296C140.766,387.496 147.088,381.174 154.887,381.174C162.686,381.174 169.008,387.496 169.008,395.296Z" style="fill:white;fill-rule:nonzero;"/>
                </g>
                <g transform="matrix(1.81483,0,0,1.81483,-340.518,-664.071)">
                    <path d="M147.987,400.278C147.609,400.49 147.134,400.358 146.917,399.979C146.706,399.602 146.839,399.126 147.216,398.913L154.94,394.572C155.317,394.358 155.797,394.493 156.009,394.872C156.223,395.247 156.09,395.727 155.71,395.938L147.987,400.278Z" style="fill:rgb(81,73,85);fill-rule:nonzero;"/>
                </g>
                <g transform="matrix(1.81483,0,0,1.81483,-340.518,-664.071)">
                    <path d="M155.719,394.636C156.091,394.852 156.223,395.329 156.007,395.703C155.791,396.08 155.31,396.208 154.932,395.993L150.521,393.444C150.148,393.228 150.023,392.748 150.233,392.376C150.454,392.001 150.929,391.869 151.306,392.088L155.719,394.636Z" style="fill:rgb(81,73,85);fill-rule:nonzero;"/>
                </g>
                <g transform="matrix(1.81483,0,0,1.81483,-340.518,-664.071)">
                    <path d="M161.875,401.892L161.485,402.26L155.488,395.887L155.302,395.917C154.961,395.917 154.679,395.636 154.679,395.296C154.679,394.956 154.961,394.677 155.302,394.677C155.646,394.677 155.921,394.956 155.921,395.296L155.879,395.517L161.875,401.892Z" style="fill:rgb(83,186,195);fill-rule:nonzero;"/>
                </g>
                <g transform="matrix(1.81483,0,0,1.81483,-340.518,-664.071)">
                    <path d="M146.382,408.667C145.746,408.261 145.139,407.811 144.569,407.321C144.65,407.389 144.731,407.457 144.814,407.523C145.004,407.684 145.205,407.844 145.415,407.994C145.728,408.231 146.051,408.455 146.382,408.667ZM164.924,407.558C164.937,407.546 164.951,407.535 164.964,407.523C164.972,407.517 164.979,407.511 164.987,407.505C164.965,407.523 164.945,407.54 164.924,407.558ZM168.687,403.088C169.439,401.758 170.004,400.308 170.344,398.773L170.35,398.773C170.006,400.308 169.44,401.757 168.687,403.088Z" style="fill:rgb(184,87,77);fill-rule:nonzero;"/>
                </g>
            </g>
            <g transform="matrix(1.81483,0,0,1.81483,-340.518,-664.071)">
                <path d="M170.733,395.296C170.733,404.047 163.636,411.143 154.887,411.143C146.139,411.143 139.041,404.047 139.041,395.296C139.041,386.547 146.139,379.449 154.887,379.449C159.055,379.449 162.844,381.059 165.674,383.693L166.747,382.62L167.152,388.346L161.424,387.942L162.562,386.805C160.532,384.964 157.842,383.851 154.887,383.851C148.565,383.851 143.432,388.974 143.432,395.296C143.432,401.618 148.565,406.743 154.887,406.743C161.209,406.743 166.342,401.618 166.342,395.296L170.733,395.296Z" style="fill:rgb(255,74,81);fill-rule:nonzero;"/>
            </g>
            <g transform="matrix(1.81483,0,0,1.81483,-340.518,-664.071)">
                <path d="M154.887,411.143C154.802,411.143 154.716,411.142 154.631,411.141C151.599,411.093 148.773,410.192 146.382,408.667C146.051,408.455 145.728,408.231 145.415,407.994C145.205,407.844 145.004,407.684 144.814,407.523C144.731,407.457 144.65,407.389 144.569,407.321C141.185,404.414 139.041,400.105 139.041,395.296C139.041,386.547 146.139,379.449 154.887,379.449C155.355,379.449 155.819,379.47 156.277,379.509C156.982,379.571 157.674,379.678 158.35,379.829C159.036,379.982 159.705,380.18 160.355,380.419C162.295,381.133 164.058,382.217 165.558,383.586C165.597,383.622 165.636,383.657 165.674,383.693L166.747,382.62L167.147,388.284L167.149,388.3C164.721,384.052 160.142,381.183 154.887,381.183C147.088,381.183 140.766,387.505 140.766,395.296C140.766,403.096 147.088,409.417 154.887,409.417C162.686,409.417 169.008,403.096 169.008,395.296L170.733,395.296C170.733,396.49 170.601,397.654 170.35,398.773L170.344,398.773C170.004,400.308 169.439,401.758 168.687,403.088C167.731,404.777 166.472,406.275 164.987,407.505C164.979,407.511 164.972,407.517 164.964,407.523C164.951,407.535 164.937,407.546 164.924,407.558C162.252,409.747 158.851,411.082 155.143,411.141C155.058,411.142 154.973,411.143 154.887,411.143Z" style="fill:rgb(255,74,81);fill-rule:nonzero;"/>
            </g>
        </g>
    </g>
</svg>
