<?xml version="1.0" encoding="UTF-8" standalone="no"?>
<!DOCTYPE svg PUBLIC "-//W3C//DTD SVG 1.1//EN" "http://www.w3.org/Graphics/SVG/1.1/DTD/svg11.dtd">
<svg width="100%" height="100%" viewBox="0 0 192 150" version="1.1" xmlns="http://www.w3.org/2000/svg" xmlns:xlink="http://www.w3.org/1999/xlink" xml:space="preserve" xmlns:serif="http://www.serif.com/" style="fill-rule:evenodd;clip-rule:evenodd;stroke-linecap:round;stroke-linejoin:round;stroke-miterlimit:1.5;">
    <g transform="matrix(0.973783,0,0,0.97943,4.07961,2.75886)">
        <path d="M185.4,24.939L185.4,122.578C185.4,134.512 175.655,144.2 163.653,144.2L24.932,144.2C12.93,144.2 3.185,134.512 3.185,122.578L3.185,24.939C3.185,13.005 12.93,3.317 24.932,3.317L163.653,3.317C175.655,3.317 185.4,13.005 185.4,24.939Z" style="fill:rgb(60,60,60);stroke:rgb(46,161,219);stroke-width:5.12px;"/>
    </g>
    <g transform="matrix(1,0,0,1,-3.73262,0.949546)">
        <g transform="matrix(1.12697,-0.519084,0.475076,1.03142,-7.0819,61.8869)">
            <rect x="106.888" y="32.398" width="23.124" height="31.001" style="fill:white;"/>
        </g>
        <g transform="matrix(1.62957,-0.766947,0.766947,1.62957,-115.945,41.6324)">
            <path d="M139,54.14L123.53,54.14C121.758,54.14 120.3,55.598 120.3,57.37L120.3,62.72L106.47,62.72C106.297,62.719 106.131,62.787 106.01,62.91L102.82,66.16C102.739,66.241 102.693,66.351 102.693,66.465C102.693,66.579 102.739,66.689 102.82,66.77L106,70C106.121,70.123 106.287,70.191 106.46,70.19L108.07,70.19C108.272,70.191 108.466,70.112 108.61,69.97L110.34,68.23C110.453,68.129 110.627,68.129 110.74,68.23L112.31,69.8C112.696,70.179 113.324,70.179 113.71,69.8L115.26,68.24C115.371,68.134 115.549,68.134 115.66,68.24L117.4,70C117.545,70.139 117.739,70.218 117.94,70.22L120.29,70.22L120.29,75.58C120.29,77.352 121.748,78.81 123.52,78.81L139,78.81C140.772,78.81 142.23,77.352 142.23,75.58L142.23,57.37C142.23,55.598 140.772,54.14 139,54.14ZM129,60.35C129.586,59.765 130.382,59.436 131.21,59.436C132.927,59.436 134.34,60.849 134.34,62.566C134.34,64.284 132.927,65.696 131.21,65.696C129.494,65.696 128.082,64.286 128.08,62.57C128.081,61.738 128.412,60.939 129,60.35ZM136.56,72.7L125.82,72.7L125.82,69.95C125.82,69.94 125.82,69.93 125.82,69.92C125.82,68.532 126.952,67.386 128.34,67.37L134,67.37C135.404,67.37 136.56,68.526 136.56,69.93L136.56,72.7Z" style="fill:rgb(46,161,219);fill-rule:nonzero;"/>
        </g>
        <g transform="matrix(0.680692,0,0,0.680692,64.9269,56.7715)">
            <circle cx="69.46" cy="81.267" r="19.55" style="fill:rgb(46,161,219);"/>
        </g>
        <g transform="matrix(0.501411,0,0,0.501411,19.5023,71.3412)">
            <circle cx="69.46" cy="81.267" r="19.55" style="fill:rgb(46,161,219);"/>
        </g>
        <g transform="matrix(0.501411,0,0,0.501411,-0.103274,19.0207)">
            <circle cx="69.46" cy="81.267" r="19.55" style="fill:rgb(46,161,219);"/>
        </g>
        <g transform="matrix(0.680692,0,0,0.680692,28.1599,-15.6595)">
            <circle cx="69.46" cy="81.267" r="19.55" style="fill:rgb(46,161,219);"/>
        </g>
        <g transform="matrix(0.997376,-0.0723912,0.0723912,0.997376,-41.158,21.9144)">
            <rect x="112.208" y="27.35" width="5.691" height="51.59" style="fill:rgb(46,161,219);"/>
        </g>
        <g transform="matrix(0.820805,0.571209,-0.571209,0.820805,0.996998,-11.5435)">
            <rect x="112.208" y="27.35" width="5.691" height="51.59" style="fill:rgb(46,161,219);"/>
        </g>
        <g transform="matrix(-0.488417,0.87261,-0.87261,-0.488417,158.02,-3.2862)">
            <rect x="112.208" y="27.35" width="5.691" height="51.59" style="fill:rgb(46,161,219);"/>
        </g>
        <g transform="matrix(-0.692983,0.720954,-0.720954,-0.692983,213.945,51.6785)">
            <rect x="112.208" y="27.35" width="5.691" height="51.59" style="fill:rgb(46,161,219);"/>
        </g>
        <g transform="matrix(1,0,0,1,9.88961,0.73314)">
            <circle cx="69.46" cy="81.267" r="19.55" style="fill:white;"/>
        </g>
    </g>
</svg>
