<?xml version="1.0" encoding="UTF-8" standalone="no"?>
<!DOCTYPE svg PUBLIC "-//W3C//DTD SVG 1.1//EN" "http://www.w3.org/Graphics/SVG/1.1/DTD/svg11.dtd">
<svg width="100%" height="100%" viewBox="0 0 192 150" version="1.1" xmlns="http://www.w3.org/2000/svg" xmlns:xlink="http://www.w3.org/1999/xlink" xml:space="preserve" xmlns:serif="http://www.serif.com/" style="fill-rule:evenodd;clip-rule:evenodd;stroke-linecap:round;stroke-linejoin:round;stroke-miterlimit:1.5;">
    <g transform="matrix(0.973783,0,0,0.97943,4.07961,2.75886)">
        <path d="M185.4,24.939L185.4,122.578C185.4,134.512 175.655,144.2 163.653,144.2L24.932,144.2C12.93,144.2 3.185,134.512 3.185,122.578L3.185,24.939C3.185,13.005 12.93,3.317 24.932,3.317L163.653,3.317C175.655,3.317 185.4,13.005 185.4,24.939Z" style="fill:rgb(60,60,60);stroke:rgb(46,161,219);stroke-width:5.12px;"/>
    </g>
    <g transform="matrix(1.77372,0,0,1.77372,-582.221,-417.102)">
        <path d="M413.369,277.44C413.369,294.591 399.466,308.494 382.315,308.494C365.164,308.494 351.26,294.591 351.26,277.44C351.26,260.289 365.164,246.386 382.315,246.386C399.466,246.386 413.369,260.289 413.369,277.44Z" style="fill:rgb(46,161,219);fill-rule:nonzero;"/>
        <path d="M371.965,252.243C371.966,252.163 372.242,251.771 372.334,251.885C372.387,251.951 372.404,252.065 372.419,252.157L372.455,252.317L372.489,252.324L372.538,252.301C372.638,252.257 372.84,252.333 372.835,252.171C372.827,251.844 372.827,251.844 372.862,251.804C373.046,251.598 373.046,251.598 373.044,251.581C372.977,251.544 372.877,251.586 372.835,251.482C372.859,251.439 372.906,251.418 373.048,251.386C373.15,251.362 373.156,251.361 373.166,251.34C373.107,251.278 373.001,251.303 372.959,251.208L373.144,250.961L373.203,251.002L373.308,251.257L373.47,251.426L373.397,251.602L373.197,251.689C373.106,251.719 373.106,251.721 373.095,251.746C373.262,251.873 373.395,251.856 373.491,251.693C373.581,251.538 373.705,251.325 373.774,251.415C373.894,251.57 373.766,251.804 373.594,251.833L373.455,251.841L373.458,251.852L373.612,251.93L373.357,252.118C373.224,252.194 373.197,252.208 373.229,252.305C373.229,252.305 373.243,252.341 373.349,252.276C373.382,252.257 373.48,252.196 373.595,252.184C373.696,252.172 373.749,252.196 373.763,252.209L373.752,252.344L373.859,252.37L373.902,252.411C373.893,252.47 373.721,252.803 373.474,252.584C373.346,252.47 373.289,252.493 373.193,252.565C373.078,252.657 373.004,252.814 372.843,252.836C372.797,252.842 372.797,252.842 372.527,252.658C372.365,252.547 372.365,252.56 372.345,252.68C372.298,252.99 372.381,253 372.478,253.013L372.528,253.026L372.53,253.04C372.341,253.214 372.126,253.078 372.117,252.936L372.226,252.734C372.306,252.638 372.311,252.632 372.194,252.601L372.028,252.582L371.996,252.572C371.984,252.553 371.962,252.46 371.965,252.243ZM372.068,251.321C372.062,251.292 372.28,251.115 372.398,251.101L372.358,251.207L372.265,251.26C372.154,251.364 372.072,251.331 372.068,251.321ZM371.419,252.1L371.435,252.063L371.713,251.663L371.788,251.626C371.931,251.639 371.933,251.643 372.009,251.806L371.997,251.872L371.924,252.043L371.695,252.273L371.646,252.268L371.593,252.171L371.534,252.144L371.439,252.129L371.419,252.1ZM401.707,255.472L401.749,255.286L401.874,255.301L401.777,255.136L401.665,254.977L401.738,254.882C401.829,254.819 401.806,254.781 401.74,254.679C401.557,254.391 401.561,254.385 401.618,254.321L401.624,254.113C401.34,253.659 401.34,253.659 401.361,253.551L401.384,253.542L401.576,253.681L401.536,253.702L401.53,253.723L401.585,253.799C401.693,253.939 401.854,254.019 401.957,254.167L402.035,254.45L402.174,254.469C402.174,254.469 402.336,254.472 402.356,254.789C402.377,255.088 402.708,255.244 402.711,255.246L402.646,255.06C402.695,255.077 403.022,255.421 402.783,255.548L402.703,255.57C402.935,255.701 402.935,255.701 402.956,255.728L402.945,255.857C402.911,255.869 402.885,255.851 402.748,255.716C402.612,255.583 402.599,255.569 402.528,255.58L402.581,255.832C402.628,255.9 402.686,255.931 402.805,255.979C402.928,256.031 403.193,256.274 403.195,256.276L403.144,256.285C403.123,256.387 403.123,256.387 402.987,256.457L402.98,256.482C403.068,256.647 403.16,256.693 403.3,256.762C403.284,257.141 403.011,256.843 403.007,256.839C402.9,256.712 402.88,256.524 402.751,256.413L402.74,256.426C402.749,256.541 402.811,256.638 402.827,256.749C402.803,256.75 402.783,256.75 402.619,256.447C402.358,255.96 402.358,255.96 402.319,255.941C402.115,255.834 401.952,255.751 401.732,255.499L401.707,255.472ZM364.485,255.086C364.502,254.961 364.938,254.481 365.003,254.481C365.028,254.587 364.988,254.689 364.99,254.793L365.001,254.796C365.076,254.672 365.082,254.514 365.168,254.394L365.411,254.227C365.494,254.262 365.562,254.45 365.651,254.355C365.695,254.308 365.658,254.078 365.525,254.104L365.382,254.141L365.376,254.127L365.385,254.106C365.432,254.004 365.506,253.921 365.553,253.818L365.571,253.703C365.575,253.697 366.13,253.111 366.243,253.083L366.273,253.092L366.419,253.263L366.36,253.414C366.323,253.544 366.381,253.69 366.303,253.812C366.175,254.009 365.961,254.098 365.811,254.267C365.828,254.271 365.837,254.271 365.959,254.201C366.175,254.076 366.191,254.092 366.208,254.112C366.195,254.24 365.822,254.635 365.712,254.603L365.699,254.362L365.687,254.36C365.458,254.606 365.512,254.645 365.645,254.739L364.639,255.649L364.21,255.83C364.221,255.783 364.24,255.706 364.532,255.189L364.485,255.086ZM373.97,252.13L373.97,252.116L374.055,252.051C374.231,251.928 374.338,251.85 374.357,251.811L374.31,251.73L374.237,251.614L374.264,251.603L374.275,251.603L374.448,251.65L374.441,251.77L374.579,251.808L374.624,251.909C374.675,251.999 374.743,251.961 374.873,251.771L374.977,251.677L374.986,251.677C375.146,251.67 375.304,251.615 375.465,251.657L375.524,251.734L375.61,251.949C375.439,252.117 375.212,252.051 375.016,252.112L374.979,252.181C375.022,252.401 374.995,252.421 374.865,252.517C374.632,252.685 374.451,252.797 374.435,252.803C374.367,252.832 374.194,252.738 374.05,252.63C374.439,252.538 374.496,252.491 374.533,252.46L374.52,252.433L374.418,252.343L374.34,252.207C374.218,252.134 374.184,252.134 374.089,252.138L373.97,252.13ZM378.86,252.257L378.972,252.14L378.993,252.134C379.153,252.094 379.309,252.176 379.47,252.154C379.684,252.125 379.834,251.961 380.019,251.865C380.122,251.812 380.269,251.746 380.326,251.797L380.409,252L380.545,251.959C380.62,251.889 380.588,251.715 380.724,251.715C380.901,251.738 380.901,251.738 380.972,251.727C381.102,251.706 381.15,251.708 381.187,251.763C381.189,251.768 381.26,252.214 381.115,252.313C380.956,252.422 380.711,252.298 380.599,252.532C380.792,252.823 380.792,252.823 380.834,253.027C380.976,252.819 381.098,252.599 381.24,252.392C381.352,252.227 381.399,252.183 381.417,252.173L381.498,252.183L381.793,252.591L381.793,252.613C382.324,252.344 382.392,252.31 382.732,252.385C382.923,252.428 382.855,252.685 382.796,252.834C382.753,252.948 382.665,253.032 382.623,253.146C382.586,253.247 382.58,253.319 382.6,253.367C382.683,253.387 382.82,253.244 382.845,253.365C382.836,253.379 382.836,253.379 382.701,253.469C382.661,253.692 382.584,253.939 382.507,253.984L382.405,253.681C382.32,253.777 382.324,253.971 382.15,253.965C381.929,253.954 381.857,253.613 381.601,253.682C381.581,253.719 381.528,253.831 381.971,254.041C382.153,254.127 382.047,254.303 382.045,254.305C381.965,254.427 381.814,254.308 381.728,254.414C381.767,254.642 382.026,254.588 382.11,254.759C382.064,254.902 381.414,255.51 381.408,255.513C381.288,255.585 381.177,255.475 381.125,255.344C380.923,254.834 380.917,254.249 380.6,253.783C380.57,253.934 380.491,254.067 380.462,254.217L380.289,254.271C380.281,254.303 380.275,254.331 380.391,254.526C380.522,254.748 380.427,254.815 380.324,254.832C380.238,254.845 380.138,254.807 379.972,254.74L379.823,254.698L379.805,254.716C379.847,254.862 379.972,254.967 379.978,255.13L379.958,255.144C379.689,255.047 379.348,254.432 379.505,254.331C379.621,254.259 379.771,254.334 379.879,254.232L379.911,253.948C380.055,253.803 380.104,253.577 380.264,253.441C380.397,253.33 380.595,253.323 380.681,253.137C380.606,252.901 380.207,252.957 380.076,252.975C379.515,253.053 379.515,253.053 379.085,252.309C378.923,252.307 378.897,252.29 378.86,252.257ZM403.108,255.433C403.028,255.314 403.036,255.246 403.041,255.234L403.052,255.234C403.074,255.246 403.228,255.37 403.299,255.486C403.359,255.585 403.447,255.803 403.425,255.844L403.392,255.818L403.108,255.433ZM363.149,256.595C363.145,256.572 363.138,256.533 363.604,255.91C363.82,255.617 364.009,255.364 364.075,255.35L364.084,255.352L364.086,255.39L364.067,255.591L364.113,255.719L364.109,255.772C364.105,255.797 364.105,255.797 363.994,255.924L363.966,256.016L364.005,256.162C364.041,256.232 364.099,256.348 364.017,256.49C364.013,256.495 363.673,257.024 363.507,256.801L363.409,256.737C363.318,256.8 363.161,256.671 363.149,256.595ZM404.431,257.646C404.298,257.403 404.177,257.044 404.172,257.001L404.177,256.886C404.201,256.784 404.292,256.716 404.291,256.603L404.26,256.425L404.305,256.413L404.35,256.438C404.575,256.612 404.604,256.694 404.626,256.761L404.635,256.857L404.609,256.952L404.613,257.012L404.563,257.059C404.577,257.128 404.713,257.258 404.828,257.335C404.854,257.352 404.919,257.395 404.91,257.501L404.808,257.556C404.736,257.508 404.7,257.408 404.608,257.386L404.546,257.483L404.589,257.599L404.635,257.712L404.545,257.785C404.529,257.791 404.514,257.796 404.431,257.646ZM403.665,257.206L403.539,256.761C403.547,256.65 403.69,256.669 403.706,256.671L403.77,256.692L403.838,256.761L403.856,256.794C403.906,256.905 403.904,257.033 403.949,257.146C403.989,257.246 404.095,257.289 404.134,257.393L404.094,257.578L404.023,257.554L403.91,257.438L403.754,257.309L403.73,257.285L403.665,257.206ZM405.634,257.956L405.474,257.507L405.497,257.521L405.64,257.706L405.706,257.775L406.02,258.098L405.993,258.141L405.959,258.132L405.868,258.089L405.861,258.085L405.732,258.05L405.634,257.956ZM405.74,258.248L405.746,258.149L405.795,258.169C405.868,258.215 406.039,258.366 406.157,258.514L406.2,258.559L406.207,258.547L406.244,258.544L406.376,258.633L406.413,258.663L406.491,258.731L406.365,258.715L406.424,258.925L406.319,258.991L406.263,258.921C406.146,258.77 406.052,258.598 405.934,258.447L405.74,258.248ZM405.479,258.831L405.436,258.689C405.407,258.512 405.394,258.332 405.369,258.154L405.378,258.167C405.405,258.212 405.77,258.968 405.582,258.922L405.479,258.831ZM403.813,257.787C403.811,257.784 403.678,257.535 403.843,257.576L403.884,257.59L403.943,257.603L404.034,257.684L404.14,257.822L404.08,257.891L403.982,257.897L403.914,257.852L403.856,257.833L403.813,257.787ZM406.781,259.236L406.639,258.923L406.647,258.927C407.105,259.543 407.594,260.13 408.027,260.766C408.072,260.831 408.221,261.138 408.246,261.264L408.237,261.274C408.14,261.216 408.087,261.111 408.01,261.031L408.017,261.043C408.109,261.223 408.119,261.261 408.127,261.292C408.087,261.271 408.084,261.268 407.921,260.965C407.724,260.598 407.481,260.216 407.453,260.188C407.473,260.322 407.597,260.419 407.573,260.569C407.527,260.539 407.366,260.274 407.299,260.16C407.208,260.007 407.154,259.833 407.063,259.681C406.991,259.561 406.902,259.457 406.835,259.335L406.781,259.236ZM403.371,257.78C403.3,257.625 403.329,257.491 403.364,257.498L403.366,257.499L403.388,257.533L403.455,257.666L403.611,257.922L403.618,257.931L403.626,258.029L403.371,257.78ZM369.187,256.43C369.21,256.345 369.21,256.345 369.331,256.341C369.652,256.397 369.947,256.533 370.063,256.63C370.104,256.666 370.199,256.748 370.558,256.807C370.713,256.833 371.851,257.554 371.852,257.559C371.919,257.779 371.72,257.97 371.796,258.192C371.804,258.215 371.977,258.404 372.146,258.425C372.175,258.554 371.966,258.813 371.964,258.815L371.892,258.943L372.074,259.08L372.156,259.132L372.183,259.181C372.265,259.352 372.134,259.555 372.252,259.722C372.342,259.848 372.524,259.852 372.585,260.016L372.554,260.06C372.387,260.257 372.111,260.285 371.96,260.504C371.837,260.679 371.885,260.952 371.677,261.078C371.653,261.093 371.115,261.412 370.848,261.069C370.98,260.63 371.575,260.632 371.63,260.117C371.639,260.039 371.661,259.83 371.594,259.602L371.478,259.24C371.424,259.106 371.305,259.024 371.247,258.891C371.184,258.746 371.212,258.574 371.13,258.434C371.002,258.21 370.947,258.173 370.413,257.798C370.02,257.521 369.285,257.007 369.152,256.86C369.134,256.839 369.089,256.788 369.187,256.43ZM405.02,259.554C404.968,259.426 404.854,259.024 404.884,258.923C404.906,258.921 404.933,258.917 405.044,259.059L405.146,259.16C405.205,259.085 405.095,258.847 405.198,258.904C405.307,258.986 405.358,259.237 405.383,259.37C405.413,259.52 405.42,259.541 405.504,259.581C405.573,259.615 405.684,259.649 405.662,259.507C405.645,259.409 405.598,259.318 405.599,259.216L405.612,259.212C405.667,259.249 405.861,259.517 405.833,259.725L405.686,259.675C405.665,259.688 405.689,259.735 405.749,259.86C405.849,260.064 405.865,260.095 405.859,260.129C405.734,260.097 405.712,259.927 405.59,259.891C405.499,259.966 405.634,260.179 405.677,260.25C406.018,260.787 405.691,260.62 405.688,260.619C405.556,260.541 405.167,259.899 405.02,259.554ZM406.294,260.396L406.155,259.871L406.168,259.869C406.281,259.951 406.302,260.123 406.43,260.194C406.43,260.192 406.471,259.929 406.357,259.748C406.246,259.574 406.207,259.46 406.239,259.405L406.263,259.412C406.292,259.439 406.452,259.585 406.559,259.794L406.603,259.895C406.639,259.998 406.62,260.115 406.674,260.212C406.776,260.399 406.776,260.399 406.772,260.408L406.715,260.419L406.95,260.847L406.963,260.843L407.058,260.632L407.006,260.44C406.983,260.345 406.984,260.319 406.986,260.283L407.028,260.017L407.08,260.054L407.089,260.067L407.345,260.43L407.53,260.655L407.533,260.909L407.52,260.951C407.609,261.137 407.812,261.218 407.891,261.412L407.876,261.5L407.734,261.516C407.607,261.404 407.554,261.229 407.435,261.111L407.426,261.155L407.184,261.121L407.226,261.185L407.422,261.341C407.52,261.449 407.596,261.58 407.691,261.692C407.945,261.995 407.793,261.968 407.716,261.942C407.549,261.886 407.529,261.869 407.235,261.419C407.072,261.171 406.991,261.046 406.941,261.033C406.928,261.056 406.928,261.056 406.928,261.18L406.915,261.189C406.764,261.076 406.764,261.076 406.728,261.076L406.715,261.121L406.294,260.396ZM356.913,262.098C356.988,261.866 357.448,261.117 357.553,261.057L357.56,261.059C357.556,261.186 357.46,261.28 357.457,261.408L357.493,261.365C357.577,261.214 357.824,260.869 357.865,260.878C357.865,260.878 357.873,261.07 357.802,261.238C357.798,261.248 357.34,262.237 357.239,262.358L357.233,262.356C357.23,262.243 357.284,262.144 357.29,262.033L357.115,262.212C357.116,262.097 357.107,262.082 357.099,262.067L357.045,262.137L356.897,262.374L356.913,262.098ZM407.786,261.057L407.639,260.693L407.641,260.693L407.945,261.143C407.973,261.195 408.009,261.31 408.033,261.401L407.987,261.366C407.938,261.307 407.855,261.21 407.786,261.057ZM356.285,262.75L356.348,262.614L356.391,262.551L356.735,262.087L356.908,261.823L356.946,261.766L356.946,261.781L356.972,261.764C356.823,262.051 356.623,262.433 356.473,262.719C356.275,263.044 356.267,263.042 356.21,263.029C356.203,263.015 356.203,263.015 356.285,262.75ZM408.308,263.029C408.3,263.014 408.235,262.86 408.243,262.74C408.253,262.63 408.342,262.552 408.351,262.441C408.448,262.546 408.501,262.692 408.622,262.775C408.548,262.476 408.564,262.44 408.58,262.403L408.614,262.41C408.975,262.71 408.992,262.76 409.025,262.851L409.02,262.967C408.993,262.991 409.014,263.057 409.112,263.251C409.306,263.641 409.306,263.641 409.332,263.739C409.437,264.122 409.662,264.453 409.763,264.839L409.784,264.976C409.781,265.075 409.704,265.148 409.697,265.247C409.69,265.353 409.753,265.449 409.745,265.556L409.733,265.57C409.703,265.52 409.686,265.497 409.476,265.037L409.384,264.97C409.235,264.711 409.194,264.398 409.036,264.143C408.8,263.768 408.49,263.446 408.308,263.029ZM356.324,263.84C356.333,263.805 356.372,263.71 356.442,263.574L356.461,263.539C356.542,263.383 356.647,263.242 356.728,263.085C356.812,262.925 356.859,262.747 356.959,262.595L356.962,262.595C356.987,262.628 356.987,262.628 356.913,262.854C356.879,262.95 356.867,262.983 356.786,263.17C356.711,263.341 356.701,263.363 356.703,263.38L356.764,263.372L356.609,263.615C356.357,263.914 356.344,263.905 356.327,263.892L356.324,263.84ZM391.531,291.495C391.8,290.338 393.396,290.12 393.771,290.244C393.948,289.907 394.03,289.866 394.298,289.725C394.374,289.858 394.464,290.044 394.509,290.192C394.587,290.088 394.68,289.942 394.742,289.826C394.844,289.912 394.976,290.03 395.07,290.124L395.17,289.904C395.107,289.771 395.057,289.573 395.052,289.424C395.298,289.201 395.434,288.876 395.679,288.653C395.701,288.816 395.723,289.035 395.727,289.202L395.908,289.324L396.124,289.24L396.179,289.478C396.866,289.006 397.154,288.156 397.734,287.583C397.716,287.437 397.708,287.237 397.727,287.089C397.835,287.167 397.983,287.268 398.094,287.341C398.22,287.281 398.392,287.206 398.523,287.159L398.679,287.318C398.932,287.168 399.351,287.224 399.64,287.237L399.616,287.471L399.77,287.293C400.255,287.639 400.255,287.639 400.325,287.663C400.381,287.924 400.356,288.198 400.441,288.454C400.583,288.434 400.774,288.406 400.918,288.383L401.025,288.571C401.469,288.457 401.469,288.457 402.043,287.215C402.974,286.97 402.974,286.97 403.257,285.47C403.527,285.37 403.561,285.357 403.867,285.66C403.802,287.173 404.263,286.964 404.659,286.523C404.873,286.289 405.87,283.516 404.893,283.355C404.765,283.334 404.598,283.4 404.47,283.4C404.395,283.296 404.328,283.129 404.311,283L404.119,282.913C403.499,283.202 403.152,283.936 402.456,284.103C402.509,283.302 403.122,282.69 403.101,281.865C403.084,281.237 402.516,280.927 402.356,280.382C402.365,280.368 402.961,278.871 401.586,278.042L401.784,277.904C401.829,277.286 401.435,276.862 401.014,276.414C401.027,276.573 401.027,276.785 401.014,276.943L400.832,277.067C400.661,276.791 400.448,276.445 399.74,275.892C399.758,275.726 399.811,275.51 399.875,275.358L400.074,275.412L400.199,275.659C400.366,275.633 400.589,275.596 400.756,275.569L400.88,275.335L400.697,275.173C400.704,275.013 400.714,274.803 400.72,274.643C401.327,274.642 401.327,274.642 401.4,274.624C401.062,274.29 401.062,274.29 400.359,274.623C400.389,274.474 400.478,274.277 400.582,274.174C400.453,274.165 400.279,274.162 400.151,274.166C400.033,274.038 400.033,274.038 399.619,273.448C399.33,273.967 399.691,274.435 399.718,274.93C399.468,274.979 399.213,274.984 398.964,275.029L399.15,275.155L399.115,275.382L398.927,275.504C398.828,275.394 398.715,275.222 398.661,275.078L398.467,275.189L398.266,275.091C398.218,274.894 398.218,274.894 399.161,273.743C399.155,273.728 398.68,272.243 399.51,271.907C399.693,272.066 399.865,272.241 400.044,272.409C399.91,272.217 399.744,272.056 399.614,271.862L401.048,268.859C401.375,269.761 401.375,269.761 401.613,270.176C401.825,270.131 401.825,270.131 402.076,268.916C402.207,268.861 402.379,268.789 402.51,268.738C402.698,268.275 402.698,268.275 402.889,268.086C403.005,268.103 403.155,268.191 403.229,268.286C403.357,268.267 403.534,268.295 403.653,268.346C403.837,268.964 403.553,269.671 403.967,270.245C403.824,270.613 403.824,270.613 403.923,274.236L404.083,274.396C404.25,274.224 404.374,274.011 404.541,273.839L404.461,273.625C405.939,270.783 405.939,270.783 406.206,271.263L406.525,272.447L406.777,272.274C406.999,271.131 406.999,271.131 405.31,267.465C405.302,267.597 405.302,267.597 405.422,268.222L405.176,268.226L405.087,268.446C404.916,268.219 404.916,268.219 404.77,267.723C404.628,267.766 404.44,267.822 404.299,267.864L404.16,267.676C404.309,267.347 404.583,267.131 404.792,266.855C404.589,266.628 404.589,266.628 403.976,264.32C404.053,264.175 404.203,264.007 404.333,263.918C404.231,263.645 404.231,263.645 403.841,263.399C403.746,263.482 403.605,263.578 403.496,263.639C403.441,263.481 403.345,263.279 403.254,263.142C402.922,263.511 402.514,264.738 402.532,265.177C402.401,265.278 402.401,265.278 401.905,265.315C401.93,265.461 401.995,265.654 402.076,265.773C402.181,265.665 402.329,265.529 402.444,265.434L402.659,265.479C402.787,265.72 402.799,266.001 402.878,266.26C403.337,266.319 403.337,266.319 403.719,267.251C403.508,267.245 403.508,267.245 403.138,266.899C402.867,266.941 402.867,266.941 402.332,267.903C401.992,267.895 401.658,267.992 401.317,267.959C401.742,267.354 401.742,267.354 401.867,267.118C401.734,267.201 401.734,267.201 401.058,267.788C401.019,267.647 401.022,267.439 401.065,267.301C400.957,267.204 400.832,267.046 400.768,266.911C401.402,266.077 401.402,266.077 401.445,265.379C401.305,265.364 401.104,265.403 400.986,265.485C400.929,265.897 400.904,265.93 400.706,266.19C400.468,265.819 400.445,265.34 400.179,264.983L400.211,264.757C401.823,263.559 401.63,263.383 401.061,262.859L401.265,262.754C401.368,262.838 401.515,262.939 401.629,263.004C401.57,262.877 401.467,262.717 401.368,262.624C401.557,262.483 401.557,262.483 401.964,262.541C401.94,262.405 401.844,262.231 401.74,262.149C401.75,262.008 401.803,261.822 401.868,261.699C401.941,261.839 402.038,262.026 402.108,262.168L402.327,262.104C402.402,261.797 402.365,261.462 402.51,261.169C402.445,261.039 402.408,260.836 402.41,260.688C402.664,260.595 402.664,260.595 403.028,260.77C402.951,260.891 402.813,261.033 402.691,261.102C402.718,261.231 402.718,261.231 402.953,261.832L403.144,261.71C403.232,261.824 403.345,261.981 403.425,262.102C403.245,261.263 403.245,261.263 403.216,260.875C403.616,260.983 403.616,260.983 404.257,263.034L404.422,262.878C404.39,261.925 404.39,261.925 403.709,260.781C404.916,261.134 405.075,262.991 405.075,263.01L404.813,263.077C404.874,263.199 404.999,263.337 405.108,263.409C404.914,263.61 404.914,263.61 404.523,263.918C404.639,264.379 404.639,264.379 404.594,264.654C404.747,264.792 404.747,264.792 405.119,265.773L405.292,265.542C405.186,264.623 405.186,264.623 405.194,264.606L405.389,264.714C405.42,264.86 405.463,265.054 405.498,265.198C405.82,264.384 405.82,264.384 405.83,264.379C405.601,263.786 405.87,263.082 405.477,262.525C405.495,262.389 405.48,262.201 405.443,262.069L405.232,262.136C404.874,261.71 404.463,260.778 404.459,260.77L404.552,260.763C406.323,261.746 406.398,264.196 406.061,264.573C406.087,265.191 406.615,265.65 406.526,266.305L406.725,266.211C406.607,265.791 406.607,265.791 406.689,265.569C406.497,265.336 406.369,265.181 406.388,264.648L406.607,264.658C406.741,264.887 406.92,265.084 407.024,265.336C406.963,265.441 406.827,265.551 406.715,265.581C407.005,265.937 407.005,265.937 407.015,266.169C407.423,266.348 407.435,266.348 407.739,266.341L407.897,266.143C407.913,266.156 407.913,266.156 408.414,267.547C408.511,267.339 408.547,267.1 408.687,266.911L408.867,267.096C408.996,267.16 409.168,267.246 409.298,267.309C409.261,267.081 409.162,266.871 409.146,266.639C409.655,266.481 409.655,266.481 409.774,266.395C409.881,266.491 410.005,266.646 410.072,266.777C410.065,266.62 410.052,266.411 410.037,266.255C410.111,266.422 410.204,266.649 410.269,266.821C410.278,266.656 410.284,266.437 410.272,266.273C410.525,266.766 411.015,267.901 411.017,267.905L411.055,267.647C411.13,267.771 411.208,267.955 411.232,268.1C411.306,267.974 411.418,267.816 411.516,267.712C411.582,267.833 411.712,267.972 411.824,268.043L411.782,267.812C411.828,267.944 411.886,268.124 411.923,268.26L411.863,268.022C411.867,268.033 412.349,269.729 412.711,271.757L412.715,271.778C412.795,272.277 412.879,272.945 412.947,273.446L412.947,273.442L412.918,273.221C412.992,274.056 413.072,274.89 413.135,275.726L413.137,275.775C413.141,275.911 413.146,276.092 413.147,276.228L413.128,276.001C413.133,276.259 413.139,276.518 413.14,276.777C413.12,276.645 413.089,276.47 413.063,276.339C413.084,280.064 413.084,280.064 413.059,280.398L413.057,280.421C413.197,278.129 412.815,274.477 412.767,274.228C412.805,275.247 412.94,276.259 412.97,277.279C412.844,276.668 412.657,274.249 412.657,274.231L412.55,274.42L412.331,274.439C412.266,274.556 412.151,274.694 412.049,274.776C411.938,276.725 410.578,278.226 410.377,280.143C410.245,281.403 410.119,282.592 409.195,283.602C407.855,285.069 407.855,285.069 407.809,285.46C407.487,285.576 407.395,285.652 407.224,286.12C407.106,286.169 406.946,286.234 406.827,286.283L406.742,286.493L406.697,286.252C407.116,285.758 407.505,285.238 407.921,284.741C407.997,284.615 408.072,284.422 408.087,284.273C406.631,285.219 406.389,288.275 404.082,287.611L404.036,287.362C403.542,287.459 403.168,287.991 402.599,287.809C402.237,288.288 401.827,288.832 401.027,289.09C400.93,289.008 400.821,288.867 400.768,288.748C399.206,289.242 400.4,291.232 399.646,292.264C398.781,293.447 397.242,293.723 396.449,295.004C396.438,295.023 395.333,296.875 395.425,297.379C395.1,297.635 395.1,297.635 394.951,298.076C392.301,302.284 392.301,302.284 392.086,302.488L392.189,302.284C391.2,303.205 391.2,303.205 389.815,304.374L389.743,304.415C389.62,304.437 389.456,304.475 389.337,304.513C389.379,304.227 389.379,304.227 391.684,301.787C391.653,301.549 391.653,301.549 391.892,301.184L391.84,300.966C391.929,300.86 392.073,300.739 392.192,300.678L392.098,300.459C392.15,300.31 392.235,300.118 392.312,299.982C392.2,299.879 392.049,299.739 391.938,299.633C392.066,299.198 392.066,299.198 392.346,298.844C391.087,297.923 393.11,295.767 391.581,295.323C391.506,294.757 391.969,292.695 391.974,292.676C391.695,292.279 391.531,291.5 391.531,291.495ZM406.805,262.231C406.792,262.199 406.728,261.904 406.835,261.951L406.844,261.956L407.088,262.171L406.989,262.499L406.936,262.467L406.93,262.458L406.805,262.231ZM407.105,264.86C407.076,264.808 407.088,264.75 407.172,264.534C407.3,264.207 407.446,263.834 407.11,262.694C407.54,262.422 407.525,263.297 407.525,263.307C407.438,263.81 407.83,263.956 407.833,263.957C407.848,263.924 407.852,263.918 407.751,263.575C407.661,263.272 407.659,263.249 407.655,263.171L407.676,263.16C407.85,263.322 407.904,263.577 408.07,263.745L408.089,263.74C408.098,263.529 407.973,263.346 407.983,263.136C408.184,263.229 408.186,263.498 408.353,263.622C408.361,263.598 408.366,263.585 408.266,263.277L408.214,263.1L408.221,263.092C408.528,263.432 408.71,263.661 408.762,263.775C408.818,263.895 408.842,264.027 408.884,264.154C408.934,264.298 409.092,264.35 409.131,264.503C409.179,264.701 409.064,264.838 409.026,264.844C408.99,264.848 408.961,264.796 408.864,264.623C408.782,264.477 408.775,264.465 408.746,264.433C408.732,264.489 408.808,264.662 408.975,264.947C409.136,264.942 409.136,264.942 409.165,265.02C409.23,265.187 409.258,265.44 409.198,265.527C409.155,265.529 409.155,265.529 409.067,265.433C408.926,265.282 408.751,265.103 408.627,265.067C408.424,265.004 408.407,265.133 408.542,265.273L408.656,265.327C408.811,265.364 409.246,265.727 409.248,265.73C409.349,265.87 409.315,266.242 409.229,266.238C409.107,266.233 409.048,266.073 408.917,266.085C408.907,266.108 408.907,266.108 408.972,266.606L408.69,266.467C408.687,266.465 408.351,266.229 408.079,265.725L407.953,265.549L407.872,265.59C407.833,265.639 407.62,265.87 407.383,265.531C407.401,265.407 407.531,265.313 407.471,265.167C407.399,264.995 407.188,265.015 407.105,264.86ZM353.749,268.306L353.743,268.328L353.801,268.122L353.799,268.131L353.749,268.306ZM372.521,262.103C372.5,261.955 372.826,261.68 372.932,261.672C372.944,261.672 372.944,261.672 373.191,261.809C373.142,262.137 372.931,262.266 372.889,262.29C372.79,262.342 372.597,262.245 372.543,262.16L372.521,262.103ZM402.846,264.852C402.813,264.691 402.839,264.436 402.92,264.46L403.099,264.594C403.133,264.63 403.133,264.63 403.18,264.734L403.186,264.681L403.218,264.681L403.243,264.742C403.324,265.007 403.337,265.049 403.308,265.106C403.265,265.191 403.133,265.193 403.042,265.139C402.945,265.085 402.87,264.975 402.846,264.852ZM388.946,264.306C388.892,264.05 389.402,263.623 389.409,263.619C389.593,263.481 389.628,263.503 389.845,263.642C390.404,264 390.625,264.033 391.027,263.822C390.998,263.625 391.022,263.53 391.101,263.543C391.286,263.602 391.692,264.18 391.667,264.408C391.64,264.432 391.58,264.478 391.232,264.513C391.605,264.67 391.705,264.734 391.738,264.836L391.688,264.881L391.64,264.883L391.541,264.852L391.336,264.882C391.218,264.88 391.218,264.88 391.165,264.9L391.151,264.933C391.186,265.037 391.267,265.116 391.295,265.226L391.256,265.353L391.235,265.36L390.987,265.351L390.887,265.402C390.863,265.441 390.819,265.455 390.684,265.46C390.494,265.467 390.052,265.407 390.036,265.4C389.934,265.361 389.021,264.662 388.946,264.306ZM403.544,267.619L403.559,267.58L403.677,267.645L403.728,267.725C403.772,267.829 403.699,267.891 403.697,267.892L403.544,267.619ZM404.472,268.374C404.449,268.257 404.697,268.337 404.7,268.337C404.752,268.369 404.762,268.389 404.794,268.48C404.841,268.612 404.878,268.666 404.964,268.753C404.921,268.983 404.83,268.987 404.694,268.766L404.68,268.741L404.62,268.647C404.556,268.549 404.483,268.437 404.472,268.374ZM404.005,268.733L404.001,268.69L404.016,268.592L404.022,268.475L404.036,268.453C404.058,268.471 404.149,268.616 404.188,268.769L404.158,268.951L404.047,268.826L404.005,268.733ZM385.065,271.407C385.049,271.313 385.139,270.727 385.382,270.534C385.72,270.266 386.291,269.529 386.315,269.366C385.756,269.005 385.742,268.851 386.253,268.682C386.536,268.587 386.579,268.573 386.299,268.233L386.547,268.09L386.677,268.148C387.118,268.395 387.118,268.395 387.138,268.391C387.187,268.383 387.258,268.371 387.464,268.499C387.204,268.797 387.204,268.797 387.204,268.814C387.204,268.814 387.213,268.848 387.482,269.142L387.263,269.257L387.309,269.415C387.103,269.316 387.066,269.342 387.046,269.357C387.042,269.382 387.055,269.484 387.185,269.532L387.239,269.62C387.227,269.711 387.159,269.774 387.142,269.861C387.102,269.875 387.102,269.875 387.001,269.876L386.886,269.887L386.688,270.007C386.682,270.023 386.68,270.051 386.728,270.229C386.783,270.439 386.8,270.503 386.611,270.474C386.356,270.435 386.283,270.437 386.286,270.533C386.294,270.797 386.55,270.888 386.63,271.102C386.66,271.474 386.66,271.474 386.727,271.537L386.758,271.618C386.734,271.768 386.584,271.751 386.513,271.84C386.565,272.19 387.012,272.109 387.081,272.439C387.028,272.486 386.956,272.55 386.459,272.434C386.095,272.349 385.72,272.339 385.363,272.216C385.244,272.174 385.187,272.1 385.198,271.999C385.209,271.899 385.264,271.806 385.24,271.701C385.214,271.582 385.086,271.53 385.065,271.407ZM387.034,270.418C387.023,270.324 387.027,270.281 387.055,270.243L387.081,270.214L387.111,270.19C387.163,270.147 387.179,270.044 387.27,270.064L388.038,270.552C388.162,270.645 388.161,270.681 388.158,270.717C388.154,270.783 388.093,270.871 388.021,270.971L387.881,271.254L387.976,271.417C388.065,271.491 388.178,271.513 388.271,271.584C388.266,271.723 387.922,271.975 387.872,271.972C387.697,271.959 387.33,271.622 387.234,271.508L387.148,271.32C387.125,271.194 387.153,271.066 387.137,270.94C387.114,270.764 387.055,270.596 387.034,270.418ZM354.682,280.316L354.637,280.249C354.98,280.58 355.082,280.661 355.166,280.658C355.187,280.528 355.32,280.463 355.331,280.328C355.363,279.952 355.378,279.781 355.266,279.49L355.202,279.545L355.161,279.508C355.103,279.294 355.274,279.09 355.189,278.875C355.129,278.716 354.931,278.669 354.914,278.476L354.888,276.038L354.89,276.038C354.968,276.359 355.058,276.808 355.058,276.809C355.142,277.392 355.141,277.981 355.204,278.565C355.249,278.963 355.424,279.332 355.42,279.74L355.466,279.764L355.555,279.738C355.615,279.905 355.562,280.017 355.537,280.055C355.413,280.249 355.667,280.799 355.843,280.829L355.954,280.654C356.001,280.752 356.024,281.008 355.959,281.16C355.856,281.4 356.082,282.07 356.086,282.075L356.342,282.361C356.935,282.943 356.935,282.943 356.97,282.946C357.016,282.807 356.902,282.691 356.919,282.556L357.003,282.61L357.098,282.711C357.214,282.84 357.234,283.03 357.35,283.158C357.419,283.234 357.537,283.174 357.6,283.266C357.602,283.267 357.775,283.523 357.8,283.826C357.814,284.009 357.862,284.068 357.896,284.111L357.876,284.157L357.802,284.084L357.759,283.996L357.755,284.103L357.72,284.127C357.343,283.829 357.343,283.829 357.315,283.826C356.902,283.78 356.902,283.78 356.845,283.721C356.621,283.485 356.633,283.146 356.522,282.862C356.293,283.069 356.293,283.069 356.255,283.032C356.248,283.026 355.62,282.376 355.644,282.034C355.682,281.477 355.682,281.477 355.644,281.411L355.503,281.275C355.373,281.17 355.153,280.992 354.682,280.316ZM382.879,276.455L382.879,276.329L382.924,276.251C382.962,276.213 383,276.174 382.977,276.052C382.904,275.66 382.904,275.66 382.931,275.552C382.958,275.454 382.987,275.45 383.146,275.432L383.186,275.489L383.231,275.597C383.287,275.776 383.118,275.902 383.135,276.072C383.144,276.17 383.186,276.178 383.317,276.204L383.437,276.281C383.415,276.427 383.217,276.483 383.264,276.667C383.309,276.84 383.205,277.015 383.204,277.017L382.949,277.075L382.885,276.976C382.866,276.803 382.886,276.629 382.879,276.455ZM384.252,276.659C384.221,276.599 384.421,276.378 384.527,276.388C384.551,276.395 384.551,276.395 384.767,276.725L384.821,276.726L385.101,276.974L385.016,277.142L384.85,276.902L384.753,276.872L384.616,276.896L384.556,276.879L384.399,276.717C384.257,276.67 384.257,276.67 384.252,276.659ZM359.387,285.583L359.454,285.327L359.564,285.404L359.767,285.642L359.857,285.78L359.9,286.333L359.862,286.301L359.845,286.276C359.758,286.145 359.69,286.003 359.606,285.871C359.54,285.768 359.44,285.696 359.387,285.583ZM401.11,285.228C401.09,285.151 401.311,284.954 401.406,284.872C401.42,284.861 401.483,284.815 401.695,284.73C401.697,284.73 401.88,284.66 402.033,284.635C402.155,284.614 402.273,284.675 402.396,284.665L402.568,284.587L402.648,284.621C402.93,284.918 402.9,285.136 402.889,285.219C402.786,285.274 402.599,285.271 402.598,285.235L402.64,285.129L402.568,285.095C402.163,285.042 402.095,285.08 401.97,285.151C401.822,285.236 401.719,285.404 401.534,285.42C401.301,285.441 401.126,285.283 401.11,285.228ZM399.794,285.398L399.796,285.383C400.155,285.05 400.344,285.101 400.424,285.122L400.52,285.235L400.644,285.283L400.756,285.385C400.869,285.472 400.929,285.53 400.937,285.604C400.945,285.66 400.846,285.79 400.702,285.771L400.577,285.75L400.495,285.765L400.228,285.801L400.216,285.723L400.169,285.574C400.066,285.574 399.853,285.458 399.815,285.422L399.794,285.398ZM360.252,287.943C360.187,287.801 360.115,287.575 360.11,287.458L360.231,287.348L360.355,287.473L360.42,287.559L360.433,287.54L360.587,287.598C360.721,287.868 360.863,288.7 360.865,288.709C360.869,288.736 360.876,288.775 360.778,288.739L360.61,288.618L360.583,288.568C360.528,288.464 360.497,288.347 360.443,288.243C360.387,288.138 360.303,288.053 360.252,287.943ZM360.735,290.471L360.537,289.872L360.539,289.871L360.807,290.058C360.871,290.116 360.873,290.12 360.929,290.231C360.966,290.306 361.062,290.26 361.063,290.06L361.072,289.993L361.129,290.029L361.156,290.1C361.198,290.311 361.215,290.909 361.213,290.93L361.129,290.927C361.016,290.851 360.828,290.633 360.735,290.471ZM367.391,288.437C367.344,288.347 367.394,287.826 367.526,287.676L367.538,287.692C367.602,287.777 367.801,288.038 367.823,288.151C367.823,288.158 367.902,288.777 367.727,288.749C367.592,288.728 367.392,288.438 367.391,288.437ZM361.899,290.699L361.852,290.61L362.078,290.203L362.865,290.92C362.97,291.045 362.964,291.234 363.08,291.352C363.11,291.384 363.11,291.384 363.275,291.341L363.519,291.319C363.61,291.317 363.663,291.317 363.662,291.276C363.658,291.177 363.615,291.085 363.611,290.987C363.605,290.813 363.62,290.796 363.646,290.765C363.898,290.8 364.064,292.267 363.934,292.423C363.871,292.5 363.746,292.413 363.697,292.527L363.653,292.722L363.535,292.777C363.431,292.771 363.431,292.771 363.179,292.379C363.104,292.291 363.072,292.254 362.938,292.069C362.688,291.718 362.661,291.688 362.596,291.661C362.497,291.739 362.443,291.435 362.423,291.321C362.392,291.149 362.336,291.021 362.314,290.974L362.162,290.849C362.11,290.92 361.966,290.792 361.899,290.699ZM361.677,291.898L361.689,291.848C361.802,291.857 361.9,291.956 362.023,291.914C362.107,291.885 362.158,291.777 362.263,291.801C362.375,291.825 362.483,291.9 362.652,292.066C363.214,292.622 363.169,293.241 363.145,293.289C363.123,293.292 363.058,293.286 362.91,293.155C362.844,293.095 362.763,293.048 362.672,293.014C362.654,292.937 362.654,292.937 362.64,292.763C362.628,292.6 362.614,292.429 362.553,292.362C362.551,292.359 362.262,292.111 362.117,292.125C361.987,292.139 361.707,291.935 361.677,291.898ZM361.073,295.845L361.022,295.765C361.161,295.77 361.161,295.77 361.164,295.755C361.194,295.633 361.126,295.533 361.107,295.423C361.025,294.97 360.708,294.604 360.695,294.127L360.697,294.061C360.729,293.938 360.853,293.875 360.871,293.742C360.923,293.344 360.923,293.344 360.93,293.329C360.987,293.2 360.987,293.2 360.983,293.163C360.964,293.027 360.964,293.027 360.975,293.012L361.093,293.228C361.175,293.412 361.187,293.415 361.21,293.419C361.222,293.384 361.235,293.35 361.2,293.149C361.15,292.861 361.146,292.842 361.177,292.829C361.282,292.837 361.282,292.837 361.312,292.798L361.33,292.796C361.437,292.907 361.673,293.591 361.68,293.643C361.702,293.79 361.525,293.821 361.525,293.955C361.525,294.158 361.606,294.349 361.59,294.553C361.808,295.034 361.874,295.503 361.714,295.433C361.498,295.336 361.398,295.291 361.359,295.362C361.352,295.374 361.354,295.384 361.385,295.477C361.396,295.514 361.43,295.689 361.454,295.908C361.499,296.344 361.283,296.09 361.073,295.845ZM364.931,300.439C364.178,299.759 363.646,298.945 363.55,298.787L363.517,298.733C363.371,298.449 363.274,298.139 363.137,297.85C362.956,297.468 362.569,297.24 362.454,296.807C362.34,296.385 362.041,296.064 361.909,295.652L361.934,295.654C362.436,296.1 362.647,296.85 363.287,297.153L363.186,296.91L363.251,296.865C363.283,296.515 363.283,296.515 362.833,295.946C362.495,295.518 362.536,295.504 362.671,295.461C362.79,295.422 362.826,295.189 362.826,295.187C362.927,295.115 363.128,295.295 363.155,295.351C363.203,295.449 363.36,295.703 363.803,295.954C363.813,295.903 363.813,295.903 363.801,295.499C364.19,295.542 364.244,296.064 364.605,296.149L364.625,296.061C364.902,296.264 365.044,296.677 365.452,296.675C365.957,296.671 366.167,296.669 367.207,297.758C367.405,297.966 367.433,298.263 367.547,298.514C367.563,298.545 367.563,298.545 367.843,298.962C367.928,299.089 367.971,299.244 368.072,299.36C368.239,299.556 368.496,299.637 368.629,299.876C368.714,300.025 368.723,300.104 368.554,300.171C368.357,300.25 368.307,299.952 368.13,299.979C368.003,300 367.91,300.138 367.766,300.104C367.643,300.075 367.574,299.939 367.452,299.91C367.201,300.092 366.814,299.663 366.644,300.032C366.807,300.346 367.037,300.606 367.212,300.909L367.171,300.926C366.934,300.781 366.728,300.586 366.499,300.431C366.5,300.435 366.923,301.016 367.474,301.597C367.652,301.787 367.717,301.857 367.626,302.028L367.38,301.916C367.383,301.974 367.383,301.983 367.536,302.13C367.056,301.953 367.056,301.953 366.999,301.986C366.913,301.939 365.328,300.799 364.931,300.439ZM375.173,293.062C375.058,292.66 374.951,292.184 375.082,292.203L375.179,292.273L376.417,293.551C376.578,293.768 376.547,294.048 376.627,294.291C376.661,294.387 376.741,294.447 376.786,294.534C376.846,294.649 376.92,294.855 376.934,294.939C376.969,295.162 376.92,295.39 376.958,295.613C376.973,295.705 377.081,295.727 377.095,295.822C377.099,295.84 377.104,295.878 377.001,295.917C376.811,295.989 376.571,295.802 376.287,295.358C376.222,295.259 376.124,295.091 376.083,295.008L375.173,293.062ZM366.291,303.307L366.141,303.15L366.274,303.202L366.274,303.19L366.208,303.13C365.961,302.91 365.955,302.883 365.951,302.867L365.961,302.861C365.961,302.854 365.956,302.831 365.856,302.778L365.752,302.702L365.38,302.282L365.38,302.281L365.887,302.722C366,302.895 366.438,303.178 366.442,303.181C366.552,303.246 366.671,303.3 366.777,303.374L366.807,303.398L366.889,303.534L367.041,303.625L367.426,303.874L367.388,303.871L367.353,303.855C366.572,303.469 366.572,303.469 366.291,303.307ZM367.778,302.532C367.739,302.506 367.689,302.471 367.681,302.335L367.687,302.332C367.768,302.399 367.821,302.499 367.913,302.553C368.027,302.621 368.05,302.571 368.048,302.546L368.027,302.483L368.092,302.488L367.913,302.322L367.986,302.293L368.098,302.461L368.162,302.51L368.868,303.181C368.76,303.197 368.313,302.937 368.089,302.767L367.951,302.62L367.778,302.532ZM367.344,303.8C367.205,303.717 367.093,303.611 367.086,303.595L367.199,303.637L367.087,303.517L367.103,303.513L367.138,303.53C367.362,303.635 367.558,303.797 367.782,303.9C368.092,304.042 368.422,304.122 368.725,304.282C368.788,304.316 368.788,304.316 369.191,304.625L369.36,304.713L369.352,304.725C369.315,304.721 368.874,304.589 368.593,304.421C368.319,304.257 368.289,304.242 368.258,304.231L368.276,304.271C368.215,304.309 367.667,303.993 367.344,303.8Z" style="fill:rgb(60,60,60);fill-rule:nonzero;"/>
        <path d="M386.728,250.624L386.675,250.519C386.888,250.165 387.046,250.031 387.26,250.024C387.563,250.016 387.596,250.395 387.829,250.484L387.998,250.387L387.85,250.505C388.002,250.702 388.117,250.633 388.186,250.593L388.212,250.487L388.312,250.488L389.406,251.605C389.278,250.964 388.529,250.716 388.53,249.995C389.039,250.152 389.351,250.667 389.851,250.844C389.351,250.507 389.351,250.507 389.255,250.345L389.286,250.243C389.947,249.976 390.346,250.702 390.925,250.745C390.193,249.952 388.91,250.521 388.272,249.501C388.302,249.424 388.523,249.078 388.843,249.296C388.817,249.174 388.764,249.064 388.721,248.95L388.802,248.896C388.982,248.998 388.982,248.998 390.715,249.445C390.138,248.907 389.311,249.149 388.707,248.701C389.128,248.423 390.014,248.52 390.021,248.522C390.118,248.537 390.118,248.537 390.571,248.851L390.67,248.818L390.731,248.906L390.918,248.915L390.989,249.012L390.941,249.208L391.133,249.237C391.241,249.439 391.346,249.589 391.347,249.59C391.54,249.502 391.546,249.489 391.697,249.189L391.802,249.374C392.068,249.417 392.068,249.417 392.17,249.56C391.671,249.926 391.671,249.926 391.74,250.056C392.246,249.406 392.48,249.712 392.558,249.812C392.316,250.247 392.316,250.247 392.24,250.289L392.346,250.38L392.527,250.306C392.629,250.351 392.629,250.351 392.828,250.645L392.748,250.737L392.92,250.893L393.006,250.847C393.056,250.648 393.056,250.648 393.218,250.485C393.149,250.36 393.149,250.36 392.975,250.264L393.038,250.185L393.028,250.077L393.207,250.196C393.6,250.045 393.53,250.73 393.719,250.976L393.879,250.85C393.854,250.74 393.79,250.645 393.767,250.534L393.858,250.492L393.982,250.65L394.07,250.604L394.083,250.499C394.333,250.526 395.16,251.046 395.168,251.051C395.191,251.182 395.191,251.182 395.155,251.609C395.209,251.481 395.243,251.341 395.32,251.225C395.445,251.243 395.445,251.243 395.793,251.449L395.757,251.652C395.82,251.808 395.899,251.956 395.96,252.114C396.027,252.136 396.027,252.136 396.247,252.098C396.722,252.598 397.45,252.795 397.73,253.53L397.671,253.617C397.467,253.603 397.296,253.453 397.087,253.458C397.16,253.574 397.16,253.574 397.367,253.691C397.432,254.111 397.432,254.111 397.83,254.438C398.07,254.635 398.359,254.744 398.607,254.926L398.782,255.042C399.397,255.448 399.431,255.622 399.379,255.75C399.201,256.175 399.201,256.175 399.425,256.481C399.111,256.52 398.967,256.1 398.649,256.147C398.866,256.595 399.559,256.271 399.678,256.882C399.679,256.892 399.826,257.981 398.937,257.623C397.996,257.245 397.996,257.245 397.58,257.725L397.502,259.28L397.585,259.409C397.435,259.504 397.377,259.688 397.25,259.804C397.315,259.912 397.404,260.004 397.462,260.119C397.367,260.429 397.763,260.555 397.699,260.854C397.413,260.796 397.232,260.511 396.945,260.452C396.944,260.46 396.794,261.296 396.941,261.465C397.121,261.457 397.2,261.231 397.383,261.231C397.502,261.231 397.614,261.392 397.663,261.461C397.63,261.505 397.63,261.505 397.357,261.629L397.407,261.746C397.695,261.82 397.695,261.82 397.768,261.914C397.717,262.119 397.706,262.168 397.527,262.496C397.409,262.356 397.25,262.169 397.132,262.028C397.199,261.826 397.199,261.823 397.172,261.688C396.388,261.692 397.364,262.986 397.376,262.999C398.012,263.69 397.792,264.974 396.971,265.368C397.433,266.03 397.433,266.03 397.249,266.287C396.529,267.3 396.469,267.383 396.761,267.606L396.776,267.707C396.715,267.74 396.715,267.74 396.403,267.647C396.306,267.721 396.299,267.725 396.145,267.749C396.043,268.003 396.043,268.003 395.96,268.146L395.807,268.133C395.633,267.129 395.52,266.752 395.497,266.687L394.719,264.762C394.69,264.697 394.087,263.993 393.938,263.942L393.865,264.014L393.762,263.986C393.461,263.372 392.825,262.95 392.85,262.147C392.563,262.606 392.563,262.606 390.368,260.929C390.695,260.775 390.695,260.775 391.35,260.83L391.442,260.733C391.402,260.462 391.099,260.464 391.005,260.25C391.096,260.117 391.089,260.102 391.031,259.951C390.656,260.046 390.881,260.766 390.45,260.716C390.443,260.716 389.738,260.387 390.055,259.839C390.371,259.288 390.515,259.162 390.903,258.828C390.647,258.706 390.526,258.714 390.322,258.728C390.245,258.574 390.223,258.395 390.122,258.253C389.995,258.365 389.94,258.378 389.645,258.278C389.652,258.175 389.661,258.035 389.668,257.932C389.855,257.839 389.855,257.839 389.981,257.707C389.852,257.538 389.84,257.52 389.346,257.335C389.363,257.003 389.65,256.826 389.748,256.541C389.565,256.531 389.42,256.667 389.248,256.703C389.246,256.699 389.168,256.173 389.754,255.803C389.789,255.488 389.238,255.202 389.2,255.217C389.074,255.264 389.021,255.397 388.93,255.486C388.821,255.36 388.821,255.36 388.734,254.782L388.931,254.833C389.116,254.865 389.116,254.865 389.232,254.798C389.152,254.687 389.064,254.583 388.979,254.475C389.121,254.458 389.248,254.529 389.381,254.555L389.457,254.479C389.391,254.211 389.391,254.211 389.114,254.017C389.103,253.842 389.246,253.679 389.152,253.498L388.213,252.284L388.277,252.211C388.654,252.372 388.654,252.372 388.709,252.364C388.528,251.874 387.993,252.031 387.707,251.732C387.746,251.605 387.762,251.554 387.911,251.552C388.288,251.55 388.288,251.55 388.685,251.727C388.657,251.646 388.657,251.646 387.901,251.374C387.475,251.222 387.475,251.222 387.013,250.86C386.842,250.727 386.767,250.668 386.728,250.624ZM392.937,250.244L392.942,250.247L392.937,250.244Z" style="fill:rgb(60,60,60);fill-rule:nonzero;"/>
        <path d="M352.126,272.458C352.158,272.242 352.192,272.024 352.223,271.806C352.143,272.439 352.143,272.439 352.122,272.667L352.166,272.425C352.112,272.95 352.027,273.472 351.991,274.001L352.023,273.787C352.151,274.472 352.151,274.472 352.189,274.91C352.199,274.767 352.22,274.578 352.242,274.439L352.342,274.617L352.449,274.443C352.856,276.072 352.93,277.778 353.454,279.381L353.541,279.577C353.504,279.437 353.454,279.252 353.418,279.113L353.358,278.697L353.269,278.724C353.263,278.703 352.505,275.105 352.529,272.655C352.614,272.917 352.614,272.917 352.703,273.561C352.772,273.197 352.772,273.197 352.812,272.705C352.95,272.823 353.121,272.972 353.083,274.152C353.353,274.039 353.353,274.039 353.463,273.636C353.664,273.518 353.717,273.488 353.87,273.14L354.065,273.117C354.772,274.814 354.772,274.814 354.801,275.259L354.742,275.064C354.704,275.199 354.672,275.387 354.669,275.528L354.479,275.498L354.346,275.893C354.35,276.752 354.494,278.875 355.753,280.024L355.882,279.831L356.079,279.863C356.38,280.588 356.38,280.588 356.646,280.767C356.79,281.929 356.79,281.929 356.879,282.155C356.961,282.543 356.961,282.543 357.18,282.717C357.267,282.267 357.069,280.857 357.066,280.847L357.193,280.67L357.449,280.715L357.519,280.513L357.395,280.342L357.556,280.232C358.036,280.532 358.036,280.532 358.13,280.556C358.076,280.753 357.94,280.908 357.885,281.105L357.717,281.011L357.56,281.134C357.551,281.579 357.551,281.579 358.041,281.845C358.593,284.757 358.74,285.54 360.637,285.645C360.801,285.881 360.806,286.194 360.964,286.433L361.175,286.408C361.129,286.1 360.829,285.923 360.815,285.599L361.003,285.507C361.619,286.022 361.619,286.022 361.725,286.289C361.536,286.788 361.507,286.864 361.563,287.951C362.308,288.62 362.442,288.739 362.915,288.823C362.715,288.483 362.724,288.454 362.915,287.728C363.017,287.672 363.159,287.609 363.267,287.569C363.446,287.918 363.415,287.972 363.286,288.197C363.921,288.907 363.478,289.862 363.771,290.649L363.886,290.477C364.015,290.671 364.015,290.671 363.95,291.597L363.77,291.667C363.642,292.021 363.658,292.049 363.769,292.275C363.826,292.159 363.92,292.01 364.003,291.912C364.213,292.177 364.213,292.177 364.137,292.612C362.431,293.805 362.431,293.805 361.553,294.054C361.742,294.31 361.838,294.273 362.033,294.121C362.249,294.188 362.46,294.273 362.675,294.345L362.856,294.228L362.888,294.026C364.166,293.669 364.166,293.669 364.628,290.558C364.706,290.863 364.706,290.863 364.733,291.288C364.857,290.918 364.857,290.918 364.611,290.011L364.77,289.892C364.765,289.603 364.637,289.332 364.675,289.039C364.302,289.14 364.302,289.14 364.054,290.188C363.767,289.546 363.963,288.838 363.812,288.176C363.415,287.605 363.404,286.875 363.129,286.255C363.311,286.333 363.311,286.333 363.678,286.627L363.803,286.402C363.551,285.739 363.551,285.739 363.542,285.693C363.711,285.42 363.711,285.42 363.686,284.505C365.827,283.746 366.017,286.857 367.396,287.748L367.578,287.644C367.659,284.603 367.659,284.603 367.463,283.929C368.164,283.703 368.209,282.829 368.739,282.434C369.253,282.049 369.891,282.524 370.409,282.159C370.457,282.123 370.457,282.123 370.865,281.528C371.055,281.611 371.055,281.611 372.545,280.319L372.721,280.43C372.667,280.61 372.555,280.98 372.287,281.525L372.087,281.579C372.012,281.804 372.07,282.051 371.981,282.274C371.335,282.108 371.335,282.108 371.059,281.841L370.859,281.897C370.829,282.018 370.811,282.187 370.813,282.313C370.418,282.613 370.418,282.613 370.182,282.927C370.306,283.243 370.351,283.362 370.546,283.663L370.749,283.646C371.149,284.763 374.048,285.392 374.17,285.385C375.113,283.928 375.717,281.046 375.879,280.197C375.955,280.29 376.02,280.451 376.029,280.573C376.133,280.514 376.25,280.395 376.316,280.292L376.262,280.578C375.593,281.745 375.667,283.23 374.867,284.34C374.979,284.804 374.493,285.821 374.487,285.832C373.909,285.921 373.34,285.734 372.762,285.778C372.998,286.792 373.022,286.898 373.365,287.337C374.067,288.233 375.068,288.765 375.789,289.64C376.59,290.617 375.851,291.949 376.451,292.973C376.729,293.45 377.31,293.55 377.59,294.026C377.583,294.048 377.017,296.443 380.605,297.667C380.869,297.487 380.874,297.484 381.318,295.367C381.737,293.361 381.737,293.361 381.75,293.342C382.378,292.435 381.543,291.673 381.535,290.829C381.528,289.969 381.611,289.88 382.405,289.032C382.402,288.874 382.402,288.874 382.169,287.604C382.407,287.272 382.407,287.272 382.88,287.316C383.466,286.785 383.466,286.785 385.784,287.434C386.604,287.665 388.337,285.065 388.345,285.037L388.402,282.298C387.883,280.693 386.638,279.544 386.065,277.975C381.881,277.364 381.881,277.364 381.866,277.372C381.9,277.876 381.935,278.399 381.653,278.683C381.316,279.024 379.728,279.539 379.714,279.541C379.476,279.338 379.331,279.04 379.1,278.831C377.542,279.556 377.542,279.556 376.932,279.334C376.381,279.707 376.381,279.707 375.938,279.413C375.916,278.851 375.544,278.389 375.542,277.822C375.597,277.819 375.597,277.819 376.165,277.949C376.466,277.7 376.466,277.7 377.793,278.03C378.251,277.364 377.677,276.182 377.672,276.171C377.814,276.197 378.004,276.244 378.143,276.292L378.231,276.505L378.428,276.578L378.636,276.399L378.801,276.52C378.754,277.138 378.754,277.138 378.981,277.344C378.986,277.34 380.38,275.534 381.21,274.249L381.404,274.301L381.49,274.494C381.09,275.211 380.38,275.581 379.868,276.17L379.888,276.405C380.014,276.372 380.182,276.324 380.306,276.281C380.253,276.417 380.202,276.61 380.186,276.757C380.515,277.102 380.515,277.102 380.735,277.139L380.783,277.353C381.078,277.405 381.078,277.405 381.459,277.16C381.147,276.928 381.072,276.943 380.827,277.032C380.746,276.913 380.651,276.746 380.594,276.612L382.427,274.696C382.664,274.882 382.866,275.122 383.139,275.259C383.571,275.055 383.571,275.055 383.754,275.055L383.864,275.264L383.774,275.479C384.2,276.333 384.2,276.333 385.901,277.723C386.008,277.656 386.148,277.567 386.255,277.5C386.647,277.318 386.647,277.318 387.06,275.187C386.473,274.548 385.728,275.092 385.083,274.879C384.793,274.007 384.793,274.007 385.949,272.85C385.737,272.715 385.737,272.715 385.342,272.855C385.298,272.731 385.228,272.568 385.166,272.452C384.52,272.388 384.52,272.388 383.159,270.034L383.108,270.261L382.885,270.27C382.586,269.663 382.753,268.861 382.201,268.356C382.066,268.441 382.066,268.441 381.817,268.874L381.616,268.875C381.617,268.865 381.881,267.703 382.018,267.588C383.209,268.757 383.496,267.757 383.562,267.273L383.326,265.734C382.648,264.43 381.576,263.436 380.893,262.137L380.975,261.947C381.085,262.005 381.236,262.076 381.354,262.117L381.362,262.329L381.509,262.346L381.559,262.125C380.115,260.215 379.348,260.393 379.315,260.4C378.963,260.129 378.009,259.583 376.767,260.367C376.822,260.507 376.907,260.685 376.992,260.804L376.848,260.961C375.667,260.595 373.668,262.583 374.101,263.246C374.229,263.443 374.229,263.443 376.085,263.134C375.995,263.394 375.98,263.441 375.638,263.543L375.561,263.73L375.668,263.927C375.645,264.002 375.645,264.002 375.01,264.977L374.871,264.837L374.897,264.632C375.001,264.571 375.14,264.486 375.24,264.417C375.252,264.301 375.211,264.134 375.151,264.037C374.63,264.391 374.629,264.397 374.507,264.659L374.312,264.534L374.278,264.304L374.41,264.122C374.347,263.763 373.846,263.29 373.555,263.04C373.477,263.475 373.477,263.475 373.346,263.671L373.191,263.505C373.337,262.582 373.337,262.582 373.31,262.535C373.351,262.394 373.416,262.212 373.47,262.076L373.324,261.934C372.829,262.185 372.766,262.218 372.646,262.519C372.746,262.624 372.898,262.75 373.027,262.806C372.946,262.902 372.84,263.031 372.758,263.128C371.936,263.125 371.852,261.701 370.874,261.998C370.865,262.123 370.903,262.296 370.957,262.408L370.887,262.598C370.792,262.5 370.661,262.371 370.559,262.279L370.696,262.063L370.526,261.955C370.2,262.178 370.2,262.178 369.77,262.256L369.692,262.067L369.551,262.203C369.468,262.293 369.336,262.392 369.226,262.438C369.248,261.903 369.799,261.672 369.858,261.158C369.586,261.245 369.586,261.245 367.249,262.953L367.162,262.733C367.378,262.301 368.037,261.202 368.043,261.195C367.934,260.668 367.671,260.184 367.663,259.628L367.364,259.348C367.119,259.392 367.041,259.453 367.033,259.755L366.848,259.797C366.525,260.675 366.871,261.712 366.289,262.53C366.396,263.056 366.117,263.583 366.296,264.109C366.473,264.162 366.725,264.164 366.909,264.164L366.887,264.376C366.871,264.384 366.871,264.384 365.926,264.23C365.849,263.708 365.849,263.708 365.746,263.588C365.804,263.431 365.902,263.226 366.007,263.099C365.908,263.012 365.742,262.928 365.615,262.908C366.039,262.596 366.523,262.242 366.219,261.638C366.562,261.11 366.562,261.11 366.293,259.714C366.203,259.91 366.203,259.91 366.033,260.853C366.005,260.714 365.97,260.529 365.941,260.389L365.842,260.179C365.688,260.257 365.688,260.257 364.22,262.208L364.116,262.026C364.226,261.585 364.322,261.201 365.198,259.852C364.688,259.516 364.353,259.714 364.029,259.904L363.945,259.681C364.488,258.62 364.52,258.556 363.164,258.162C363.215,257.916 363.215,257.916 363.396,257.46L363.233,257.34L363.286,257.141C363.147,257.291 363.067,257.494 362.927,257.641C363.047,257.623 363.203,257.564 363.305,257.494C363.231,257.587 363.151,257.731 363.108,257.844L362.897,257.878C362.836,257.981 362.778,258.136 362.755,258.255L362.564,258.231L362.614,257.998C362.509,257.947 362.336,257.935 362.228,257.981C362.269,257.772 362.269,257.772 362.51,257.313L362.414,257.117C362.319,257.1 362.185,257.085 362.091,257.115C361.621,257.3 361.239,258.276 361.235,258.287L361.068,258.184C360.443,258.4 359.975,259.207 359.836,259.895C359.7,260.564 360.337,260.929 360.393,261.522C360.043,261.399 360.043,261.399 359.886,260.645C359.854,260.77 359.782,260.931 359.711,261.035C359.704,260.891 359.72,260.698 359.75,260.557C358.96,260.964 358.626,261.914 357.879,262.37C357.905,262.225 357.961,262.037 358.02,261.905C356.77,262.385 356.953,263.865 356.296,264.758C356.311,264.476 356.311,264.476 356.426,263.975C356.196,264.25 355.908,264.469 355.734,264.801C355.65,264.589 355.65,264.589 355.831,263.94L355.72,263.749C355.46,263.951 355.46,263.951 355.097,264.959L355.034,264.712C355.022,264.72 353.784,265.998 353.358,268.25C353.363,268.114 353.378,267.933 353.394,267.797C353.195,268.06 353.195,268.06 352.879,269.035C352.909,268.802 352.909,268.802 353.035,268.349C352.89,268.608 352.831,268.716 352.557,269.976L352.242,271.674L352.126,272.461L352.126,272.458Z" style="fill:rgb(60,60,60);fill-rule:nonzero;"/>
        <path d="M395.255,250.838C395.884,251.568 396.597,251.808 397.068,251.967L396.877,252.047C397.338,252.319 397.417,252.412 397.471,252.475C397.052,252.37 396.759,251.996 396.352,251.872C396.724,252.582 397.45,252.854 397.972,253.38C398.111,253.521 398.295,253.578 398.441,253.703C398.6,253.84 398.54,254.092 398.687,254.234C398.785,254.213 398.844,254.124 398.927,254.076C398.992,254.175 398.942,254.31 399.018,254.405C399.02,254.408 399.345,254.752 399.475,254.756L399.551,254.607C399.678,254.655 400.03,255.219 400.033,255.225L399.948,255.285C399.865,255.234 399.844,255.115 399.751,255.076L399.568,255.23C399.624,255.421 399.716,255.474 399.92,255.587C399.817,255.769 399.817,255.769 400.219,255.975L400.219,256.162C400.345,256.253 400.517,256.227 400.63,256.35L400.549,256.436C400.566,256.772 401.112,257.003 401.168,256.888L401.179,256.837C401.231,256.875 401.266,256.901 401.504,257.201C401.285,257.268 401.056,257.158 400.84,257.257C400.82,257.41 401.35,258.021 401.45,257.961C401.647,257.843 401.647,257.843 401.931,257.974L402.011,257.875C402.127,257.918 402.127,258.087 402.246,258.13C402.372,258.175 402.376,258.065 402.377,258.007L402.425,257.987C402.607,258.208 402.856,258.509 402.87,258.195L402.889,258.089L403.356,258.679L403.249,258.707C403.329,258.839 403.329,258.839 403.186,259.194C403.168,259.19 403.168,259.19 402.945,258.977L402.902,259.007L402.92,259.119C402.766,259.046 402.766,259.046 402.261,258.524L402.23,258.649L402.17,258.662L401.916,258.435C401.736,258.49 401.667,258.796 401.667,258.798C401.667,258.99 401.887,259.017 401.917,259.185C401.598,259.468 402.219,259.688 402.343,259.705L402.48,259.693L402.504,259.647C402.601,259.68 402.666,259.766 402.748,259.82C402.994,259.757 403.27,260.242 403.441,259.938C403.48,259.947 403.48,259.947 403.658,260.102L403.908,260.064C403.967,259.882 403.967,259.882 403.559,259.089C403.607,258.96 403.607,258.96 403.493,258.53C403.501,258.534 404.181,259.333 404.016,259.705C403.882,260.007 404.261,260.41 404.478,260.369C404.55,260.197 404.556,260.188 404.526,260.082L404.476,259.923C404.353,259.572 403.967,259.408 403.914,259.007C403.876,258.741 403.986,258.466 403.869,258.203L403.432,258.034C403.41,258.108 403.384,258.197 403.395,258.332C402.521,258.059 402.179,257.345 402.177,257.339C402.27,257.186 402.31,257.124 402.152,256.784L401.905,256.731C402.05,257.172 402.094,257.305 401.827,257.257C401.755,257.244 401.34,256.745 401.285,256.623C401.439,256.694 401.555,256.828 401.693,256.925L401.728,256.878C401.725,256.848 401.725,256.848 401.368,256.154C401.543,256.18 401.637,256.412 401.84,256.369C401.835,256.36 401.37,255.515 401.069,255.814C400.684,255.654 400.601,255.477 400.558,255.381L400.594,255.339L400.746,255.335C400.766,255.29 400.766,255.29 400.661,254.88L400.8,254.95C400.845,254.865 400.851,254.638 400.389,254.052L400.278,254.074L400.23,254.133C400.243,254.332 400.353,254.509 400.355,254.711C400.188,254.822 400.188,254.822 399.929,254.528L400.074,254.525C400.076,254.521 400.065,254.017 399.98,253.911C399.801,253.686 399.512,253.702 399.299,253.553C399.332,253.15 398.863,253.225 398.665,253.031C398.809,252.998 398.923,253.104 399.054,253.126C398.916,252.875 398.599,252.806 398.505,252.508C398.583,252.525 398.658,252.542 399.029,253.028C399.252,253.321 399.667,253.61 399.714,253.643C399.716,253.579 399.716,253.579 399.642,253.469C399.858,253.553 399.959,253.954 400.246,253.804L400.238,253.68C400.498,253.852 400.498,253.852 400.547,253.864L400.57,253.798C400.431,253.486 400.308,253.525 400.23,253.613C400.116,253.587 399.568,253.145 399.547,253.118C399.594,253.101 399.594,253.101 399.92,253.282C399.813,253.161 399.683,253.072 399.575,252.953C400.475,253.49 400.475,253.49 400.49,253.489C400.335,253.204 400.078,253.022 399.874,252.787C399.917,252.804 399.917,252.804 400.079,252.912L400.108,252.865C400.16,252.868 400.16,252.868 400.257,252.929L400.266,252.865C400.034,252.542 399.317,252.101 399.31,252.098L399.397,252.235C399.327,252.234 399.301,252.234 399.189,252.161C399.25,251.861 398.655,251.501 398.649,251.498C398.632,251.605 398.712,251.678 398.734,251.771C398.631,251.828 398.604,251.842 398.628,252.002C398.555,251.984 398.553,251.984 398.478,251.872C398.366,251.706 398.338,251.488 398.187,251.348C398.003,251.18 397.779,251.075 397.584,250.923L397.632,250.881C397.587,250.798 397.584,250.791 397.318,250.649C397.313,250.675 397.313,250.675 397.413,251.049C397.299,251.272 397.155,250.943 397.149,250.899C397.095,250.512 397.095,250.512 396.741,250.39C396.774,250.531 396.842,250.662 396.853,250.809C396.559,250.796 396.619,250.434 396.444,250.303L396.348,250.29L396.325,250.344L396.353,250.4L396.314,250.436C396.005,250.182 396.005,250.182 395.514,250.194C395.718,250.383 396.061,250.364 396.169,250.698C395.811,250.578 395.549,250.273 395.208,250.119L395.168,250.154C395.203,250.248 395.284,250.317 395.297,250.423C395.314,250.566 395.13,250.694 395.255,250.838Z" style="fill:rgb(69,103,133);fill-rule:nonzero;"/>
        <path d="M405.251,262.507C405.409,262.934 405.71,263.398 405.794,263.392C405.867,263.229 405.743,263.069 405.792,262.906C405.843,262.741 405.949,262.602 405.983,262.429L405.992,262.386C406.001,262.321 406.001,262.321 405.951,262.223L405.795,262.367C405.794,262.366 405.579,262.278 405.63,261.919L405.623,261.671L405.345,261.274C405.276,261.332 405.38,261.46 405.284,261.498C405.115,261.349 405.148,261.059 404.941,260.938L404.928,260.942L404.934,261.009C404.998,261.322 405.215,261.722 405.257,261.798C405.322,261.916 405.322,261.916 405.321,261.965L405.254,262.072C405.147,262.198 405.183,262.326 405.251,262.507Z" style="fill:rgb(69,103,133);fill-rule:nonzero;"/>
        <path d="M385.899,306.773L385.915,306.759L385.899,306.773Z" style="fill:rgb(69,103,133);fill-rule:nonzero;"/>
        <path d="M375.153,305.751L375.164,305.748L375.153,305.751Z" style="fill:rgb(69,103,133);fill-rule:nonzero;"/>
        <path d="M388.174,306.953L388.059,306.948C388.152,306.854 388.271,306.81 388.378,306.735C387.892,306.78 387.495,307.064 387.01,306.984L387.046,306.945L387.039,306.932L386.951,306.96C386.942,306.96 386.723,306.952 386.627,306.984L386.857,306.825L386.644,306.887C386.544,306.891 386.38,306.934 386.27,306.997C386.121,306.644 387.193,306.33 387.451,305.997C387.51,305.745 387.929,305.577 388.164,305.339L388.003,305.428L388.187,305.254L388.126,305.243C388.219,305.133 388.193,305.131 388.266,305.027L388.23,304.986L388.341,304.871C388.303,304.751 388.338,304.443 388.305,304.322C388.261,304.445 388.253,304.526 388.158,304.634L388.234,304.636C388.18,304.781 388.182,304.814 388.163,304.909C388.032,305.042 388.024,305.14 387.813,305.272L388.036,305.145L387.889,305.296L387.874,305.332L387.935,305.328C387.798,305.548 387.594,305.739 387.362,305.78L387.404,305.69C387.168,305.93 386.819,306.127 386.544,306.334C386.545,306.33 386.068,306.716 385.901,306.79L385.899,306.773C385.752,306.937 385.607,307.028 385.402,307.197L385.382,307.214L385.457,307.193L385.449,307.203C384.945,307.567 384.264,307.829 383.688,307.941L383.699,307.908L383.575,307.957C383.687,307.801 383.772,307.667 383.685,307.623C383.671,307.502 383.792,307.225 383.746,307.142C383.833,307.034 383.945,306.917 384.027,306.846L383.975,306.804C383.878,306.884 383.874,306.841 383.768,306.965L383.805,306.628L383.682,306.652C383.634,306.496 383.565,306.423 383.492,306.16C383.178,306.23 383.358,306.257 383.238,306.02L383.1,305.9C383.023,305.92 383.021,305.864 382.925,305.907C382.919,305.72 382.874,305.758 382.851,305.672C382.749,305.879 382.637,305.966 382.481,305.99C382.437,305.866 382.445,305.904 382.312,305.885L382.013,305.99C381.819,305.822 381.928,305.782 381.801,305.788C381.666,305.794 381.552,306.009 381.421,306.033C381.141,306.083 380.738,305.781 380.425,305.539C380.421,305.798 380.414,305.857 380.309,305.845L380.255,305.816L380.293,305.987C380.149,305.855 379.114,304.892 379.139,305.38C378.972,305.227 378.684,304.875 378.424,304.866C378.055,304.855 378.177,305.126 378.461,305.285C378.345,305.315 378.322,305.365 378.303,305.377C378.036,305.367 377.799,305.514 377.556,305.514C377.666,305.624 377.769,305.737 377.877,305.849C377.745,305.824 377.824,305.835 377.807,305.86L377.698,305.825C377.739,305.961 377.895,306.092 377.998,306.163C377.793,306.091 377.607,306.047 377.416,305.956L377.412,305.939C376.985,305.67 376.459,305.514 375.985,305.398L375.961,305.534L375.942,305.55C375.78,305.544 375.711,305.614 375.566,305.524L375.609,305.597L375.579,305.618L375.433,305.616L375.471,305.684L375.295,305.616L375.349,305.701C375.243,305.737 375.235,305.721 375.164,305.748L375.186,305.799C374.871,305.801 374.574,305.767 374.285,305.664C374.28,305.811 374.249,305.739 374.324,305.835L374.285,305.831L374.383,305.903C374.286,305.976 374.446,306.181 374.502,306.247C374.094,306.225 373.714,306.162 373.341,306.119L373.324,306.163C373.384,306.197 373.43,306.271 373.526,306.317L373.397,306.341L373.478,306.467L373.329,306.471C373.408,306.529 373.503,306.59 373.638,306.668L373.592,306.694C373.687,306.739 373.776,306.808 373.904,306.85C373.853,306.857 373.783,306.79 373.927,306.896C373.759,306.891 374.065,307.027 374.167,307.077L374.237,307.18L374.256,307.188L374.166,307.192C374.36,307.3 374.568,307.356 374.754,307.442L374.381,307.357C374.526,307.403 374.672,307.441 374.816,307.491L374.836,307.498L374.734,307.51L374.927,307.603C377.295,308.18 379.768,308.494 382.315,308.494C383.985,308.494 385.622,308.36 387.221,308.105C387.357,308.074 387.494,308.044 387.615,308.003L387.626,307.991L387.587,307.986L387.602,307.977C387.715,307.914 387.898,307.82 388.007,307.775L388.021,307.764C387.727,307.773 387.435,307.864 387.146,307.905C387.653,307.545 388.434,307.492 388.834,307.19L388.846,307.18C388.425,307.139 387.95,307.341 387.524,307.363C387.697,307.204 387.955,307.095 388.174,306.953Z" style="fill:rgb(60,60,60);fill-rule:nonzero;"/>
        <path d="M411.999,259.948L411.997,259.948C412.864,258.58 413.369,256.96 413.369,255.222C413.369,250.343 409.413,246.387 404.533,246.387C399.653,246.387 395.698,250.342 395.698,255.222C395.698,256.96 396.201,258.58 397.068,259.948C397.146,260.067 404.533,278.827 404.533,278.827C404.533,278.827 411.919,260.067 411.999,259.948Z" style="fill:rgb(255,74,81);fill-rule:nonzero;"/>
        <path d="M404.532,248.344C400.784,248.344 397.747,251.381 397.747,255.128C397.747,258.873 400.784,261.913 404.532,261.913C408.279,261.913 411.317,258.873 411.317,255.128C411.317,251.381 408.279,248.344 404.532,248.344Z" style="fill:white;fill-rule:nonzero;"/>
    </g>
</svg>
