<svg id="Ebene_1" data-name="Ebene 1" xmlns="http://www.w3.org/2000/svg" width="16" height="16" viewBox="0 0 16 16"><defs><style>.cls-1{fill:#103a5d;}.cls-2,.cls-3{fill:#0098d6;}.cls-3{stroke:#40617d;stroke-miterlimit:10;}.cls-4{fill:#fff;}</style></defs><title>mehrere_bearbeiten</title><path class="cls-1" d="M6.59,1.79H8.91a.65.65,0,0,1,.65.65V13.82a0,0,0,0,1,0,0H6a0,0,0,0,1,0,0V2.34a.55.55,0,0,1,.55-.55Z" transform="translate(7.52 -3.23) rotate(43.52)"/><rect class="cls-2" x="11.57" y="0.67" width="3.52" height="2.64" rx="0.44" transform="translate(5.03 -8.63) rotate(43.52)"/><path class="cls-2" d="M2.38,11,1,14.62a.23.23,0,0,0,.32.31l3.6-1.55Z"/><circle class="cls-3" cx="11.2" cy="11.46" r="3.78"/><rect class="cls-4" x="10.53" y="9.13" width="1.34" height="4.72"/><rect class="cls-4" x="10.53" y="9.13" width="1.34" height="4.72" transform="translate(22.69 0.28) rotate(90)"/></svg>