<svg xmlns="http://www.w3.org/2000/svg" viewBox="0 0 191.8 150"><path d="M74.41,116.57c0,8.05-1.67,10.42-8.32,10.42s-8.32-2.37-8.32-10.42,1.66-10.5,8.32-10.5S74.41,108.5,74.41,116.57Zm-13.86,0c0,6.22.82,8,5.54,8s5.53-1.77,5.53-8-.81-8.07-5.53-8.07S60.55,110.32,60.55,116.57Z" style="fill:#103a5d"/><path d="M88.78,109.26l4.67,17.16c0,.35,0,.43-.33.43H91c-.22,0-.27-.08-.35-.43l-1.69-6H80.74l-1.72,6c-.08.35-.11.43-.36.43H76.53c-.32,0-.38-.08-.32-.43L81,109.26c.79-2.81,1.25-3.19,3.79-3.19C87.64,106.07,88,106.45,88.78,109.26Zm-5.13.65L81.42,118h6.9l-2.13-8.08c-.35-1.25-.41-1.44-1.36-1.44C84,108.47,84,108.66,83.65,109.91Z" style="fill:#103a5d"/><path d="M107.9,111.93a.36.36,0,0,1,.41.41v13.8c0,.33-.13.36-.41.41a31.19,31.19,0,0,1-5.67.44c-4.88,0-6.33-.63-6.33-6.41v-8.24c0-.27.19-.41.47-.41h1.74a.37.37,0,0,1,.41.41v8c0,4.15.82,4.31,3.44,4.31h3.73V112.34a.37.37,0,0,1,.41-.41Z" style="fill:#103a5d"/><path d="M115,107.81c.3-.08.46.06.46.36V112h2.87c.3,0,.43.14.43.41v1.28c0,.27-.13.41-.43.41h-2.87v9.17c0,1.2.33,1.47,1.78,1.47h1.3c.3,0,.44.11.44.38v1.31c0,.25-.14.38-.41.44A7.8,7.8,0,0,1,117,127c-2,0-4.2,0-4.2-3.11v-9.82h-1.52a.36.36,0,0,1-.41-.41v-1.28a.36.36,0,0,1,.41-.41h1.52v-3.27c0-.28.11-.38.36-.44Z" style="fill:#103a5d"/><path d="M123.62,106.23a.36.36,0,0,1,.4.41v5.29c1.34-.13,2.68-.13,3.47-.13,4.88,0,6.33.6,6.33,6.38v8.26a.36.36,0,0,1-.41.41h-1.8a.36.36,0,0,1-.41-.41v-8c0-4.17-.82-4.34-3.44-4.34H124v12.38c0,.28-.13.41-.4.41h-1.8a.36.36,0,0,1-.41-.41v-19.8a.36.36,0,0,1,.41-.41Z" style="fill:#103a5d"/><path d="M139,54.14H123.53a3.23,3.23,0,0,0-3.23,3.23v5.35H106.47a.64.64,0,0,0-.46.19l-3.19,3.25a.43.43,0,0,0,0,.61L106,70a.64.64,0,0,0,.46.19h1.61a.76.76,0,0,0,.54-.22l1.73-1.74a.3.3,0,0,1,.4,0l1.57,1.57a1,1,0,0,0,1.4,0l1.55-1.56a.29.29,0,0,1,.4,0h0L117.4,70a.79.79,0,0,0,.54.22h2.35v5.36a3.23,3.23,0,0,0,3.23,3.23H139a3.23,3.23,0,0,0,3.23-3.23V57.37A3.23,3.23,0,0,0,139,54.14Zm-10,6.21a3.13,3.13,0,1,1-.92,2.22A3.15,3.15,0,0,1,129,60.35Zm7.56,12.35H125.82l0-2.75a2.55,2.55,0,0,1,2.52-2.58H134a2.56,2.56,0,0,1,2.56,2.56Z" style="fill:#103a5d"/><path d="M83.21,54.2a5.66,5.66,0,0,0-1-.09H55.07a5.48,5.48,0,0,0-5.5,5.49V81.84a5.5,5.5,0,0,0,5.5,5.5H82.2a5.5,5.5,0,0,0,5.49-5.5V59.6A5.49,5.49,0,0,0,83.21,54.2ZM73,79.1H64.26L66.21,71a4.66,4.66,0,1,1,4.84,0Z" style="fill:#103a5d"/><path d="M83.21,42.9V60.72h-6.9V43.12c-.09-1.46-1-6.13-7.68-6.13S61.06,41.61,61,43.13V60.72h-6.9V42.9c.17-4.43,3.42-12.81,14.57-12.81S83.05,38.47,83.21,42.9Z" style="fill:#103a5d"/><path d="M24.36,5.15S4.83,5.15,4.83,24.67v101s0,19.53,19.53,19.53H166.25s19.53,0,19.53-19.53V24.67s0-19.52-19.53-19.52Z" style="fill:none;stroke:#103a5d;stroke-width:2.51389524052214px"/></svg>