<svg id="Ebene_1" data-name="Ebene 1" xmlns="http://www.w3.org/2000/svg" width="16" height="16" viewBox="0 0 16 16"><defs><style>.cls-1{fill:#fff;}.cls-2{fill:#103a5d;}.cls-3{fill:#0098d6;}</style></defs><title>packagist_1</title><polygon class="cls-1" points="13.91 4.36 11.79 5.62 10.22 6.56 8.01 7.87 1.95 4.36 4.19 3.08 5.79 2.16 7.97 0.9 13.91 4.36"/><path class="cls-2" d="M8,8.27a.46.46,0,0,1-.2,0L1.75,4.71a.4.4,0,0,1-.2-.35A.43.43,0,0,1,1.75,4L4,2.73l1.6-.92L7.76.55a.43.43,0,0,1,.41,0L14.11,4a.41.41,0,0,1,0,.7L12,6l-1.57.93L8.22,8.22A.54.54,0,0,1,8,8.27ZM2.76,4.36,8,7.4l2-1.19,3.11-1.84L8,1.37,6,2.51l-1.6.92Z"/><polygon class="cls-1" points="7.9 14.68 13.83 11.22 13.83 4.36 7.93 7.87 7.9 14.68"/><path class="cls-2" d="M7.9,15.08A.46.46,0,0,1,7.7,15a.39.39,0,0,1-.2-.35l0-6.81a.43.43,0,0,1,.2-.35L13.63,4A.38.38,0,0,1,14,4a.39.39,0,0,1,.2.35v6.86a.41.41,0,0,1-.2.35L8.1,15A.46.46,0,0,1,7.9,15.08Zm.43-7,0,5.87,5.12-3V5.07Z"/><polygon class="cls-1" points="1.88 4.36 1.88 11.22 7.93 14.72 7.93 7.87 1.88 4.36"/><path class="cls-2" d="M7.93,15.13a.36.36,0,0,1-.2-.06l-6.06-3.5a.43.43,0,0,1-.2-.35V4.36A.43.43,0,0,1,1.67,4a.43.43,0,0,1,.41,0L8.13,7.52a.4.4,0,0,1,.21.35v6.86a.39.39,0,0,1-.21.34A.36.36,0,0,1,7.93,15.13ZM2.28,11l5.25,3V8.1l-5.25-3Z"/><polygon class="cls-3" points="12.64 9.3 11.04 11.7 9.13 10.74 10.09 10.35 10.08 6.57 10.06 6.56 4.03 3.08 5.63 2.16 11.63 5.62 11.67 5.64 11.68 9.7 12.64 9.3"/></svg>