<?xml version="1.0" encoding="UTF-8" standalone="no"?>
<!DOCTYPE svg PUBLIC "-//W3C//DTD SVG 1.1//EN" "http://www.w3.org/Graphics/SVG/1.1/DTD/svg11.dtd">
<svg width="100%" height="100%" viewBox="0 0 192 150" version="1.1" xmlns="http://www.w3.org/2000/svg" xmlns:xlink="http://www.w3.org/1999/xlink" xml:space="preserve" xmlns:serif="http://www.serif.com/" style="fill-rule:evenodd;clip-rule:evenodd;stroke-linecap:round;stroke-linejoin:round;stroke-miterlimit:1.5;">
    <g transform="matrix(0.973783,0,0,0.97943,4.07961,2.75886)">
        <path d="M185.4,24.939L185.4,122.578C185.4,134.512 175.655,144.2 163.653,144.2L24.932,144.2C12.93,144.2 3.185,134.512 3.185,122.578L3.185,24.939C3.185,13.005 12.93,3.317 24.932,3.317L163.653,3.317C175.655,3.317 185.4,13.005 185.4,24.939Z" style="fill:rgb(60,60,60);stroke:rgb(46,161,219);stroke-width:5.12px;"/>
    </g>
    <g transform="matrix(1.1094,0,0,1.1094,-3.86745,-3.30437)">
        <g transform="matrix(0.57363,0,0,0.57363,40.3653,17.1713)">
            <rect x="43.276" y="49.984" width="86.255" height="86.255" style="fill:rgb(46,161,219);fill-opacity:0;stroke:rgb(46,161,219);stroke-width:7.86px;"/>
        </g>
        <g transform="matrix(1.33662,0,0,1.39786,59.897,46.8367)">
            <path d="M0,14.195C-0.309,14.65 -0.166,15.236 0.318,15.496L21.86,30.209C22.276,30.57 22.837,30.473 23.108,29.994L58.671,-15.593C59.008,-16.028 58.834,-16.375 58.284,-16.365L55.324,-16.311C54.774,-16.301 53.927,-16.081 53.441,-15.823L20.344,16.487C19.948,16.869 19.239,16.948 18.768,16.664L5.126,8.427C4.655,8.142 4.017,8.282 3.708,8.737L0,14.195Z" style="fill:white;fill-rule:nonzero;"/>
        </g>
    </g>
</svg>
