<?xml version="1.0" encoding="UTF-8" standalone="no"?>
<!DOCTYPE svg PUBLIC "-//W3C//DTD SVG 1.1//EN" "http://www.w3.org/Graphics/SVG/1.1/DTD/svg11.dtd">
<svg width="100%" height="100%" viewBox="0 0 192 150" version="1.1" xmlns="http://www.w3.org/2000/svg" xmlns:xlink="http://www.w3.org/1999/xlink" xml:space="preserve" xmlns:serif="http://www.serif.com/" style="fill-rule:evenodd;clip-rule:evenodd;stroke-linecap:round;stroke-linejoin:round;stroke-miterlimit:1.5;">
    <g transform="matrix(0.973783,0,0,0.97943,4.07961,2.75886)">
        <path d="M185.4,24.939L185.4,122.578C185.4,134.512 175.655,144.2 163.653,144.2L24.932,144.2C12.93,144.2 3.185,134.512 3.185,122.578L3.185,24.939C3.185,13.005 12.93,3.317 24.932,3.317L163.653,3.317C175.655,3.317 185.4,13.005 185.4,24.939Z" style="fill:rgb(60,60,60);stroke:rgb(46,161,219);stroke-width:5.12px;"/>
    </g>
    <g transform="matrix(0.0331681,0,0,0.0331681,21.2701,0.37142)">
        <path d="M2977.1,462.5L1523,462.5C1387.9,462.5 1278.39,572.02 1278.39,707.11L1278.39,3792.91C1278.39,3928.01 1387.91,4037.52 1523,4037.52L2977.1,4037.52C3112.19,4037.52 3221.71,3928 3221.71,3792.91L3221.71,707.11C3221.71,572.02 3112.2,462.5 2977.1,462.5Z" style="fill:rgb(102,102,102);fill-rule:nonzero;"/>
        <path d="M2969.9,482.4L1530.2,482.4C1402.11,482.4 1298.28,586.23 1298.28,714.32L1298.28,3785.72C1298.28,3913.81 1402.12,4017.64 1530.2,4017.64L2969.9,4017.64C3097.99,4017.64 3201.82,3913.81 3201.82,3785.72L3201.82,714.32C3201.82,586.23 3097.98,482.4 2969.9,482.4Z" style="fill:white;fill-rule:nonzero;"/>
        <path d="M3003.5,763.04L1499.6,763.04C1444.65,763.04 1400.11,807.58 1400.11,862.53L1400.11,3617.53C1400.11,3672.48 1444.65,3717.02 1499.6,3717.02L3003.5,3717.02C3058.45,3717.02 3102.99,3672.48 3102.99,3617.53L3102.99,862.53C3102.99,807.59 3058.44,763.04 3003.5,763.04Z" style="fill:rgb(60,60,60);fill-rule:nonzero;"/>
        <path d="M2415.8,606.14L2084.17,606.14C2075.01,606.14 2067.59,613.56 2067.59,622.72C2067.59,631.88 2075.01,639.3 2084.17,639.3L2415.8,639.3C2424.96,639.3 2432.38,631.88 2432.38,622.72C2432.38,613.56 2424.96,606.14 2415.8,606.14Z" style="fill:rgb(60,60,60);fill-rule:nonzero;"/>
        <path d="M2731.5,885.21L1715.3,885.21C1691.68,885.21 1672.54,904.35 1672.54,927.97L1672.54,1009.96C1672.54,1033.58 1691.69,1052.72 1715.3,1052.72L2731.5,1052.72C2755.12,1052.72 2774.27,1033.57 2774.27,1009.96L2774.27,927.97C2774.26,904.35 2755.11,885.21 2731.5,885.21Z" style="fill:white;fill-rule:nonzero;"/>
    </g>
    <g transform="matrix(0.91812,0,0,0.91812,87.9463,33.7123)">
        <g transform="matrix(0.690397,0,0,0.690397,-21.7765,-19.3518)">
            <g transform="matrix(0.823998,0,0,0.823998,89.1432,138.007)">
                <path d="M0,-30.416L-26.844,0.302L-28.956,-30.718L0,-30.416Z" style="fill:rgb(46,161,219);fill-rule:nonzero;"/>
            </g>
            <g transform="matrix(0.823998,0,0,0.823998,155.265,56.1607)">
                <path d="M0,60.842C0.008,66.172 -4.307,70.501 -9.638,70.508L-109.606,70.652C-114.937,70.66 -119.265,66.345 -119.272,61.014L-119.36,0C-119.367,-5.331 -115.052,-9.659 -109.722,-9.667L-9.754,-9.811C-4.423,-9.818 -0.095,-5.503 -0.087,-0.173L0,60.842Z" style="fill:rgb(46,161,219);fill-rule:nonzero;"/>
            </g>
        </g>
        <g transform="matrix(1,0,0,1,-101.178,18.2394)">
            <g transform="matrix(1,0,0,1,49.4015,0)">
                <circle cx="120.235" cy="18.488" r="4.648" style="fill:white;"/>
            </g>
            <g transform="matrix(1,0,0,1,32.3714,0)">
                <circle cx="120.235" cy="18.488" r="4.648" style="fill:white;"/>
            </g>
            <g transform="matrix(1,0,0,1,15.4191,0)">
                <circle cx="120.235" cy="18.488" r="4.648" style="fill:white;"/>
            </g>
        </g>
    </g>
</svg>
