<?xml version="1.0" encoding="UTF-8" standalone="no"?>
<!DOCTYPE svg PUBLIC "-//W3C//DTD SVG 1.1//EN" "http://www.w3.org/Graphics/SVG/1.1/DTD/svg11.dtd">
<svg width="100%" height="100%" viewBox="0 0 192 150" version="1.1" xmlns="http://www.w3.org/2000/svg" xmlns:xlink="http://www.w3.org/1999/xlink" xml:space="preserve" xmlns:serif="http://www.serif.com/" style="fill-rule:evenodd;clip-rule:evenodd;stroke-linecap:round;stroke-linejoin:round;stroke-miterlimit:1.5;">
    <g id="Ebene_12">
        <g>
            <g transform="matrix(0.973783,0,0,0.97943,4.07961,2.75886)">
                <path d="M185.4,24.939L185.4,122.578C185.4,134.512 175.655,144.2 163.653,144.2L24.932,144.2C12.93,144.2 3.185,134.512 3.185,122.578L3.185,24.939C3.185,13.005 12.93,3.317 24.932,3.317L163.653,3.317C175.655,3.317 185.4,13.005 185.4,24.939Z" style="fill:rgb(60,60,60);stroke:rgb(46,161,219);stroke-width:5.12px;"/>
            </g>
            <g transform="matrix(1,0,0,1,-1.1687,0)">
                <g transform="matrix(1.25198,0,0,1.25198,-38.0967,-16.1609)">
                    <g transform="matrix(0.056915,0,0,0.056915,26.265,40.2015)">
                        <path d="M1472.12,185.434L1472.12,965.226C1472.12,1017.31 1429.83,1059.6 1377.74,1059.6L549.402,1059.6C497.313,1059.6 455.023,1017.31 455.023,965.226L455.023,185.434C455.023,133.345 497.313,91.056 549.402,91.056L1377.74,91.056C1429.83,91.056 1472.12,133.345 1472.12,185.434Z" style="fill:white;"/>
                    </g>
                    <g transform="matrix(0.056915,0,0,0.0128661,26.265,43.9461)">
                        <rect x="455.023" y="91.056" width="1017.1" height="968.548" style="fill:rgb(46,161,219);"/>
                    </g>
                    <g transform="matrix(0.0321932,0,0,0.0321932,177.127,42.3704)">
                        <circle cx="-3699.6" cy="278.875" r="86.383" style="fill:rgb(50,48,48);"/>
                    </g>
                    <g transform="matrix(0.0321932,0,0,0.0321932,184.17,42.3704)">
                        <circle cx="-3699.6" cy="278.875" r="86.383" style="fill:rgb(50,48,48);"/>
                    </g>
                    <g transform="matrix(0.0321932,0,0,0.0321932,191.206,42.3704)">
                        <circle cx="-3699.6" cy="278.875" r="86.383" style="fill:rgb(50,48,48);"/>
                    </g>
                    <g transform="matrix(0.056915,0,0,0.056915,193.256,44.48)">
                        <path d="M-1672.55,108.461L-1672.55,132.892C-1672.55,139.634 -1678.03,145.108 -1684.77,145.108L-2029.99,145.108C-2036.73,145.108 -2042.2,139.634 -2042.2,132.892L-2042.2,108.461C-2042.2,101.72 -2036.73,96.246 -2029.99,96.246L-1684.77,96.246C-1678.03,96.246 -1672.55,101.72 -1672.55,108.461Z" style="fill:rgb(50,48,48);"/>
                    </g>
                    <g transform="matrix(0.0292479,-1.28321e-18,8.91453e-19,0.0421012,126.099,68.8908)">
                        <path d="M-1672.55,108.461L-1672.55,132.892C-1672.55,139.634 -1680.43,145.108 -1690.13,145.108L-2024.62,145.108C-2034.33,145.108 -2042.2,139.634 -2042.2,132.892L-2042.2,108.461C-2042.2,101.72 -2034.33,96.246 -2024.62,96.246L-1690.13,96.246C-1680.43,96.246 -1672.55,101.72 -1672.55,108.461Z" style="fill:rgb(50,48,48);"/>
                    </g>
                    <g transform="matrix(-0.0421012,0,0,0.0421012,75.0245,43.2059)">
                        <g transform="matrix(0.46099,0.460637,-0.706836,0.707377,1294.66,1425.82)">
                            <path d="M-1672.55,108.461L-1672.55,132.892C-1672.55,139.634 -1680.95,145.108 -1691.3,145.108L-2023.46,145.108C-2033.8,145.108 -2042.2,139.634 -2042.2,132.892L-2042.2,108.461C-2042.2,101.72 -2033.8,96.246 -2023.46,96.246L-1691.3,96.246C-1680.95,96.246 -1672.55,101.72 -1672.55,108.461Z" style="fill:rgb(50,48,48);"/>
                        </g>
                        <g transform="matrix(-0.460813,0.460813,-0.707107,-0.707107,-417.421,1461.5)">
                            <path d="M-1672.55,108.461L-1672.55,132.892C-1672.55,139.634 -1680.95,145.108 -1691.3,145.108L-2023.46,145.108C-2033.8,145.108 -2042.2,139.634 -2042.2,132.892L-2042.2,108.461C-2042.2,101.72 -2033.8,96.246 -2023.46,96.246L-1691.3,96.246C-1680.95,96.246 -1672.55,101.72 -1672.55,108.461Z" style="fill:rgb(50,48,48);"/>
                        </g>
                    </g>
                    <g transform="matrix(0.0190341,0,0,0.0574739,138.795,44.4262)">
                        <path d="M-1672.55,108.461L-1672.55,132.892C-1672.55,139.634 -1689.08,145.108 -1709.44,145.108L-2005.32,145.108C-2025.68,145.108 -2042.2,139.634 -2042.2,132.892L-2042.2,108.461C-2042.2,101.72 -2025.68,96.246 -2005.32,96.246L-1709.44,96.246C-1689.08,96.246 -1672.55,101.72 -1672.55,108.461Z" style="fill:rgb(50,48,48);"/>
                    </g>
                    <g transform="matrix(1.1655e-18,0.0190341,-0.0574739,3.51926e-18,110.377,86.7018)">
                        <path d="M-1672.55,108.461L-1672.55,132.892C-1672.55,139.634 -1689.08,145.108 -1709.44,145.108L-2005.32,145.108C-2025.68,145.108 -2042.2,139.634 -2042.2,132.892L-2042.2,108.461C-2042.2,101.72 -2025.68,96.246 -2005.32,96.246L-1709.44,96.246C-1689.08,96.246 -1672.55,101.72 -1672.55,108.461Z" style="fill:rgb(50,48,48);"/>
                    </g>
                </g>
                <g transform="matrix(1.62905,0,0,1.57135,216.885,-8.79125)">
                    <g>
                        <g transform="matrix(1.81637,0,0,1.81637,-340.865,-664.569)">
                            <path d="M169.008,395.296C169.008,403.094 162.686,409.417 154.887,409.417C147.088,409.417 140.766,403.094 140.766,395.296C140.766,387.496 147.088,381.174 154.887,381.174C162.686,381.174 169.008,387.496 169.008,395.296Z" style="fill:white;fill-rule:nonzero;"/>
                        </g>
                        <g transform="matrix(1.81483,0,0,1.81483,-340.518,-664.071)">
                            <path d="M147.987,400.278C147.609,400.49 147.134,400.358 146.917,399.979C146.706,399.602 146.839,399.126 147.216,398.913L154.94,394.572C155.317,394.358 155.797,394.493 156.009,394.872C156.223,395.247 156.09,395.727 155.71,395.938L147.987,400.278Z" style="fill:rgb(81,73,85);fill-rule:nonzero;"/>
                        </g>
                        <g transform="matrix(1.81483,0,0,1.81483,-340.518,-664.071)">
                            <path d="M155.719,394.636C156.091,394.852 156.223,395.329 156.007,395.703C155.791,396.08 155.31,396.208 154.932,395.993L150.521,393.444C150.148,393.228 150.023,392.748 150.233,392.376C150.454,392.001 150.929,391.869 151.306,392.088L155.719,394.636Z" style="fill:rgb(81,73,85);fill-rule:nonzero;"/>
                        </g>
                        <g transform="matrix(1.81483,0,0,1.81483,-340.518,-664.071)">
                            <path d="M161.875,401.892L161.485,402.26L155.488,395.887L155.302,395.917C154.961,395.917 154.679,395.636 154.679,395.296C154.679,394.956 154.961,394.677 155.302,394.677C155.646,394.677 155.921,394.956 155.921,395.296L155.879,395.517L161.875,401.892Z" style="fill:rgb(255,74,81);fill-rule:nonzero;"/>
                        </g>
                        <g transform="matrix(1.81483,0,0,1.81483,-340.518,-664.071)">
                            <path d="M146.382,408.667C145.746,408.261 145.139,407.811 144.569,407.321C144.65,407.389 144.731,407.457 144.814,407.523C145.004,407.684 145.205,407.844 145.415,407.994C145.728,408.231 146.051,408.455 146.382,408.667ZM164.924,407.558C164.937,407.546 164.951,407.535 164.964,407.523C164.972,407.517 164.979,407.511 164.987,407.505C164.965,407.523 164.945,407.54 164.924,407.558ZM168.687,403.088C169.439,401.758 170.004,400.308 170.344,398.773L170.35,398.773C170.006,400.308 169.44,401.757 168.687,403.088Z" style="fill:rgb(184,87,77);fill-rule:nonzero;"/>
                        </g>
                    </g>
                    <g transform="matrix(1.81483,0,0,1.81483,-340.518,-664.071)">
                        <path d="M170.733,395.296C170.733,404.047 163.636,411.143 154.887,411.143C146.139,411.143 139.041,404.047 139.041,395.296C139.041,386.547 146.139,379.449 154.887,379.449C159.055,379.449 162.844,381.059 165.674,383.693L166.747,382.62L167.152,388.346L161.424,387.942L162.562,386.805C160.532,384.964 157.842,383.851 154.887,383.851C148.565,383.851 143.432,388.974 143.432,395.296C143.432,401.618 148.565,406.743 154.887,406.743C161.209,406.743 166.342,401.618 166.342,395.296L170.733,395.296Z" style="fill:rgb(46,161,219);fill-rule:nonzero;"/>
                    </g>
                    <g transform="matrix(1.81483,0,0,1.81483,-340.518,-664.071)">
                        <path d="M154.887,411.143C154.802,411.143 154.716,411.142 154.631,411.141C151.599,411.093 148.773,410.192 146.382,408.667C146.051,408.455 145.728,408.231 145.415,407.994C145.205,407.844 145.004,407.684 144.814,407.523C144.731,407.457 144.65,407.389 144.569,407.321C141.185,404.414 139.041,400.105 139.041,395.296C139.041,386.547 146.139,379.449 154.887,379.449C155.355,379.449 155.819,379.47 156.277,379.509C156.982,379.571 157.674,379.678 158.35,379.829C159.036,379.982 159.705,380.18 160.355,380.419C162.295,381.133 164.058,382.217 165.558,383.586C165.597,383.622 165.636,383.657 165.674,383.693L166.747,382.62L167.147,388.284L167.149,388.3C164.721,384.052 160.142,381.183 154.887,381.183C147.088,381.183 140.766,387.505 140.766,395.296C140.766,403.096 147.088,409.417 154.887,409.417C162.686,409.417 169.008,403.096 169.008,395.296L170.733,395.296C170.733,396.49 170.601,397.654 170.35,398.773L170.344,398.773C170.004,400.308 169.439,401.758 168.687,403.088C167.731,404.777 166.472,406.275 164.987,407.505C164.979,407.511 164.972,407.517 164.964,407.523C164.951,407.535 164.937,407.546 164.924,407.558C162.252,409.747 158.851,411.082 155.143,411.141C155.058,411.142 154.973,411.143 154.887,411.143Z" style="fill:rgb(46,161,219);fill-rule:nonzero;"/>
                    </g>
                </g>
            </g>
        </g>
    </g>
</svg>
