<?xml version="1.0" encoding="UTF-8" standalone="no"?>
<!DOCTYPE svg PUBLIC "-//W3C//DTD SVG 1.1//EN" "http://www.w3.org/Graphics/SVG/1.1/DTD/svg11.dtd">
<svg width="100%" height="100%" viewBox="0 0 192 150" version="1.1" xmlns="http://www.w3.org/2000/svg" xmlns:xlink="http://www.w3.org/1999/xlink" xml:space="preserve" xmlns:serif="http://www.serif.com/" style="fill-rule:evenodd;clip-rule:evenodd;stroke-linecap:round;stroke-linejoin:round;stroke-miterlimit:1.5;">
    <g transform="matrix(0.973783,0,0,0.97943,4.07961,2.75886)">
        <path d="M185.4,24.939L185.4,122.578C185.4,134.512 175.655,144.2 163.653,144.2L24.932,144.2C12.93,144.2 3.185,134.512 3.185,122.578L3.185,24.939C3.185,13.005 12.93,3.317 24.932,3.317L163.653,3.317C175.655,3.317 185.4,13.005 185.4,24.939Z" style="fill:rgb(60,60,60);stroke:rgb(46,161,219);stroke-width:5.12px;"/>
    </g>
    <g transform="matrix(0.205904,0,0,0.205904,-757.789,-16.542)">
        <g transform="matrix(4.97377,0,0,5.49034,3676.73,60.3281)">
            <path d="M153.924,50.583L153.924,107.159C153.924,111.062 150.426,114.231 146.118,114.231L42.603,114.231C38.295,114.231 34.797,111.062 34.797,107.159L34.797,50.583C34.797,46.68 38.295,43.512 42.603,43.512L146.118,43.512C150.426,43.512 153.924,46.68 153.924,50.583Z" style="fill:white;"/>
        </g>
        <g transform="matrix(0.998314,0,0,1,6.48901,0)">
            <rect x="3849.8" y="249.695" width="593.51" height="117.32" style="fill:rgb(46,161,219);fill-rule:nonzero;"/>
        </g>
        <rect x="3875.47" y="402.319" width="55.14" height="55.139" style="fill:rgb(216,220,223);fill-rule:nonzero;"/>
        <rect x="4355.76" y="402.319" width="55.14" height="55.139" style="fill:rgb(216,220,223);fill-rule:nonzero;"/>
        <rect x="3971.53" y="402.319" width="55.14" height="55.139" style="fill:rgb(216,220,223);fill-rule:nonzero;"/>
        <rect x="4067.59" y="402.319" width="55.13" height="55.139" style="fill:rgb(216,220,223);fill-rule:nonzero;"/>
        <rect x="4163.64" y="402.319" width="55.14" height="55.139" style="fill:rgb(216,220,223);fill-rule:nonzero;"/>
        <rect x="4259.7" y="402.319" width="55.14" height="55.139" style="fill:rgb(46,161,219);fill-rule:nonzero;"/>
        <rect x="3875.47" y="502.692" width="55.14" height="55.137" style="fill:rgb(216,220,223);fill-rule:nonzero;"/>
        <rect x="4355.76" y="502.692" width="55.14" height="55.137" style="fill:rgb(216,220,223);fill-rule:nonzero;"/>
        <rect x="3971.53" y="502.692" width="55.14" height="55.137" style="fill:rgb(216,220,223);fill-rule:nonzero;"/>
        <rect x="4067.59" y="502.692" width="55.13" height="55.137" style="fill:rgb(216,220,223);fill-rule:nonzero;"/>
        <rect x="4163.64" y="502.692" width="55.14" height="55.137" style="fill:rgb(46,161,219);fill-rule:nonzero;"/>
        <rect x="4259.7" y="502.692" width="55.14" height="55.137" style="fill:rgb(46,161,219);fill-rule:nonzero;"/>
        <rect x="3875.47" y="600.713" width="55.14" height="55.139" style="fill:rgb(216,220,223);fill-rule:nonzero;"/>
        <rect x="4355.76" y="600.713" width="55.14" height="55.139" style="fill:rgb(216,220,223);fill-rule:nonzero;"/>
        <rect x="3971.53" y="600.713" width="55.14" height="55.139" style="fill:rgb(216,220,223);fill-rule:nonzero;"/>
        <rect x="4067.59" y="600.713" width="55.13" height="55.139" style="fill:rgb(216,220,223);fill-rule:nonzero;"/>
        <rect x="4163.64" y="600.713" width="55.14" height="55.139" style="fill:rgb(216,220,223);fill-rule:nonzero;"/>
        <rect x="4259.7" y="600.713" width="55.14" height="55.139" style="fill:rgb(216,220,223);fill-rule:nonzero;"/>
        <path d="M3987.69,305.795C3987.69,323.029 3973.73,336.996 3956.5,336.996C3939.26,336.996 3925.29,323.029 3925.29,305.795C3925.29,288.565 3939.26,274.593 3956.5,274.593C3973.73,274.593 3987.69,288.565 3987.69,305.795Z" style="fill:rgb(80,82,82);fill-rule:nonzero;"/>
        <path d="M3980.99,302.363C3980.99,311.383 3973.67,318.691 3964.66,318.691L3948.33,318.691C3939.31,318.691 3932,311.383 3932,302.363L3932,218.008C3932,208.988 3939.31,201.68 3948.33,201.68L3964.66,201.68C3973.67,201.68 3980.99,208.988 3980.99,218.008L3980.99,302.363Z" style="fill:rgb(216,220,223);fill-rule:nonzero;"/>
        <path d="M4367.82,305.795C4367.82,323.029 4353.85,336.996 4336.62,336.996C4319.39,336.996 4305.42,323.029 4305.42,305.795C4305.42,288.565 4319.39,274.593 4336.62,274.593C4353.85,274.593 4367.82,288.565 4367.82,305.795Z" style="fill:rgb(80,82,82);fill-rule:nonzero;"/>
        <path d="M4361.11,302.363C4361.11,311.383 4353.81,318.691 4344.79,318.691L4328.46,318.691C4319.44,318.691 4312.13,311.383 4312.13,302.363L4312.13,218.008C4312.13,208.988 4319.44,201.68 4328.46,201.68L4344.79,201.68C4353.81,201.68 4361.11,208.988 4361.11,218.008L4361.11,302.363Z" style="fill:rgb(216,220,223);fill-rule:nonzero;"/>
    </g>
</svg>
