<svg id="Ebene_1" data-name="Ebene 1" xmlns="http://www.w3.org/2000/svg" width="16" height="16" viewBox="0 0 16 16"><defs><style>.cls-1{fill:#103a5d;}.cls-2{fill:#fff;}.cls-3{fill:#fc0;}</style></defs><title>serverlog</title><rect class="cls-1" x="0.57" y="1.2" width="14.34" height="3"/><rect class="cls-2" x="1.22" y="2.47" width="5.98" height="0.47"/><rect class="cls-2" x="1.22" y="3.32" width="5.98" height="0.47"/><rect class="cls-3" x="1.22" y="1.61" width="5.98" height="0.47"/><rect class="cls-1" x="0.57" y="6.04" width="14.34" height="3"/><rect class="cls-3" x="1.22" y="7.31" width="5.98" height="0.47"/><rect class="cls-2" x="1.22" y="8.16" width="5.98" height="0.47"/><rect class="cls-2" x="1.22" y="6.45" width="5.98" height="0.47"/><rect class="cls-1" x="0.57" y="10.88" width="14.34" height="3"/><rect class="cls-2" x="1.22" y="12.15" width="5.98" height="0.47"/><rect class="cls-3" x="1.22" y="13" width="5.98" height="0.47"/><rect class="cls-2" x="1.22" y="11.29" width="5.98" height="0.47"/><ellipse class="cls-2" cx="13.45" cy="2.7" rx="1.11" ry="1.18"/><ellipse class="cls-3" cx="13.45" cy="2.7" rx="0.53" ry="0.57"/><ellipse class="cls-2" cx="13.45" cy="7.54" rx="1.11" ry="1.18"/><ellipse class="cls-3" cx="13.45" cy="7.54" rx="0.53" ry="0.57"/><ellipse class="cls-2" cx="13.45" cy="12.38" rx="1.11" ry="1.18"/><ellipse class="cls-3" cx="13.45" cy="12.38" rx="0.53" ry="0.57"/></svg>