<?xml version="1.0" encoding="UTF-8" standalone="no"?>
<!DOCTYPE svg PUBLIC "-//W3C//DTD SVG 1.1//EN" "http://www.w3.org/Graphics/SVG/1.1/DTD/svg11.dtd">
<svg width="100%" height="100%" viewBox="0 0 192 150" version="1.1" xmlns="http://www.w3.org/2000/svg" xmlns:xlink="http://www.w3.org/1999/xlink" xml:space="preserve" xmlns:serif="http://www.serif.com/" style="fill-rule:evenodd;clip-rule:evenodd;stroke-linecap:round;stroke-linejoin:round;stroke-miterlimit:1.5;">
    <g id="Ebene_7">
        <g transform="matrix(0.973783,0,0,0.97943,4.07961,2.75886)">
            <path d="M185.4,24.939L185.4,122.578C185.4,134.512 175.655,144.2 163.653,144.2L24.932,144.2C12.93,144.2 3.185,134.512 3.185,122.578L3.185,24.939C3.185,13.005 12.93,3.317 24.932,3.317L163.653,3.317C175.655,3.317 185.4,13.005 185.4,24.939Z" style="fill:rgb(60,60,60);stroke:rgb(46,161,219);stroke-width:5.12px;"/>
        </g>
        <g transform="matrix(1.46086,0,0,1.46086,-43.5466,-17.7897)">
            <path d="M123.91,77.39C123.91,77.387 123.91,77.383 123.91,77.38C123.91,73.972 121.108,71.165 117.7,71.16L116.91,71.16L114,59.52C113.044,55.955 109.82,53.435 106.13,53.37L84.77,53.37C81.081,53.433 77.859,55.955 76.91,59.52L74,71.16L73.22,71.16C69.812,71.171 67.011,73.972 67,77.38L67,88.05C66.994,88.529 67.381,88.929 67.86,88.94L70.57,88.94L70.57,92.5C70.693,95.334 73.058,97.599 75.895,97.599C78.732,97.599 81.097,95.334 81.22,92.5L81.22,89L109.7,89L109.7,92.55C109.823,95.384 112.188,97.649 115.025,97.649C117.862,97.649 120.227,95.384 120.35,92.55L120.35,89L123,89C123.481,89.006 123.884,88.621 123.9,88.14L123.9,77.39L123.91,77.39ZM119.46,80.06C119.46,82.501 117.451,84.51 115.01,84.51C112.569,84.51 110.56,82.501 110.56,80.06C110.56,77.623 112.563,75.615 115,75.61C117.441,75.61 119.45,77.619 119.45,80.06M81.31,71.16L83.77,61.24C83.963,60.844 84.336,60.564 84.77,60.49L106.13,60.49C106.564,60.564 106.937,60.844 107.13,61.24L109.59,71.16L81.31,71.16ZM80.31,80.06C80.31,82.501 78.301,84.51 75.86,84.51C73.419,84.51 71.41,82.501 71.41,80.06C71.41,77.623 73.413,75.615 75.85,75.61C75.853,75.61 75.857,75.61 75.86,75.61C78.301,75.61 80.31,77.619 80.31,80.06C80.31,80.06 80.31,80.06 80.31,80.06" style="fill:rgb(46,161,219);fill-rule:nonzero;"/>
        </g>
        <g transform="matrix(1.46086,0,0,1.46086,-43.5466,-21.2301)">
            <path d="M105.81,51.49C105.236,40.883 96.667,32.314 86.06,31.74C85.821,31.738 85.59,31.832 85.42,32C85.225,32.171 85.115,32.42 85.12,32.68L85.12,34.79C85.12,35.284 85.517,35.694 86.01,35.71C94.518,36.207 101.379,43.081 101.86,51.59C101.886,52.083 102.296,52.475 102.79,52.48L104.9,52.48C105.426,52.448 105.841,52.007 105.84,51.48M98.3,51.48C97.771,45.003 92.577,39.809 86.1,39.28L86,39.28C85.496,39.309 85.089,39.716 85.06,40.22L85.06,42.22C85.061,42.69 85.414,43.09 85.88,43.15C90.371,43.557 93.967,47.141 94.39,51.63C94.45,52.096 94.85,52.449 95.32,52.45L97.32,52.45C97.584,52.453 97.837,52.34 98.01,52.14C98.19,51.949 98.28,51.691 98.26,51.43M90.73,49.62C90.73,48.068 89.452,46.79 87.9,46.79C86.348,46.79 85.07,48.068 85.07,49.62C85.07,51.172 86.348,52.45 87.9,52.45C89.452,52.45 90.73,51.172 90.73,49.62" style="fill:white;fill-rule:nonzero;"/>
        </g>
    </g>
</svg>
