<?xml version="1.0" encoding="UTF-8" standalone="no"?>
<!DOCTYPE svg PUBLIC "-//W3C//DTD SVG 1.1//EN" "http://www.w3.org/Graphics/SVG/1.1/DTD/svg11.dtd">
<svg width="100%" height="100%" viewBox="0 0 192 150" version="1.1" xmlns="http://www.w3.org/2000/svg" xmlns:xlink="http://www.w3.org/1999/xlink" xml:space="preserve" xmlns:serif="http://www.serif.com/" style="fill-rule:evenodd;clip-rule:evenodd;stroke-linecap:round;stroke-linejoin:round;stroke-miterlimit:1.5;">
    <g transform="matrix(0.973783,0,0,0.97943,4.07961,2.75886)">
        <path d="M185.4,24.939L185.4,122.578C185.4,134.512 175.655,144.2 163.653,144.2L24.932,144.2C12.93,144.2 3.185,134.512 3.185,122.578L3.185,24.939C3.185,13.005 12.93,3.317 24.932,3.317L163.653,3.317C175.655,3.317 185.4,13.005 185.4,24.939Z" style="fill:rgb(60,60,60);stroke:rgb(46,161,219);stroke-width:5.12px;"/>
    </g>
    <g transform="matrix(0.194159,0,0,0.194159,-468.123,-716.519)">
        <path d="M2803.69,4110.04L2927.46,3961.21L3088.52,4063.59L3195.92,3987.24L3195.92,3879.29L2614,3879.29L2614,4083.84L2696.39,4026.51L2803.69,4110.04Z" style="fill:white;fill-rule:nonzero;"/>
        <path d="M3088.96,4080.1L2930.28,3979.24L2805.75,4129.01L2695.93,4043.52L2614,4100.54L2614,4220.87L3195.92,4220.87L3195.92,4004.06L3088.96,4080.1Z" style="fill:rgb(46,161,219);fill-rule:nonzero;"/>
        <path d="M2603.63,4091.06L2611.45,4102.31L2614,4100.54L2614,4083.84L2603.63,4091.06Z" style="fill:rgb(240,238,239);fill-rule:nonzero;"/>
        <path d="M3206.49,3996.55L3198.55,3985.38L3195.92,3987.24L3195.92,4004.06L3206.49,3996.55Z" style="fill:rgb(240,238,239);fill-rule:nonzero;"/>
        <path d="M2805.75,4129.01L2930.28,3979.24L3088.96,4080.1L3195.92,4004.06L3195.92,3987.24L3088.52,4063.59L2927.46,3961.21L2803.69,4110.04L2696.39,4026.51L2614,4083.84L2614,4100.54L2695.93,4043.52L2805.75,4129.01Z" style="fill:rgb(60,60,60);fill-rule:nonzero;"/>
        <path d="M2546.64,4256.91C2546.64,4256.99 2546.63,4257.09 2546.63,4257.17C2546.63,4281.57 2559.13,4301.35 2574.53,4301.35L3235.39,4301.35C3250.8,4301.35 3263.28,4281.57 3263.28,4257.17L3263.28,4256.91L2546.64,4256.91Z" style="fill:rgb(216,220,223);fill-rule:nonzero;"/>
        <path d="M3009.65,4279.13C3009.65,4284.85 3005.01,4289.49 2999.28,4289.49L2810.63,4289.49C2804.9,4289.49 2800.26,4284.85 2800.26,4279.13C2800.26,4273.4 2804.9,4268.76 2810.63,4268.76L2999.28,4268.76C3005.01,4268.76 3009.65,4273.4 3009.65,4279.13Z" style="fill:rgb(60,60,60);fill-rule:nonzero;"/>
        <path d="M2715.34,4035.02C2715.34,4045.6 2706.75,4054.2 2696.17,4054.2C2685.56,4054.2 2676.98,4045.6 2676.98,4035.02C2676.98,4024.42 2685.56,4015.84 2696.17,4015.84C2706.75,4015.84 2715.34,4024.42 2715.34,4035.02Z" style="fill:rgb(60,60,60);fill-rule:nonzero;"/>
        <path d="M2823.9,4119.53C2823.9,4130.11 2815.32,4138.7 2804.72,4138.7C2794.13,4138.7 2785.54,4130.11 2785.54,4119.53C2785.54,4108.94 2794.13,4100.35 2804.72,4100.35C2815.32,4100.35 2823.9,4108.94 2823.9,4119.53Z" style="fill:rgb(60,60,60);fill-rule:nonzero;"/>
        <path d="M2950.36,3973.37C2950.36,3983.96 2941.77,3992.55 2931.19,3992.55C2920.59,3992.55 2912.01,3983.96 2912.01,3973.37C2912.01,3962.78 2920.59,3954.19 2931.19,3954.19C2941.77,3954.19 2950.36,3962.78 2950.36,3973.37Z" style="fill:rgb(60,60,60);fill-rule:nonzero;"/>
        <path d="M3107.63,4075.2C3105.77,4085.62 3095.81,4092.58 3085.38,4090.72C3074.96,4088.88 3068,4078.92 3069.85,4068.49C3071.7,4058.06 3081.67,4051.11 3092.08,4052.96C3102.51,4054.81 3109.48,4064.76 3107.63,4075.2Z" style="fill:rgb(60,60,60);fill-rule:nonzero;"/>
        <path d="M3195.92,4220.87L2614,4220.87L2614,3879.29L3195.92,3879.29L3195.92,4220.87ZM3189.98,3851.95L2619.93,3851.95C2599.4,3851.95 2582.76,3870.36 2582.76,3893.07L2582.76,4207.1C2582.76,4229.8 2599.4,4248.21 2619.93,4248.21L3189.98,4248.21C3210.52,4248.21 3227.16,4229.8 3227.16,4207.1L3227.16,3893.07C3227.16,3870.36 3210.52,3851.95 3189.98,3851.95Z" style="fill:rgb(216,220,223);fill-rule:nonzero;"/>
        <path d="M2915.32,3865.53C2915.32,3871.26 2910.68,3875.9 2904.95,3875.9C2899.23,3875.9 2894.59,3871.26 2894.59,3865.53C2894.59,3859.81 2899.23,3855.17 2904.95,3855.17C2910.68,3855.17 2915.32,3859.81 2915.32,3865.53Z" style="fill:rgb(60,60,60);fill-rule:nonzero;"/>
    </g>
</svg>
